<?xml version="1.0" encoding="utf-8"?>
<!-- Generator: Adobe Illustrator 24.0.0, SVG Export Plug-In . SVG Version: 6.00 Build 0)  -->
<svg version="1.1" id="Layer_1" xmlns="http://www.w3.org/2000/svg" xmlns:xlink="http://www.w3.org/1999/xlink" x="0px" y="0px"
	 viewBox="0 0 20 20" style="enable-background:new 0 0 20 20;" xml:space="preserve">
<style type="text/css">
	.st0{fill:#04AFE3;}
</style>
<g>
	<path class="st0" d="M16.9,9.5l-1.7-2.4c0-0.1-0.1-0.1-0.2-0.1h-2.6V6.2c0-0.3-0.2-0.5-0.5-0.5H3.6c-0.3,0-0.5,0.2-0.5,0.5v5.5
		c0,0.3,0.2,0.5,0.5,0.5h0.1v0.9c0,0.1,0.1,0.2,0.2,0.2h0.5c0.1,0.6,0.6,1,1.2,1s1.1-0.5,1.2-1h5.5c0.1,0.6,0.6,1,1.2,1
		c0.6,0,1.1-0.5,1.2-1h1.9c0.1,0,0.2-0.1,0.2-0.2V9.6C16.9,9.6,16.9,9.6,16.9,9.5z M3.5,11.6V6.2c0,0,0-0.1,0.1-0.1h8.3
		c0,0,0.1,0,0.1,0.1v1.1v4.4H3.9L3.5,11.6C3.5,11.7,3.5,11.7,3.5,11.6z M4.1,12.1h0.7c-0.2,0.2-0.3,0.4-0.4,0.7H4.1V12.1z M5.6,13.9
		c-0.5,0-0.8-0.4-0.8-0.8s0.4-0.8,0.8-0.8s0.8,0.4,0.8,0.8S6.1,13.9,5.6,13.9z M13.5,13.9c-0.5,0-0.8-0.4-0.8-0.8s0.4-0.8,0.8-0.8
		c0.5,0,0.8,0.4,0.8,0.8S14,13.9,13.5,13.9z M16.5,12.8h-1.7c-0.1-0.6-0.6-1-1.2-1c-0.6,0-1.1,0.5-1.2,1H6.8c0-0.3-0.2-0.5-0.4-0.7
		h5.7c0.1,0,0.2-0.1,0.2-0.2V7.5h2.5l1.6,2.2V12.8z"/>
	<path class="st0" d="M14.6,7.8h-1.7c-0.1,0-0.2,0.1-0.2,0.2v1.7c0,0.1,0.1,0.2,0.2,0.2h3c0.1,0,0.2,0,0.2-0.1c0-0.1,0-0.2,0-0.2
		l-1.3-1.7C14.7,7.8,14.7,7.8,14.6,7.8z M13.1,9.5V8.2h1.4l1,1.3H13.1z"/>
	<path class="st0" d="M13.8,10.6h-0.9c-0.1,0-0.2,0.1-0.2,0.2s0.1,0.2,0.2,0.2h0.9c0.1,0,0.2-0.1,0.2-0.2S13.9,10.6,13.8,10.6z"/>
</g>
</svg>
