<?xml version="1.0" encoding="utf-8"?>
<!-- Generator: Adobe Illustrator 24.0.0, SVG Export Plug-In . SVG Version: 6.00 Build 0)  -->
<svg version="1.1" id="Layer_1" xmlns="http://www.w3.org/2000/svg" xmlns:xlink="http://www.w3.org/1999/xlink" x="0px" y="0px"
	 viewBox="0 0 20 20" style="enable-background:new 0 0 20 20;" xml:space="preserve">
<style type="text/css">
	.st0{fill:#04AFE3;}
</style>
<path class="st0" d="M14.6,6.5c0-0.7-0.6-1.3-1.3-1.3c-0.7,0-1.3,0.6-1.3,1.3c0,0.6,0.5,1.2,1.1,1.3V9c0,0.4-0.3,0.7-0.7,0.7h-2.3
	V4.9c0.6-0.1,1-0.6,1-1.3c0-0.7-0.6-1.3-1.3-1.3c-0.7,0-1.3,0.6-1.3,1.3c0,0.6,0.5,1.2,1.1,1.3v4.9c0,0,0,0.1,0,0.1c0,0,0,0.1,0,0.1
	v2.2H7.8c-0.6,0-1-0.4-1-1V9.9c0,0,0,0,0,0c0.6-0.1,1.1-0.6,1.1-1.3c0-0.7-0.6-1.3-1.3-1.3C5.9,7.4,5.4,8,5.4,8.7
	c0,0.6,0.5,1.2,1.1,1.3c0,0,0,0,0,0v1.3c0,0.8,0.6,1.4,1.4,1.4h1.9v1.3c-0.9,0.1-1.7,0.9-1.7,1.9c0,1,0.8,1.9,1.9,1.9
	s1.9-0.8,1.9-1.9c0-1-0.7-1.8-1.7-1.9v-3.8h2.3c0.6,0,1.1-0.5,1.1-1.1V7.8C14.2,7.7,14.6,7.2,14.6,6.5z M11.5,15.8
	c0,0.8-0.7,1.5-1.5,1.5c-0.8,0-1.5-0.7-1.5-1.5c0-0.8,0.7-1.5,1.5-1.5C10.8,14.3,11.5,15,11.5,15.8z"/>
</svg>
