<?xml version="1.0" encoding="utf-8"?>
<!-- Generator: Adobe Illustrator 24.0.0, SVG Export Plug-In . SVG Version: 6.00 Build 0)  -->
<svg version="1.1" id="Layer_1" xmlns="http://www.w3.org/2000/svg" xmlns:xlink="http://www.w3.org/1999/xlink" x="0px" y="0px"
	 viewBox="0 0 20 20" style="enable-background:new 0 0 20 20;" xml:space="preserve">
<style type="text/css">
	.st0{fill:#04AFE3;}
</style>
<g>
	<path class="st0" d="M17.1,4.3H2.9C2.5,4.3,2.2,4.6,2.2,5V15c0,0.4,0.3,0.7,0.7,0.7h14.2c0.4,0,0.7-0.3,0.7-0.7V5
		C17.8,4.6,17.5,4.3,17.1,4.3z M17.4,15c0,0.1-0.1,0.3-0.3,0.3H2.9c-0.1,0-0.3-0.1-0.3-0.3V5c0-0.1,0.1-0.3,0.3-0.3h14.2
		c0.1,0,0.3,0.1,0.3,0.3V15z"/>
	<path class="st0" d="M15.9,6H10C9.9,6,9.8,6.1,9.8,6.2c0,0.1,0.1,0.2,0.2,0.2h5.9c0.1,0,0.2-0.1,0.2-0.2C16.1,6.1,16,6,15.9,6z"/>
	<path class="st0" d="M15.9,7.6H10c-0.1,0-0.2,0.1-0.2,0.2C9.8,8,9.9,8,10,8h5.9C16,8,16.1,8,16.1,7.8C16.1,7.7,16,7.6,15.9,7.6z"/>
	<path class="st0" d="M15.9,9.3H10c-0.1,0-0.2,0.1-0.2,0.2S9.9,9.7,10,9.7h5.9c0.1,0,0.2-0.1,0.2-0.2S16,9.3,15.9,9.3z"/>
	<path class="st0" d="M10.8,12.7H9.5c-0.1,0-0.2,0.1-0.2,0.2v1.7c0,0.1,0.1,0.2,0.2,0.2h1.4c0.1,0,0.2-0.1,0.2-0.2v-1.7
		C11.1,12.8,11,12.7,10.8,12.7z M10.6,14.4H9.7v-1.3h0.9V14.4z"/>
	<path class="st0" d="M13.4,11.8H12c-0.1,0-0.2,0.1-0.2,0.2v2.5c0,0.1,0.1,0.2,0.2,0.2h1.4c0.1,0,0.2-0.1,0.2-0.2V12
		C13.6,11.9,13.5,11.8,13.4,11.8z M13.1,14.4h-0.9v-2.1h0.9V14.4z"/>
	<path class="st0" d="M15.9,11h-1.4c-0.1,0-0.2,0.1-0.2,0.2v3.4c0,0.1,0.1,0.2,0.2,0.2h1.4c0.1,0,0.2-0.1,0.2-0.2v-3.4
		C16.1,11.1,16,11,15.9,11z M15.7,14.4h-0.9v-2.9h0.9V14.4z"/>
	<path class="st0" d="M6.9,5.9L6.9,5.9l-0.2,0H6.4v0C5,6,3.9,7.2,3.9,8.7c0,0.7,0.3,1.4,0.8,1.9l0,0l0.2,0.1L5,10.8l0,0
		c0.5,0.4,1.1,0.6,1.7,0.6c1.5,0,2.7-1.2,2.7-2.7C9.4,7.2,8.3,6,6.9,5.9z M5,10.2c-0.4-0.4-0.6-1-0.6-1.6c0-1.2,0.9-2.2,2.1-2.3v2.3
		L5,10.2z"/>
</g>
</svg>
