<svg width="37" height="37" viewBox="0 0 37 37" fill="none" xmlns="http://www.w3.org/2000/svg">
<path d="M31.5815 23.9185C29.5665 21.9036 27.1682 20.4119 24.5515 19.509C27.3541 17.5787 29.1953 14.3482 29.1953 10.6953C29.1953 4.79793 24.3974 0 18.5 0C12.6026 0 7.80469 4.79793 7.80469 10.6953C7.80469 14.3482 9.64594 17.5787 12.4486 19.509C9.83188 20.4119 7.43353 21.9036 5.41855 23.9185C1.92436 27.4127 0 32.0585 0 37H2.89062C2.89062 28.3929 9.89295 21.3906 18.5 21.3906C27.1071 21.3906 34.1094 28.3929 34.1094 37H37C37 32.0585 35.0756 27.4127 31.5815 23.9185ZM18.5 18.5C14.1965 18.5 10.6953 14.9989 10.6953 10.6953C10.6953 6.39175 14.1965 2.89062 18.5 2.89062C22.8035 2.89062 26.3047 6.39175 26.3047 10.6953C26.3047 14.9989 22.8035 18.5 18.5 18.5Z" fill="#04AFE3"/>
</svg>
