<svg width="37" height="38" viewBox="0 0 37 38" fill="none" xmlns="http://www.w3.org/2000/svg">
<path fill-rule="evenodd" clip-rule="evenodd" d="M6.50236 9.56527V1.06808C6.50236 0.474703 6.02657 0 5.43185 0C4.83712 0 4.36134 0.474703 4.36134 1.06808V9.56527C1.87934 10.0637 0 12.2553 0 14.8819C0 17.5086 1.87934 19.7002 4.36134 20.1986V36.924C4.36134 37.5174 4.83712 37.9921 5.43185 37.9921C6.02657 37.9921 6.50236 37.5174 6.50236 36.924V20.1907C8.98435 19.6923 10.8637 17.5007 10.8637 14.874C10.8637 12.2473 8.98435 10.0637 6.50236 9.56527ZM5.43185 18.1653C3.61594 18.1653 2.14102 16.6937 2.14102 14.8819C2.14102 13.0702 3.61594 11.5986 5.43185 11.5986C7.24775 11.5986 8.72267 13.0702 8.72267 14.8819C8.72267 16.6937 7.23982 18.1653 5.43185 18.1653ZM19.6102 18.5213V1.06808C19.6102 0.474703 19.1344 0 18.5396 0C17.9449 0 17.4691 0.474703 17.4691 1.06808V18.5213C14.9871 19.0198 13.1078 21.2113 13.1078 23.838C13.1078 26.4647 14.9871 28.6563 17.4691 29.1547V36.924C17.4691 37.5174 17.9449 37.9921 18.5396 37.9921C19.1344 37.9921 19.6102 37.5174 19.6102 36.924V29.1547C22.0921 28.6563 23.9715 26.4647 23.9715 23.838C23.9715 21.2192 22.1001 19.0198 19.6102 18.5213ZM18.5396 27.1214C16.7237 27.1214 15.2488 25.6498 15.2488 23.838C15.2488 22.0262 16.7237 20.5547 18.5396 20.5547C20.3555 20.5547 21.8305 22.0262 21.8305 23.838C21.8305 25.6498 20.3555 27.1214 18.5396 27.1214ZM32.6387 1.06808V9.56527C35.1286 10.0637 37 12.2473 37 14.874C37 17.5007 35.1207 19.6923 32.6387 20.1907V36.9319C32.6387 37.5253 32.1629 38 31.5681 38C30.9734 38 30.4976 37.5253 30.4976 36.9319V20.1986C28.0156 19.7002 26.1363 17.5086 26.1363 14.8819C26.1363 12.2553 28.0156 10.0637 30.4976 9.56527V1.06808C30.4976 0.474703 30.9734 0 31.5681 0C32.1629 0 32.6387 0.474703 32.6387 1.06808ZM28.2773 14.8819C28.2773 16.6937 29.7522 18.1653 31.5681 18.1653C33.384 18.1653 34.859 16.6937 34.859 14.8819C34.859 13.0702 33.384 11.5986 31.5681 11.5986C29.7522 11.5986 28.2773 13.0702 28.2773 14.8819Z" fill="#04AFE3"/>
</svg>
