<?xml version="1.0" encoding="utf-8"?>
<!-- Generator: Adobe Illustrator 24.0.0, SVG Export Plug-In . SVG Version: 6.00 Build 0)  -->
<svg version="1.1" id="Layer_1" xmlns="http://www.w3.org/2000/svg" xmlns:xlink="http://www.w3.org/1999/xlink" x="0px" y="0px"
	 viewBox="0 0 20 20" style="enable-background:new 0 0 20 20;" xml:space="preserve">
<style type="text/css">
	.st0{fill:#04AFE3;}
</style>
<g>
	<path class="st0" d="M13.6,14.5c0-0.1,0-0.2,0-0.4V8.2C13.7,7,12.1,6,10.1,6C9.5,6,9,6.1,8.6,6.2c0-0.1,0-0.1,0-0.2
		c0-1.5-1.1-2.7-2.6-2.8v0H5.8H5.6v0C4.1,3.3,3,4.6,3,6C3,6.8,3.3,7.5,3.8,8l0,0l0.2,0.1c0,0,0,0,0,0l0.2,0.1l0,0
		c0.5,0.4,1.1,0.6,1.7,0.6c0.2,0,0.4,0,0.7-0.1v5.3c0,1.2,1.6,2.2,3.6,2.2c0.9,0,1.7-0.2,2.4-0.5v0.8c0,0.1,0.1,0.2,0.2,0.2h0.9
		c0.1,0,0.2-0.1,0.2-0.2v-1.9C13.7,14.6,13.7,14.5,13.6,14.5z M13.2,10.2c0,0.9-1.4,1.7-3.1,1.7s-3.1-0.8-3.1-1.7V9.3
		c0.6,0.7,1.8,1.1,3.1,1.1s2.5-0.4,3.1-1.1V10.2z M13.2,8.2c0,0.9-1.4,1.7-3.1,1.7S6.9,9.2,6.9,8.2c0-0.9,1.4-1.7,3.1-1.7
		S13.2,7.3,13.2,8.2z M5.8,8.4c-0.5,0-1-0.2-1.4-0.5L6,6.2V3.7C7.2,3.8,8.2,4.8,8.2,6c0,0.1,0,0.2,0,0.3c-1,0.4-1.7,1.1-1.7,1.9v0.1
		C6.2,8.4,6,8.4,5.8,8.4z M10.1,12.4c1.4,0,2.5-0.4,3.1-1.1v0.8c0,0.9-1.4,1.7-3.1,1.7s-3.1-0.8-3.1-1.7v-0.8
		C7.6,12,8.7,12.4,10.1,12.4z M6.9,14.1v-0.8c0.6,0.7,1.8,1.1,3.1,1.1s2.5-0.4,3.1-1.1v0.8c0,0.1,0,0.3-0.1,0.4
		c-0.1,0.2-0.3,0.4-0.6,0.6c-0.6,0.4-1.5,0.7-2.5,0.7C8.4,15.8,6.9,15,6.9,14.1z M12.9,16.3v-0.9c0.2-0.1,0.3-0.3,0.4-0.4v1.3H12.9z
		"/>
	<path class="st0" d="M15.1,13.6h-0.9c-0.1,0-0.2,0.1-0.2,0.2v2.7c0,0.1,0.1,0.2,0.2,0.2h0.9c0.1,0,0.2-0.1,0.2-0.2v-2.7
		C15.3,13.7,15.2,13.6,15.1,13.6z M14.9,16.3h-0.4v-2.3h0.4V16.3z"/>
	<path class="st0" d="M16.7,12.2h-0.9c-0.1,0-0.2,0.1-0.2,0.2v4.1c0,0.1,0.1,0.2,0.2,0.2h0.9c0.1,0,0.2-0.1,0.2-0.2v-4.1
		C16.9,12.3,16.8,12.2,16.7,12.2z M16.5,16.3h-0.4v-3.7h0.4V16.3z"/>
	<path class="st0" d="M12.6,4.5h4.1c0.1,0,0.2-0.1,0.2-0.2c0-0.1-0.1-0.2-0.2-0.2h-4.1c-0.1,0-0.2,0.1-0.2,0.2
		C12.4,4.4,12.5,4.5,12.6,4.5z"/>
	<path class="st0" d="M14.3,5.7c-0.1,0-0.2,0.1-0.2,0.2c0,0.1,0.1,0.2,0.2,0.2h2.5C16.9,6.1,17,6,17,5.9c0-0.1-0.1-0.2-0.2-0.2H14.3
		z"/>
	<path class="st0" d="M16.8,7.4h-1.7c-0.1,0-0.2,0.1-0.2,0.2s0.1,0.2,0.2,0.2h1.7c0.1,0,0.2-0.1,0.2-0.2S16.9,7.4,16.8,7.4z"/>
</g>
</svg>
