<?xml version="1.0" encoding="utf-8"?>
<!-- Generator: Adobe Illustrator 24.0.0, SVG Export Plug-In . SVG Version: 6.00 Build 0)  -->
<svg version="1.1" id="Layer_1" xmlns="http://www.w3.org/2000/svg" xmlns:xlink="http://www.w3.org/1999/xlink" x="0px" y="0px"
	 viewBox="0 0 20 20" style="enable-background:new 0 0 20 20;" xml:space="preserve">
<style type="text/css">
	.st0{fill:#04AFE3;}
</style>
<g>
	<path class="st0" d="M17.6,10.6V9.4c0-0.5-0.4-0.9-0.9-0.9h-0.2c-0.4,0-0.7-0.2-0.8-0.6c-0.1-0.2-0.1-0.3-0.2-0.5
		c-0.2-0.3-0.1-0.7,0.2-1l0.2-0.2c0.4-0.4,0.4-0.9,0-1.3L15,4.2c-0.4-0.4-0.9-0.4-1.3,0l-0.2,0.2c-0.3,0.3-0.7,0.3-1,0.2
		c-0.2-0.1-0.3-0.1-0.5-0.2c-0.4-0.1-0.6-0.5-0.6-0.8V3.3c0-0.5-0.4-0.9-0.9-0.9H9.4c-0.5,0-0.9,0.4-0.9,0.9v0.2
		c0,0.4-0.2,0.7-0.6,0.8C7.8,4.4,7.6,4.5,7.4,4.5c-0.3,0.2-0.7,0.1-1-0.2L6.3,4.2C5.9,3.9,5.4,3.9,5,4.2L4.2,5
		c-0.4,0.4-0.4,0.9,0,1.3l0.1,0.1c0.3,0.3,0.3,0.7,0.2,1C4.4,7.6,4.3,7.8,4.3,7.9C4.1,8.3,3.8,8.5,3.4,8.5H3.3
		c-0.5,0-0.9,0.4-0.9,0.9v1.2c0,0.5,0.4,0.9,0.9,0.9h0.1c0.4,0,0.7,0.2,0.8,0.6c0.1,0.2,0.1,0.4,0.2,0.5c0.2,0.3,0.1,0.7-0.2,1
		l-0.1,0.1c-0.4,0.4-0.4,0.9,0,1.3L5,15.8c0.4,0.4,0.9,0.4,1.3,0l0.1-0.1c0.3-0.3,0.7-0.3,1-0.2c0.2,0.1,0.4,0.2,0.5,0.2
		c0.4,0.1,0.6,0.5,0.6,0.8v0.1c0,0.5,0.4,0.9,0.9,0.9h1.2c0.5,0,0.9-0.4,0.9-0.9v-0.2c0-0.4,0.2-0.7,0.6-0.8
		c0.2-0.1,0.3-0.1,0.5-0.2c0.3-0.2,0.8-0.1,1,0.2l0.1,0.1c0.4,0.4,0.9,0.4,1.3,0l0.8-0.8c0.4-0.4,0.4-0.9,0-1.3l-0.1-0.1
		c-0.3-0.3-0.3-0.7-0.2-1c0.1-0.2,0.1-0.3,0.2-0.5c0.1-0.4,0.5-0.6,0.8-0.6h0.2C17.2,11.5,17.6,11.1,17.6,10.6z M11.5,13.4
		C11.4,13.5,11.4,13.5,11.5,13.4c-0.5,0.2-1,0.3-1.5,0.3s-1-0.1-1.4-0.3c0,0-0.1,0-0.1,0c-0.9-0.4-1.6-1.1-2-2c0,0,0-0.1,0-0.1
		C6.3,11,6.2,10.5,6.2,10s0.1-1,0.3-1.4c0,0,0-0.1,0-0.1c0.4-0.9,1.1-1.6,2-2c0,0,0.1,0,0.1,0C9,6.3,9.5,6.2,10,6.2s1,0.1,1.4,0.3
		c0,0,0.1,0,0.1,0c0.9,0.4,1.6,1.1,2,2c0,0,0,0.1,0,0.1c0.2,0.4,0.3,0.9,0.3,1.4s-0.1,1-0.3,1.4c0,0,0,0.1,0,0.1
		C13.1,12.4,12.4,13.1,11.5,13.4z"/>
</g>
</svg>
