<?xml version="1.0" encoding="utf-8"?>
<!-- Generator: Adobe Illustrator 24.0.0, SVG Export Plug-In . SVG Version: 6.00 Build 0)  -->
<svg version="1.1" id="Layer_1" xmlns="http://www.w3.org/2000/svg" xmlns:xlink="http://www.w3.org/1999/xlink" x="0px" y="0px"
	 viewBox="0 0 20 20" width="100%" height="100%" style="enable-background:new 0 0 20 20;" xml:space="preserve">
<style type="text/css">
	.st0{fill:#04AFE3;}
</style>
<g>
	<path class="st0" d="M17.2,7.3L16,3.7c0-0.1-0.1-0.2-0.2-0.2h-2.9H10H7.1H4.3C4.2,3.5,4.1,3.6,4,3.7L2.8,7.3
		C2.6,7.9,2.7,8.6,3.1,9.1C3.3,9.4,3.7,9.7,4,9.8v6.4c0,0.1,0.1,0.2,0.2,0.2h7.2h2.9h1.4c0.1,0,0.2-0.1,0.2-0.2V9.8
		c0.4-0.1,0.7-0.4,0.9-0.7C17.3,8.6,17.4,7.9,17.2,7.3z M13.3,7.7c0.1,0.4-0.1,0.9-0.3,1.2c-0.3,0.3-0.7,0.5-1.1,0.5h-0.1
		c-0.8,0-1.5-0.7-1.5-1.5V4h2.4l0.3,1.6L13.3,7.7z M9.8,8c0,0.8-0.7,1.5-1.5,1.5H8.2c-0.4,0-0.8-0.2-1.1-0.5
		C6.8,8.6,6.7,8.1,6.7,7.7L7.3,4h2.4V8z M3.5,8.8C3.2,8.4,3.1,7.9,3.3,7.5L4.4,4h2.4L6.2,7.6c0,0,0,0,0,0L6.2,8.2
		C6,8.9,5.4,9.4,4.7,9.4C4.2,9.4,3.8,9.2,3.5,8.8z M15.5,16h-1v-4.6c0-0.1-0.1-0.2-0.2-0.2h-2.9c-0.1,0-0.2,0.1-0.2,0.2V16H4.5V9.9
		c0.1,0,0.1,0,0.2,0c0.8,0,1.4-0.4,1.7-1.1C6.5,9,6.6,9.1,6.7,9.2c0.4,0.4,0.9,0.7,1.5,0.7h0.1c0.7,0,1.4-0.4,1.7-1
		c0.3,0.6,1,1,1.7,1h0.1c0.6,0,1.1-0.3,1.5-0.7c0.1-0.1,0.2-0.2,0.2-0.4c0.3,0.6,1,1.1,1.7,1.1c0.1,0,0.1,0,0.2,0V16z M16.5,8.8
		c-0.3,0.4-0.7,0.6-1.2,0.6c-0.7,0-1.3-0.5-1.5-1.2L13.5,6l-0.3-2h2.4l1.1,3.5C16.9,7.9,16.8,8.4,16.5,8.8z"/>
	<path class="st0" d="M10,11.3H5.7c-0.1,0-0.2,0.1-0.2,0.2v3c0,0.1,0.1,0.2,0.2,0.2H10c0.1,0,0.2-0.1,0.2-0.2v-3
		C10.2,11.4,10.1,11.3,10,11.3z M9.7,14.2H5.9v-2.5h3.8V14.2z"/>
</g>
</svg>
