<?xml version="1.0" encoding="utf-8"?>
<!-- Generator: Adobe Illustrator 24.0.0, SVG Export Plug-In . SVG Version: 6.00 Build 0)  -->
<svg version="1.1" id="Layer_1" xmlns="http://www.w3.org/2000/svg" xmlns:xlink="http://www.w3.org/1999/xlink" x="0px" y="0px"
	 viewBox="0 0 20 20" style="enable-background:new 0 0 20 20;" xml:space="preserve">
<style type="text/css">
	.st0{fill:#04AFE3;}
</style>
<g>
	<path class="st0" d="M14.4,10.1L14.4,10.1l-0.1-0.8c0.9-0.4,1.5-1.3,1.5-2.3V5.1c0-1.4-1.1-2.6-2.6-2.6c-1.4,0-2.6,1.1-2.6,2.6v1.9
		c0,1,0.6,1.9,1.5,2.3v0.8h-0.1c-0.7,0-1.3,0.2-1.8,0.6C9.5,9.5,8.2,8.7,6.7,8.7c-2.4,0-4.4,2-4.4,4.4s2,4.4,4.4,4.4s4.4-2,4.4-4.4
		c0-0.8-0.2-1.5-0.5-2.1c0.5-0.3,1-0.5,1.6-0.5h0.1v0.1c0,0.6,0.5,1.1,1.1,1.1c0.6,0,1.1-0.5,1.1-1.1v-0.1h0.1
		c1.6,0,2.9,1.3,2.9,2.9v3h0.4v-3C17.7,11.5,16.2,10.1,14.4,10.1z M6.7,17.1c-2.2,0-4-1.8-4-4s1.8-4,4-4s4,1.8,4,4
		S8.9,17.1,6.7,17.1z M13.3,2.9c1.2,0,2.1,1,2.1,2.1v0.5c-0.7,0-1-0.9-1-1c0-0.1-0.1-0.1-0.2-0.2c-0.1,0-0.2,0-0.2,0.1
		c-0.7,0.9-2.3,1-2.9,1V5.1C11.1,3.9,12.1,2.9,13.3,2.9z M11.1,6.9v-1c0.6,0,2.1-0.1,3-0.9c0.2,0.4,0.6,0.9,1.3,0.9v1
		c0,1.2-1,2.1-2.1,2.1C12.1,9.1,11.1,8.1,11.1,6.9z M13.3,11.2c-0.4,0-0.6-0.3-0.6-0.6V9.4c0.2,0,0.4,0.1,0.6,0.1
		c0.2,0,0.5,0,0.7-0.1v1.2C14,10.9,13.7,11.2,13.3,11.2z"/>
	<path class="st0" d="M7.9,13.1c-0.2-0.1-0.4-0.2-0.7-0.4c-0.2-0.1-0.4-0.2-0.5-0.2c-0.1-0.1-0.2-0.1-0.2-0.2
		c-0.1-0.1-0.1-0.1-0.1-0.2c0-0.1,0.1-0.2,0.2-0.3c0.1-0.1,0.3-0.1,0.5-0.1c0.4,0,0.8,0.1,1.2,0.3v-1c-0.3-0.1-0.6-0.2-0.9-0.3v-0.6
		h-1v0.6c-0.3,0.1-0.6,0.2-0.8,0.5C5.1,11.5,5,11.8,5,12.1c0,0.3,0.1,0.6,0.3,0.8c0.2,0.2,0.5,0.4,0.9,0.6c0.2,0.1,0.4,0.2,0.5,0.2
		c0.1,0.1,0.2,0.1,0.2,0.2C7,13.9,7.1,14,7.1,14.1c0,0.1,0,0.2-0.1,0.3c-0.1,0.1-0.3,0.1-0.5,0.1c-0.2,0-0.5,0-0.7-0.1
		c-0.3-0.1-0.5-0.2-0.7-0.3v1c0.1,0.1,0.3,0.1,0.5,0.2c0.2,0,0.4,0.1,0.6,0.1V16h1v-0.6c0.4-0.1,0.7-0.2,0.9-0.4
		c0.2-0.2,0.3-0.5,0.3-0.8c0-0.2,0-0.5-0.1-0.6C8.2,13.4,8.1,13.2,7.9,13.1z"/>
</g>
</svg>
