<?xml version="1.0" encoding="utf-8"?>
<!-- Generator: Adobe Illustrator 24.0.0, SVG Export Plug-In . SVG Version: 6.00 Build 0)  -->
<svg version="1.1" id="Layer_1" xmlns="http://www.w3.org/2000/svg" xmlns:xlink="http://www.w3.org/1999/xlink" x="0px" y="0px"
	 viewBox="0 0 20 20" style="enable-background:new 0 0 20 20;" xml:space="preserve">
<style type="text/css">
	.st0{fill:#04AFE3;}
</style>
<g>
	<path class="st0" d="M7.5,12.5H5.3c-0.1,0-0.2,0.1-0.2,0.2v4.2c0,0.1,0.1,0.2,0.2,0.2h2.2c0.1,0,0.2-0.1,0.2-0.2v-4.2
		C7.7,12.6,7.6,12.5,7.5,12.5z M7.3,16.7H5.5v-3.8h1.8V16.7z"/>
	<path class="st0" d="M11.5,10.8H9.3c-0.1,0-0.2,0.1-0.2,0.2v5.9c0,0.1,0.1,0.2,0.2,0.2h2.2c0.1,0,0.2-0.1,0.2-0.2V11
		C11.7,10.9,11.6,10.8,11.5,10.8z M11.3,16.7H9.5v-5.5h1.8V16.7z"/>
	<path class="st0" d="M15.5,7.6h-2.2c-0.1,0-0.2,0.1-0.2,0.2v9.1c0,0.1,0.1,0.2,0.2,0.2h2.2c0.1,0,0.2-0.1,0.2-0.2V7.9
		C15.7,7.7,15.6,7.6,15.5,7.6z M15.3,16.7h-1.8V8.1h1.8V16.7z"/>
	<path class="st0" d="M15.8,3.4c0-0.1-0.1-0.1-0.1-0.1l-3.1-0.4c-0.1,0-0.2,0-0.2,0.1s0,0.2,0,0.2L12.9,4L4.3,9.6
		c0,0-0.1,0.1-0.1,0.1c0,0.1,0,0.1,0,0.2l0.9,1.5c0,0.1,0.1,0.1,0.2,0.1c0,0,0.1,0,0.1,0L14,5.8l0.5,0.8c0,0.1,0.1,0.1,0.2,0.1
		c0.1,0,0.1-0.1,0.2-0.2l0.9-3C15.8,3.5,15.8,3.5,15.8,3.4z"/>
</g>
</svg>
