<?xml version="1.0" encoding="utf-8"?>
<!-- Generator: Adobe Illustrator 24.0.0, SVG Export Plug-In . SVG Version: 6.00 Build 0)  -->
<svg version="1.1" id="Layer_1" xmlns="http://www.w3.org/2000/svg" xmlns:xlink="http://www.w3.org/1999/xlink" x="0px" y="0px"
	 viewBox="0 0 20 20" style="enable-background:new 0 0 20 20;" xml:space="preserve">
<style type="text/css">
	.st0{fill:#04AFE3;}
</style>
<g>
	<path class="st0" d="M14.6,12.5c-0.5,0-0.9,0.1-1.3,0.4L12,11.7c0.4-0.5,0.6-1.1,0.6-1.7c0-0.7-0.2-1.3-0.6-1.8l0.7-0.7
		c0.1,0,0.1,0.1,0.2,0.1c0,0,0,0,0,0c0,0,0,0,0,0C13.3,7.8,13.7,8,14.2,8c0.4,0,0.9-0.1,1.2-0.4c0,0,0,0,0,0c0,0,0,0,0,0
		c0.6-0.4,1-1.1,1-1.9c0-1.2-1-2.2-2.2-2.2s-2.2,1-2.2,2.2c0,0.5,0.2,1,0.5,1.4l-0.7,0.7c-0.5-0.4-1.1-0.7-1.8-0.7
		c-0.6,0-1.2,0.2-1.7,0.6L7.1,6.7c0.3-0.4,0.5-0.9,0.5-1.5C7.7,4,6.7,3,5.4,3S3.2,4,3.2,5.2c0,0.8,0.4,1.5,1,1.9c0,0,0,0,0,0
		c0,0,0,0,0,0C4.5,7.3,5,7.5,5.4,7.5c0.4,0,0.9-0.1,1.2-0.4c0,0,0,0,0,0c0,0,0,0,0,0C6.7,7.1,6.8,7,6.8,7L8,8.1
		C7.5,8.5,7.2,9.2,7.2,9.9c0,0.8,0.3,1.5,0.9,2l-0.5,0.6c-0.4-0.3-0.9-0.5-1.4-0.5c-1.2,0-2.2,1-2.2,2.2c0,0.8,0.4,1.5,1,1.9
		c0,0,0,0,0,0c0,0,0,0,0,0c0.4,0.2,0.8,0.4,1.2,0.4c0.4,0,0.9-0.1,1.2-0.4c0,0,0,0,0,0c0,0,0,0,0,0c0.6-0.4,1-1.1,1-1.9
		c0-0.6-0.2-1.1-0.5-1.5l0.5-0.7c0.4,0.3,1,0.5,1.5,0.5c0.7,0,1.3-0.3,1.8-0.7l1.2,1.2c-0.4,0.4-0.6,1-0.6,1.6c0,0.8,0.4,1.5,1,1.9
		c0,0,0,0,0,0c0,0,0,0,0,0c0.4,0.2,0.8,0.4,1.2,0.4c0.4,0,0.9-0.1,1.2-0.4c0,0,0,0,0,0c0,0,0,0,0,0c0.6-0.4,1-1.1,1-1.9
		C16.8,13.5,15.8,12.5,14.6,12.5z M5.3,15.9C5.3,15.9,5.3,15.9,5.3,15.9C5.3,15.9,5.3,15.8,5.3,15.9c0-0.1,0-0.1,0-0.1c0,0,0,0,0,0
		c0,0,0,0,0,0c0,0,0,0,0,0c0,0,0,0,0,0c0,0,0,0,0,0c0,0,0,0,0-0.1c0,0,0,0,0,0c0,0,0,0,0.1-0.1c0,0,0,0,0,0c0,0,0,0,0,0c0,0,0,0,0,0
		c0,0,0,0,0,0c0,0,0,0,0,0c0,0,0,0,0,0c0,0,0,0,0,0c0,0,0,0,0,0c0,0,0,0,0,0c0,0,0,0,0,0c0,0,0,0,0,0c0,0,0,0,0,0c0,0,0,0,0,0
		c0,0,0,0,0,0c0,0,0,0,0,0c0,0,0,0,0.1,0c0,0,0,0,0,0c0,0,0.1,0,0.1,0s0.1,0,0.1,0c0,0,0,0,0,0c0,0,0,0,0.1,0c0,0,0,0,0,0
		c0,0,0,0,0,0c0,0,0,0,0,0c0,0,0,0,0,0c0,0,0,0,0,0c0,0,0,0,0,0c0,0,0,0,0,0c0,0,0,0,0,0c0,0,0,0,0,0c0,0,0,0,0,0c0,0,0,0,0,0
		c0,0,0,0,0,0c0,0,0,0,0,0c0,0,0,0,0,0c0,0,0,0,0,0c0,0,0,0,0.1,0.1c0,0,0,0,0,0c0,0,0,0,0,0.1c0,0,0,0,0,0c0,0,0,0,0,0c0,0,0,0,0,0
		c0,0,0,0,0,0c0,0,0,0,0,0c0,0,0,0,0,0c0,0,0,0,0,0c0,0,0,0,0,0c-0.3,0.2-0.6,0.2-0.9,0.2C5.9,16.1,5.6,16,5.3,15.9z M6.2,14.4
		c-0.3,0-0.6-0.3-0.6-0.6c0-0.3,0.3-0.6,0.6-0.6c0.3,0,0.6,0.3,0.6,0.6C6.8,14.1,6.5,14.4,6.2,14.4z M7.5,15.6
		C7.5,15.6,7.5,15.6,7.5,15.6C7.4,15.6,7.4,15.6,7.5,15.6c0-0.1,0-0.1-0.1-0.1c0,0,0,0,0,0c0,0,0,0,0-0.1c0,0,0,0,0,0c0,0,0,0,0-0.1
		c0,0,0,0,0,0c0,0,0-0.1-0.1-0.1c0,0,0,0,0,0c0,0,0,0-0.1-0.1c0,0,0,0,0,0c0,0,0,0-0.1,0c0,0,0,0,0,0c0,0,0,0-0.1,0c0,0,0,0,0,0
		c0,0-0.1,0-0.1,0c0,0,0,0,0,0c0,0-0.1,0-0.1,0c0,0,0,0,0,0c0,0-0.1,0-0.1,0c0,0,0,0,0,0c0,0,0,0-0.1,0c0,0,0,0,0,0
		c0.4-0.1,0.7-0.5,0.7-1c0-0.6-0.5-1-1-1s-1,0.5-1,1c0,0.5,0.3,0.9,0.7,1c0,0,0,0,0,0c0,0,0,0-0.1,0c0,0,0,0,0,0c0,0-0.1,0-0.1,0
		c0,0,0,0,0,0c0,0-0.1,0-0.1,0c0,0,0,0,0,0c0,0-0.1,0-0.1,0c0,0,0,0,0,0c0,0,0,0-0.1,0c0,0,0,0,0,0c0,0,0,0-0.1,0c0,0,0,0,0,0
		c0,0,0,0-0.1,0.1c0,0,0,0,0,0c0,0,0,0.1-0.1,0.1c0,0,0,0,0,0c0,0,0,0,0,0.1c0,0,0,0,0,0c0,0,0,0,0,0.1c0,0,0,0,0,0c0,0,0,0,0,0.1
		c0,0,0,0,0,0c0,0,0,0,0,0c-0.4-0.3-0.6-0.8-0.6-1.3c0-1,0.8-1.8,1.8-1.8S8,13.3,8,14.3C8,14.8,7.8,15.3,7.5,15.6z M13.3,7.3
		C13.3,7.3,13.3,7.3,13.3,7.3C13.3,7.3,13.3,7.3,13.3,7.3c0-0.1,0-0.1,0-0.1c0,0,0,0,0,0c0,0,0,0,0,0c0,0,0,0,0,0c0,0,0,0,0,0
		c0,0,0,0,0,0c0,0,0,0,0-0.1c0,0,0,0,0,0c0,0,0,0,0.1-0.1c0,0,0,0,0,0c0,0,0,0,0,0c0,0,0,0,0,0c0,0,0,0,0,0c0,0,0,0,0,0c0,0,0,0,0,0
		c0,0,0,0,0,0c0,0,0,0,0,0c0,0,0,0,0,0c0,0,0,0,0,0c0,0,0,0,0,0c0,0,0,0,0,0c0,0,0,0,0,0c0,0,0,0,0,0c0,0,0,0,0,0c0,0,0,0,0.1,0
		c0,0,0,0,0,0c0,0,0.1,0,0.1,0c0,0,0.1,0,0.1,0c0,0,0,0,0,0c0,0,0,0,0.1,0c0,0,0,0,0,0c0,0,0,0,0,0c0,0,0,0,0,0c0,0,0,0,0,0
		c0,0,0,0,0,0c0,0,0,0,0,0c0,0,0,0,0,0c0,0,0,0,0,0c0,0,0,0,0,0c0,0,0,0,0,0c0,0,0,0,0,0c0,0,0,0,0,0c0,0,0,0,0,0c0,0,0,0,0,0
		c0,0,0,0,0,0c0,0,0.1,0.1,0.1,0.1c0,0,0,0,0,0c0,0,0,0,0,0.1c0,0,0,0,0,0c0,0,0,0,0,0c0,0,0,0,0,0c0,0,0,0,0,0c0,0,0,0,0,0
		c0,0,0,0,0,0c-0.3,0.2-0.6,0.2-0.9,0.2C13.9,7.5,13.5,7.5,13.3,7.3z M13.6,5.2c0-0.3,0.3-0.6,0.6-0.6c0.3,0,0.6,0.3,0.6,0.6
		c0,0.3-0.3,0.6-0.6,0.6C13.8,5.8,13.6,5.6,13.6,5.2z M14.2,3.9c1,0,1.8,0.8,1.8,1.8c0,0.5-0.2,1-0.6,1.3c0,0,0,0,0,0c0,0,0,0,0,0
		c0,0,0,0,0-0.1c0,0,0,0,0,0c0,0,0,0,0-0.1c0,0,0,0,0,0c0,0,0,0,0-0.1c0,0,0,0,0,0c0,0,0-0.1-0.1-0.1c0,0,0,0,0,0c0,0,0,0-0.1-0.1
		c0,0,0,0,0,0c0,0,0,0-0.1,0c0,0,0,0,0,0c0,0,0,0-0.1,0c0,0,0,0,0,0c0,0-0.1,0-0.1,0c0,0,0,0,0,0c0,0-0.1,0-0.1,0c0,0,0,0,0,0
		c0,0-0.1,0-0.1,0c0,0,0,0,0,0c0,0,0,0-0.1,0c0,0,0,0,0,0c0.4-0.1,0.7-0.5,0.7-1c0-0.6-0.5-1-1-1c-0.6,0-1,0.5-1,1
		c0,0.5,0.3,0.9,0.7,1c0,0,0,0,0,0c0,0,0,0-0.1,0c0,0,0,0,0,0c0,0-0.1,0-0.1,0c0,0,0,0,0,0c0,0-0.1,0-0.1,0c0,0,0,0,0,0
		c0,0-0.1,0-0.1,0c0,0,0,0,0,0c0,0,0,0-0.1,0c0,0,0,0,0,0c0,0,0,0-0.1,0c0,0,0,0,0,0c0,0,0,0-0.1,0.1c0,0,0,0,0,0c0,0,0,0.1-0.1,0.1
		c0,0,0,0,0,0c0,0,0,0,0,0.1c0,0,0,0,0,0c0,0,0,0,0,0.1c0,0,0,0,0,0c0,0,0,0,0,0.1c0,0,0,0,0,0c0,0,0,0,0,0
		c-0.4-0.3-0.6-0.8-0.6-1.3C12.3,4.7,13.2,3.9,14.2,3.9z M3.6,5.2c0-1,0.8-1.8,1.8-1.8s1.8,0.8,1.8,1.8c0,0.5-0.2,1-0.6,1.3
		c0,0,0,0,0,0c0,0,0,0,0,0c0,0,0,0,0-0.1c0,0,0,0,0,0c0,0,0,0,0-0.1c0,0,0,0,0,0c0,0,0,0,0-0.1c0,0,0,0,0,0c0,0,0-0.1-0.1-0.1
		c0,0,0,0,0,0c0,0,0,0-0.1-0.1c0,0,0,0,0,0c0,0,0,0-0.1,0c0,0,0,0,0,0c0,0,0,0-0.1,0c0,0,0,0,0,0c0,0-0.1,0-0.1,0c0,0,0,0,0,0
		c0,0-0.1,0-0.1,0c0,0,0,0,0,0c0,0-0.1,0-0.1,0c0,0,0,0,0,0c0,0,0,0-0.1,0c0,0,0,0,0,0c0.4-0.1,0.7-0.5,0.7-1c0-0.6-0.5-1-1-1
		s-1,0.5-1,1c0,0.5,0.3,0.9,0.7,1c0,0,0,0,0,0c0,0,0,0-0.1,0c0,0,0,0,0,0c0,0-0.1,0-0.1,0c0,0,0,0,0,0c0,0-0.1,0-0.1,0c0,0,0,0,0,0
		c0,0-0.1,0-0.1,0c0,0,0,0,0,0c0,0,0,0-0.1,0c0,0,0,0,0,0c0,0,0,0-0.1,0c0,0,0,0,0,0c0,0,0,0-0.1,0.1c0,0,0,0,0,0c0,0,0,0.1-0.1,0.1
		c0,0,0,0,0,0c0,0,0,0,0,0.1c0,0,0,0,0,0c0,0,0,0,0,0.1c0,0,0,0,0,0c0,0,0,0,0,0.1c0,0,0,0,0,0c0,0,0,0,0,0C3.8,6.2,3.6,5.7,3.6,5.2
		z M4.8,4.7c0-0.3,0.3-0.6,0.6-0.6C5.7,4.2,6,4.4,6,4.7c0,0.3-0.3,0.6-0.6,0.6C5.1,5.3,4.8,5.1,4.8,4.7z M4.5,6.8
		C4.5,6.8,4.5,6.8,4.5,6.8C4.5,6.8,4.5,6.8,4.5,6.8c0-0.1,0-0.1,0-0.1c0,0,0,0,0,0c0,0,0,0,0,0c0,0,0,0,0,0c0,0,0,0,0,0c0,0,0,0,0,0
		c0,0,0,0,0-0.1c0,0,0,0,0,0c0,0,0,0,0.1-0.1c0,0,0,0,0,0c0,0,0,0,0,0c0,0,0,0,0,0c0,0,0,0,0,0c0,0,0,0,0,0c0,0,0,0,0,0c0,0,0,0,0,0
		c0,0,0,0,0,0c0,0,0,0,0,0c0,0,0,0,0,0c0,0,0,0,0,0c0,0,0,0,0,0c0,0,0,0,0,0c0,0,0,0,0,0c0,0,0,0,0,0c0,0,0,0,0.1,0c0,0,0,0,0,0
		c0,0,0.1,0,0.1,0c0,0,0.1,0,0.1,0c0,0,0,0,0,0c0,0,0,0,0.1,0c0,0,0,0,0,0c0,0,0,0,0,0c0,0,0,0,0,0c0,0,0,0,0,0c0,0,0,0,0,0
		c0,0,0,0,0,0c0,0,0,0,0,0c0,0,0,0,0,0c0,0,0,0,0,0c0,0,0,0,0,0c0,0,0,0,0,0c0,0,0,0,0,0c0,0,0,0,0,0c0,0,0,0,0,0c0,0,0,0,0,0
		c0,0,0.1,0.1,0.1,0.1c0,0,0,0,0,0c0,0,0,0,0,0.1c0,0,0,0,0,0c0,0,0,0,0,0c0,0,0,0,0,0c0,0,0,0,0,0c0,0,0,0,0,0c0,0,0,0,0,0
		C6,7,5.7,7.1,5.4,7.1C5.1,7.1,4.8,7,4.5,6.8z M7.7,9.9c0-1.3,1-2.3,2.3-2.3s2.3,1,2.3,2.3c0,1.3-1,2.3-2.3,2.3S7.7,11.2,7.7,9.9z
		 M13.7,16.4C13.7,16.4,13.7,16.4,13.7,16.4C13.7,16.3,13.7,16.3,13.7,16.4c0-0.1,0-0.1,0-0.1c0,0,0,0,0,0c0,0,0,0,0,0c0,0,0,0,0,0
		c0,0,0,0,0,0c0,0,0,0,0,0c0,0,0,0,0-0.1c0,0,0,0,0,0c0,0,0,0,0.1-0.1c0,0,0,0,0,0c0,0,0,0,0,0c0,0,0,0,0,0c0,0,0,0,0,0c0,0,0,0,0,0
		c0,0,0,0,0,0c0,0,0,0,0,0c0,0,0,0,0,0c0,0,0,0,0,0c0,0,0,0,0,0c0,0,0,0,0,0c0,0,0,0,0,0c0,0,0,0,0,0c0,0,0,0,0,0c0,0,0,0,0,0
		c0,0,0,0,0.1,0c0,0,0,0,0,0c0,0,0.1,0,0.1,0s0.1,0,0.1,0c0,0,0,0,0,0c0,0,0,0,0.1,0c0,0,0,0,0,0c0,0,0,0,0,0c0,0,0,0,0,0
		c0,0,0,0,0,0c0,0,0,0,0,0c0,0,0,0,0,0c0,0,0,0,0,0c0,0,0,0,0,0c0,0,0,0,0,0c0,0,0,0,0,0c0,0,0,0,0,0c0,0,0,0,0,0c0,0,0,0,0,0
		c0,0,0,0,0,0c0,0,0,0,0,0c0,0,0,0,0.1,0.1c0,0,0,0,0,0c0,0,0,0,0,0.1c0,0,0,0,0,0c0,0,0,0,0,0c0,0,0,0,0,0c0,0,0,0,0,0c0,0,0,0,0,0
		c0,0,0,0,0,0c0,0,0,0,0,0c0,0,0,0,0,0c-0.3,0.2-0.6,0.2-0.9,0.2S14,16.5,13.7,16.4z M14,14.3c0-0.3,0.3-0.6,0.6-0.6
		c0.3,0,0.6,0.3,0.6,0.6c0,0.3-0.3,0.6-0.6,0.6C14.3,14.9,14,14.6,14,14.3z M15.8,16.1C15.8,16.1,15.8,16.1,15.8,16.1
		C15.8,16.1,15.8,16.1,15.8,16.1c0-0.1,0-0.1-0.1-0.1c0,0,0,0,0,0c0,0,0,0,0-0.1c0,0,0,0,0,0c0,0,0,0,0-0.1c0,0,0,0,0,0
		c0,0,0-0.1-0.1-0.1c0,0,0,0,0,0c0,0,0,0-0.1-0.1c0,0,0,0,0,0c0,0,0,0-0.1,0c0,0,0,0,0,0c0,0,0,0-0.1,0c0,0,0,0,0,0c0,0-0.1,0-0.1,0
		c0,0,0,0,0,0c0,0-0.1,0-0.1,0c0,0,0,0,0,0c0,0-0.1,0-0.1,0c0,0,0,0,0,0c0,0,0,0-0.1,0c0,0,0,0,0,0c0.4-0.1,0.7-0.5,0.7-1
		c0-0.6-0.5-1-1-1c-0.6,0-1,0.5-1,1c0,0.5,0.3,0.9,0.7,1c0,0,0,0,0,0c0,0,0,0-0.1,0c0,0,0,0,0,0c0,0-0.1,0-0.1,0c0,0,0,0,0,0
		c0,0-0.1,0-0.1,0c0,0,0,0,0,0c0,0-0.1,0-0.1,0c0,0,0,0,0,0c0,0,0,0-0.1,0c0,0,0,0,0,0c0,0,0,0-0.1,0c0,0,0,0,0,0c0,0,0,0-0.1,0.1
		c0,0,0,0,0,0c0,0,0,0.1-0.1,0.1c0,0,0,0,0,0c0,0,0,0,0,0.1c0,0,0,0,0,0c0,0,0,0,0,0.1c0,0,0,0,0,0c0,0,0,0,0,0.1c0,0,0,0,0,0
		c0,0,0,0,0,0c-0.4-0.3-0.6-0.8-0.6-1.3c0-1,0.8-1.8,1.8-1.8s1.8,0.8,1.8,1.8C16.4,15.3,16.2,15.8,15.8,16.1z"/>
	<path class="st0" d="M11.8,10V9.8c0-0.1-0.1-0.2-0.2-0.2h-0.1c-0.1,0-0.2-0.1-0.2-0.1c0,0,0-0.1,0-0.1c0-0.1,0-0.2,0-0.2l0,0
		c0.1-0.1,0.1-0.2,0-0.3l-0.2-0.2c-0.1-0.1-0.2-0.1-0.3,0l0,0c-0.1,0.1-0.2,0.1-0.2,0c0,0-0.1,0-0.1,0c-0.1,0-0.1-0.1-0.1-0.2V8.3
		c0-0.1-0.1-0.2-0.2-0.2H9.8c-0.1,0-0.2,0.1-0.2,0.2v0c0,0.1-0.1,0.2-0.1,0.2c0,0-0.1,0-0.1,0c-0.1,0-0.2,0-0.2,0l0,0
		C9,8.4,8.9,8.4,8.8,8.5L8.6,8.7C8.5,8.8,8.5,8.9,8.6,9l0,0c0.1,0.1,0.1,0.2,0,0.2c0,0,0,0.1-0.1,0.1c0,0.1-0.1,0.1-0.2,0.1h0
		c-0.1,0-0.2,0.1-0.2,0.2V10c0,0.1,0.1,0.2,0.2,0.2h0c0.1,0,0.2,0.1,0.2,0.1c0,0,0,0.1,0.1,0.1c0,0.1,0,0.2,0,0.2l0,0
		c-0.1,0.1-0.1,0.2,0,0.3l0.2,0.2c0.1,0.1,0.2,0.1,0.3,0l0,0c0.1-0.1,0.2-0.1,0.2,0c0,0,0.1,0,0.1,0.1c0.1,0,0.1,0.1,0.1,0.2v0
		c0,0.1,0.1,0.2,0.2,0.2h0.3c0.1,0,0.2-0.1,0.2-0.2v0c0-0.1,0.1-0.2,0.1-0.2c0,0,0.1,0,0.1-0.1c0.1,0,0.2,0,0.2,0l0,0
		c0.1,0.1,0.2,0.1,0.3,0l0.2-0.2c0.1-0.1,0.1-0.2,0-0.3l0,0c-0.1-0.1-0.1-0.2,0-0.2c0,0,0-0.1,0-0.1c0-0.1,0.1-0.1,0.2-0.1h0
		C11.7,10.3,11.8,10.2,11.8,10z M10.8,10.2C10.8,10.2,10.8,10.3,10.8,10.2c-0.1,0.2-0.3,0.4-0.5,0.5c0,0,0,0,0,0
		c-0.1,0-0.2,0.1-0.3,0.1c-0.1,0-0.2,0-0.3-0.1c0,0,0,0,0,0c-0.2-0.1-0.4-0.3-0.5-0.5c0,0,0,0,0,0c0-0.1-0.1-0.2-0.1-0.3
		c0-0.1,0-0.2,0.1-0.3c0,0,0,0,0,0c0.1-0.2,0.3-0.4,0.5-0.5c0,0,0,0,0,0C9.7,9,9.9,9,10,9c0.1,0,0.2,0,0.3,0.1c0,0,0,0,0,0
		c0.2,0.1,0.4,0.3,0.5,0.5c0,0,0,0,0,0c0,0.1,0.1,0.2,0.1,0.3C10.9,10,10.8,10.1,10.8,10.2z"/>
</g>
</svg>
