<?xml version="1.0" encoding="utf-8"?>
<!-- Generator: Adobe Illustrator 24.0.0, SVG Export Plug-In . SVG Version: 6.00 Build 0)  -->
<svg version="1.1" id="Layer_1" xmlns="http://www.w3.org/2000/svg" xmlns:xlink="http://www.w3.org/1999/xlink" x="0px" y="0px"
	 viewBox="0 0 20 20" style="enable-background:new 0 0 20 20;" xml:space="preserve">
<style type="text/css">
	.st0{fill:#04AFE3;}
</style>
<g>
	<path class="st0" d="M6.6,9.5c1.4,0,2.6-1.1,2.6-2.6V5.1c0-1.4-1.1-2.6-2.6-2.6c-1.4,0-2.6,1.1-2.6,2.6v1.9
		C4.1,8.3,5.2,9.5,6.6,9.5z M6.6,2.9c1.2,0,2.1,1,2.1,2.1v0.5c-0.7,0-1-0.9-1-1c0-0.1-0.1-0.1-0.2-0.2c-0.1,0-0.2,0-0.2,0.1
		c-0.7,0.9-2.3,1-2.9,1V5.1C4.5,3.9,5.5,2.9,6.6,2.9z M4.5,5.9c0.6,0,2.1-0.1,3-0.9C7.7,5.5,8.1,5.9,8.8,6v1c0,1.2-1,2.1-2.1,2.1
		c-1.2,0-2.1-1-2.1-2.1V5.9z"/>
	<path class="st0" d="M13.4,8.7c-1.5,0-2.8,0.7-3.6,1.9c-0.4-0.3-1-0.5-1.6-0.5c-0.1,0-0.2,0.1-0.2,0.2l-0.6,2.2L7,11l0.2-0.8
		c0-0.1,0-0.1,0-0.2C7.2,10,7.1,10,7,10H6.2C6.1,10,6.1,10,6,10c0,0.1-0.1,0.1,0,0.2L6.2,11l-0.3,1.4l-0.6-2.2
		c0-0.1-0.1-0.2-0.2-0.2c-1.8,0.1-2.9,1.4-2.9,3.3v3c0,0.1,0.1,0.2,0.2,0.2h8.1c0.8,0.6,1.7,1,2.8,1c2.4,0,4.4-2,4.4-4.4
		S15.8,8.7,13.4,8.7z M13.4,17.1c-0.9,0-1.7-0.3-2.3-0.7c-1-0.7-1.7-1.9-1.7-3.2c0-0.8,0.3-1.6,0.7-2.3c0.7-1,1.9-1.7,3.3-1.7
		c2.2,0,4,1.8,4,4S15.6,17.1,13.4,17.1z"/>
	<path class="st0" d="M14.6,13.1c-0.2-0.1-0.4-0.2-0.7-0.4c-0.2-0.1-0.4-0.2-0.5-0.2c-0.1-0.1-0.2-0.1-0.2-0.2
		C13,12.3,13,12.2,13,12.1c0-0.1,0.1-0.2,0.2-0.3c0.1-0.1,0.3-0.1,0.5-0.1c0.4,0,0.8,0.1,1.2,0.3v-1c-0.3-0.1-0.6-0.2-0.9-0.3v-0.6
		h-1v0.6c-0.3,0.1-0.6,0.2-0.8,0.5c-0.2,0.2-0.3,0.5-0.3,0.8c0,0.3,0.1,0.6,0.3,0.8c0.2,0.2,0.5,0.4,0.9,0.6
		c0.2,0.1,0.4,0.2,0.5,0.2c0.1,0.1,0.2,0.1,0.2,0.2c0.1,0.1,0.1,0.1,0.1,0.2c0,0.1,0,0.2-0.1,0.3c-0.1,0.1-0.3,0.1-0.5,0.1
		c-0.2,0-0.5,0-0.7-0.1c-0.3-0.1-0.5-0.2-0.7-0.3v1c0.1,0.1,0.3,0.1,0.5,0.2c0.2,0,0.4,0.1,0.6,0.1V16h1v-0.6
		c0.4-0.1,0.7-0.2,0.9-0.4c0.2-0.2,0.3-0.5,0.3-0.8c0-0.2,0-0.5-0.1-0.6C14.9,13.4,14.7,13.2,14.6,13.1z"/>
</g>
</svg>
