<?xml version="1.0" encoding="utf-8"?>
<!-- Generator: Adobe Illustrator 24.0.0, SVG Export Plug-In . SVG Version: 6.00 Build 0)  -->
<svg version="1.1" id="Layer_1" xmlns="http://www.w3.org/2000/svg" xmlns:xlink="http://www.w3.org/1999/xlink" x="0px" y="0px"
	 viewBox="0 0 20 20" style="enable-background:new 0 0 20 20;" xml:space="preserve">
<style type="text/css">
	.st0{fill:#04AFE3;}
	<!-- .st0{fill:#6A6A6C;} -->
</style>
<g>
	<path class="st0" d="M15.4,2.7H8.3c0,0,0,0,0,0c0,0,0,0,0,0c0,0,0,0,0,0c0,0,0,0,0,0c0,0,0,0,0,0c0,0,0,0,0,0c0,0,0,0,0,0
		c0,0,0,0,0,0c0,0,0,0,0,0c0,0,0,0,0,0L4.4,7.1c0,0,0,0,0,0c0,0,0,0,0,0c0,0,0,0,0,0c0,0,0,0,0,0.1c0,0,0,0,0,0c0,0,0,0,0,0v9.9
		c0,0.1,0.1,0.2,0.2,0.2h10.8c0.1,0,0.2-0.1,0.2-0.2V2.9C15.6,2.8,15.5,2.7,15.4,2.7z M8.1,3.5V7H5L8.1,3.5z M15.2,16.9H4.8V7.4h3.5
		c0.1,0,0.2-0.1,0.2-0.2V3.1h6.7V16.9z"/>
	<path class="st0" d="M6.5,13.1h-1c-0.1,0-0.2,0.1-0.2,0.2v2.2c0,0.1,0.1,0.2,0.2,0.2h1c0.1,0,0.2-0.1,0.2-0.2v-2.2
		C6.7,13.1,6.6,13.1,6.5,13.1z M6.3,15.2H5.8v-1.8h0.6V15.2z"/>
	<path class="st0" d="M8.4,12.1h-1c-0.1,0-0.2,0.1-0.2,0.2v3.1c0,0.1,0.1,0.2,0.2,0.2h1c0.1,0,0.2-0.1,0.2-0.2v-3.1
		C8.6,12.2,8.5,12.1,8.4,12.1z M8.1,15.2H7.6v-2.7h0.6V15.2z"/>
	<path class="st0" d="M9.2,15.7h1c0.1,0,0.2-0.1,0.2-0.2v-4.8c0-0.1-0.1-0.2-0.2-0.2h-1c-0.1,0-0.2,0.1-0.2,0.2v4.8
		C9,15.6,9.1,15.7,9.2,15.7z M9.4,10.9H10v4.3H9.4V10.9z"/>
	<path class="st0" d="M9.8,9l0.2,0.1c0,0,0,0,0,0l0.2,0.1l0,0c0.5,0.4,1.1,0.6,1.7,0.6c1.5,0,2.8-1.2,2.8-2.8c0-1.5-1.1-2.7-2.6-2.8
		v0h-0.2h-0.2v0C10.1,4.4,9,5.6,9,7C9,7.8,9.3,8.5,9.8,9L9.8,9z M14.1,7c0,1.3-1.1,2.4-2.4,2.4c-0.5,0-1-0.2-1.4-0.5L12,7.2V4.7
		C13.2,4.8,14.1,5.8,14.1,7z"/>
	<path class="st0" d="M14.1,14.8h-2.4c-0.1,0-0.2,0.1-0.2,0.2s0.1,0.2,0.2,0.2h2.4c0.1,0,0.2-0.1,0.2-0.2S14.2,14.8,14.1,14.8z"/>
	<path class="st0" d="M14.1,13.6h-2.4c-0.1,0-0.2,0.1-0.2,0.2s0.1,0.2,0.2,0.2h2.4c0.1,0,0.2-0.1,0.2-0.2S14.2,13.6,14.1,13.6z"/>
	<path class="st0" d="M14.1,12.4h-2.4c-0.1,0-0.2,0.1-0.2,0.2s0.1,0.2,0.2,0.2h2.4c0.1,0,0.2-0.1,0.2-0.2S14.2,12.4,14.1,12.4z"/>
	<path class="st0" d="M14.1,11.2h-2.4c-0.1,0-0.2,0.1-0.2,0.2c0,0.1,0.1,0.2,0.2,0.2h2.4c0.1,0,0.2-0.1,0.2-0.2
		C14.3,11.3,14.2,11.2,14.1,11.2z"/>
</g>
</svg>
