<?xml version="1.0" standalone="no"?>
<!DOCTYPE svg PUBLIC "-//W3C//DTD SVG 20010904//EN"
 "http://www.w3.org/TR/2001/REC-SVG-20010904/DTD/svg10.dtd">
<svg version="1.0" xmlns="http://www.w3.org/2000/svg"
 width="100.000000pt" height="100.000000pt" viewBox="0 0 100.000000 100.000000"
 preserveAspectRatio="xMidYMid meet">

<g transform="translate(0.000000,100.000000) scale(0.100000,-0.100000)"
fill="#04AFE3" stroke="none">
<path d="M771 856 l-94 -95 -40 34 c-43 37 -90 51 -129 40 -12 -4 -49 -32 -80
-63 -57 -55 -58 -55 -78 -37 -16 14 -23 16 -32 7 -10 -10 34 -59 197 -222 115
-116 215 -210 222 -210 18 0 16 20 -4 42 -16 18 -14 21 40 76 42 42 59 68 63
94 7 41 -14 93 -52 129 l-25 23 98 98 c77 77 95 100 85 110 -10 10 -33 -8
-110 -85 -93 -92 -98 -96 -115 -80 -16 17 -12 22 79 114 84 84 106 119 76 119
-4 0 -50 -42 -101 -94z m-89 -163 c60 -59 111 -118 115 -131 8 -33 -12 -73
-63 -123 l-44 -44 -148 148 -147 148 58 55 c86 81 95 79 229 -53z"/>
<path d="M255 679 c-4 -5 1 -19 11 -30 17 -19 16 -21 -39 -77 -42 -42 -59 -68
-63 -94 -7 -41 14 -93 52 -129 l25 -23 -96 -96 c-78 -78 -94 -99 -83 -108 11
-9 34 8 108 83 89 90 95 94 112 78 18 -16 15 -21 -77 -113 -78 -78 -94 -99
-83 -108 11 -9 33 8 108 83 l93 94 40 -34 c43 -37 90 -51 129 -40 12 4 49 32
80 63 55 53 58 55 76 39 22 -20 42 -22 42 -4 0 12 -409 427 -422 427 -4 0 -10
-5 -13 -11z m205 -224 l144 -145 -39 -41 c-45 -46 -84 -69 -116 -69 -26 0
-237 203 -245 237 -3 12 -3 32 1 44 7 22 92 119 104 119 3 0 71 -65 151 -145z"/>
</g>
</svg>
