<?xml version="1.0" encoding="UTF-8" standalone="no"?><!DOCTYPE svg PUBLIC "-//W3C//DTD SVG 1.1//EN" "http://www.w3.org/Graphics/SVG/1.1/DTD/svg11.dtd"><svg width="100%" height="100%" viewBox="0 0 508 508" version="1.1" xmlns="http://www.w3.org/2000/svg" xmlns:xlink="http://www.w3.org/1999/xlink" xml:space="preserve" xmlns:serif="http://www.serif.com/" style="fill-rule:evenodd;clip-rule:evenodd;stroke-linejoin:round;stroke-miterlimit:2;"><path d="M490.9,179.388l-343.8,-108.6c-2.4,-0.8 -21.6,-7.1 -30.8,16l-28.3,89.5l-63.4,0c-13.6,0.1 -24.6,11.1 -24.6,24.6l-0,213.1c-0,13.6 11,24.6 24.6,24.6l360.6,0c8.6,0 16.1,-4.4 20.5,-11.1c0,0 11.1,3.1 13.6,3.1c10.8,0 20.2,-6.9 23.4,-17.2l64.2,-203.2c2,-6.2 3.4,-25.6 -16,-30.8Zm-97.5,234.6l-0.1,0c-0,4.5 -3.7,8.2 -8.2,8.2l-360.5,0c-4.5,0 -8.2,-3.7 -8.2,-8.2l-0,-213.1c-0,-4.5 3.7,-8.2 8.2,-8.2l360.6,0c4.5,0 8.2,3.7 8.2,8.2l0,213.1Zm33.7,-5.5c-1.3,4.2 -6.1,6.7 -10.3,5.3l-7.1,-2.2l0,-146.1l56.9,18l-39.5,125Zm-328.7,-35.5l-49.2,-0l0,16.4l49.2,-0l0,-16.4Zm81.9,-0l-49.2,-0l0,16.4l49.2,-0l0,-16.4Zm82,-0l-49.2,-0l0,16.4l49.2,-0l0,-16.4Zm81.9,-49.1l-295,-0l0,16.4l295,-0l0,-16.4Zm-172.1,-49.2l-122.9,-0l0,16.4l122.9,-0l0,-16.4Zm163.9,-57.4c-6,-0 -11.5,1.7 -16.3,4.5c-5,-2.9 -10.6,-4.5 -16.5,-4.5c-18.1,-0 -32.8,14.7 -32.8,32.8c0,18.1 14.7,32.8 32.8,32.8c5.9,0 11.5,-1.6 16.5,-4.5c4.8,2.8 10.3,4.5 16.3,4.5c18.1,0 32.8,-14.7 32.8,-32.8c0,-18.1 -14.7,-32.8 -32.8,-32.8Zm135.5,50.5l-61.8,-19.5l0,-34.4l71.7,22.6l-9.9,31.3Zm-164.1,-1.9c-1.4,0.4 -2.8,0.6 -4.2,0.6c-9,-0 -16.4,-7.4 -16.4,-16.4c0,-9 7.4,-16.4 16.4,-16.4c1.4,-0 2.9,0.3 4.2,0.6c-2.6,4.7 -4.2,10 -4.2,15.8c0,5.8 1.6,11.1 4.2,15.8Zm28.6,0.6c-9,-0 -16.4,-7.4 -16.4,-16.4c0,-9 7.4,-16.4 16.4,-16.4c9,-0 16.4,7.4 16.4,16.4c0,9 -7.4,16.4 -16.4,16.4Zm-204.9,-41l-81.9,-0l0,16.4l81.9,-0l0,-16.4Zm360.2,-20.2l-4.9,15.6l-77.1,-24.3c-2.1,-11.5 -12.1,-20.2 -24.1,-20.2l-39.9,-0l-218.4,-69l4.9,-15.6c1.3,-4.2 6,-6.7 10.3,-5.3l343.8,108.5c6.9,1.8 6,8.2 5.4,10.3Zm-384.1,-35.4l20.5,6.5l-22.5,-0l2,-6.5Zm14.8,-46.9l168.9,53.3l-108.9,-0l-69.9,-22.1l9.9,-31.2Z"/></svg>