<svg width="27" height="35" viewBox="0 0 27 35" xmlns="http://www.w3.org/2000/svg">
<path d="M26.2 0.600098H9.70001C9.70001 0.600098 9.70001 0.600098 9.60001 0.600098H9.50001C9.50001 0.600098 9.50001 0.600098 9.40001 0.600098L0.800011 10.5001C0.800011 10.5001 0.800012 10.6001 0.700012 10.6001V10.7001C0.700012 10.7001 0.700012 10.7001 0.700012 10.8001V33.6001C0.700012 33.9001 0.900012 34.1001 1.20001 34.1001H26.3C26.6 34.1001 26.8 33.9001 26.8 33.6001V1.1001C26.7 0.800098 26.4 0.600098 26.2 0.600098ZM9.20001 2.4001V10.5001H2.10001L9.20001 2.4001ZM25.7 33.3001H1.50001V11.5001H9.60001C9.90001 11.5001 10.1 11.3001 10.1 11.0001V1.6001H25.6V33.3001H25.7Z" fill="#04AFE3"/>
<path d="M12 27.3C11.3 27.2 10.6 27.1 10 27C9.40002 26.9 8.90002 26.7 8.40002 26.4V23.2C9.10002 23.6 9.90002 23.9 10.7 24C11.5 24.2 12.2 24.3 12.9 24.3C13.5 24.3 14 24.2 14.3 24C14.6 23.8 14.8 23.5 14.8 23.1C14.8 22.8 14.7 22.6 14.6 22.4C14.4 22.2 14.2 22 13.9 21.9C13.6 21.7 13 21.5 12.3 21.2C11 20.7 10.1 20 9.50002 19.4C8.90002 18.7 8.60002 17.9 8.60002 16.9C8.60002 15.9 8.90002 15.1 9.50002 14.4C10.1 13.7 11 13.2 12 13V11H15.2V12.8C16.2 12.9 17.1 13.2 18 13.6V16.7C16.8 16.1 15.6 15.8 14.4 15.8C13.8 15.8 13.3 15.9 13 16.1C12.7 16.3 12.5 16.6 12.5 17C12.5 17.3 12.6 17.5 12.8 17.7C13 17.9 13.2 18.1 13.6 18.2C13.9 18.4 14.5 18.6 15.2 18.9C16.2 19.3 16.9 19.7 17.4 20.1C17.9 20.5 18.3 20.9 18.6 21.4C18.8 21.9 19 22.5 19 23.3C19 24.3 18.7 25.2 18.1 25.9C17.5 26.6 16.6 27 15.4 27.3V29.2H12V27.3Z" fill="#04AFE3"/>
</svg>
