<svg width="27" height="35" viewBox="0 0 27 35" fill="none" xmlns="http://www.w3.org/2000/svg">
<path d="M26.2 0.899902H9.70001C9.70001 0.899902 9.70002 0.899902 9.60002 0.899902H9.50002C9.50002 0.899902 9.50001 0.899902 9.40001 0.899902L0.800018 10.7999C0.800018 10.7999 0.800012 10.8999 0.700012 10.8999V10.9999C0.700012 10.9999 0.700012 10.9999 0.700012 11.0999V33.8999C0.700012 34.1999 0.900012 34.3999 1.20001 34.3999H26.3C26.6 34.3999 26.8 34.1999 26.8 33.8999V1.1999C26.7 1.0999 26.5 0.899902 26.2 0.899902ZM9.30002 2.6999V10.7999H2.20001L9.30002 2.6999ZM25.8 33.5999H1.70001V11.6999H9.80002C10.1 11.6999 10.3 11.4999 10.3 11.1999V1.7999H25.8V33.5999Z" fill="#04AFE3"/>
<path d="M5.70001 24.7998H3.40001C3.10001 24.7998 2.90001 24.9998 2.90001 25.2998V30.3998C2.90001 30.6998 3.10001 30.8998 3.40001 30.8998H5.70001C6.00001 30.8998 6.20001 30.6998 6.20001 30.3998V25.2998C6.10001 24.9998 5.90001 24.7998 5.70001 24.7998ZM5.20001 29.8998H3.90001V25.7998H5.20001V29.8998Z" fill="#04AFE3"/>
<path d="M9.90001 22.7H7.60002C7.30002 22.7 7.10002 22.9 7.10002 23.2V30.3999C7.10002 30.6999 7.30002 30.8999 7.60002 30.8999H9.90001C10.2 30.8999 10.4 30.6999 10.4 30.3999V23.2C10.4 22.9 10.2 22.7 9.90001 22.7ZM9.40001 29.8999H8.10002V23.7H9.40001V29.8999Z" fill="#04AFE3"/>
<path d="M11.8 30.7998H14.1C14.4 30.7998 14.6 30.5998 14.6 30.2998V19.2998C14.6 18.9998 14.4 18.7998 14.1 18.7998H11.8C11.5 18.7998 11.3 18.9998 11.3 19.2998V30.2998C11.3 30.5998 11.6 30.7998 11.8 30.7998ZM12.3 19.7998H13.6V29.7998H12.3V19.7998Z" fill="#04AFE3"/>
<path d="M13.1 15.4L13.5 15.7L13.9 16C15 16.9 16.4 17.3 17.8 17.3C21.4 17.3 24.2 14.4 24.2 10.9C24.2 7.49999 21.6 4.7 18.2 4.5H17.7H17.2C13.9 4.8 11.2 7.49999 11.2 10.9C11.3 12.5 12 14.1 13.1 15.4ZM23.3 10.9C23.3 13.9 20.8 16.4 17.8 16.4C16.6 16.4 15.5 16 14.5 15.3L18.3 11.2V5.5C21.1 5.7 23.3 7.99999 23.3 10.9Z" fill="#04AFE3"/>
<path d="M23.2 28.8999H17.6C17.3 28.8999 17.1 29.0999 17.1 29.3999C17.1 29.6999 17.3 29.8999 17.6 29.8999H23.2C23.5 29.8999 23.7 29.6999 23.7 29.3999C23.7 29.0999 23.5 28.8999 23.2 28.8999Z" fill="#04AFE3"/>
<path d="M23.2 26.0999H17.6C17.3 26.0999 17.1 26.2999 17.1 26.5999C17.1 26.8999 17.3 27.0999 17.6 27.0999H23.2C23.5 27.0999 23.7 26.8999 23.7 26.5999C23.7 26.2999 23.5 26.0999 23.2 26.0999Z" fill="#04AFE3"/>
<path d="M23.2 23.2998H17.6C17.3 23.2998 17.1 23.4998 17.1 23.7998C17.1 24.0998 17.3 24.2998 17.6 24.2998H23.2C23.5 24.2998 23.7 24.0998 23.7 23.7998C23.7 23.4998 23.5 23.2998 23.2 23.2998Z" fill="#04AFE3"/>
<path d="M23.2 20.3999H17.6C17.3 20.3999 17.1 20.5999 17.1 20.8999C17.1 21.1999 17.3 21.3999 17.6 21.3999H23.2C23.5 21.3999 23.7 21.1999 23.7 20.8999C23.7 20.5999 23.5 20.3999 23.2 20.3999Z" fill="#04AFE3"/>
</svg>
