<svg width="27" height="35" viewBox="0 0 27 35" fill="none" xmlns="http://www.w3.org/2000/svg">
<path d="M25.9 0.600098H9.40002C9.40002 0.600098 9.40003 0.600098 9.30003 0.600098H9.20003C9.20003 0.600098 9.20004 0.600098 9.10004 0.600098L0.500031 10.5001C0.500031 10.5001 0.500024 10.6001 0.400024 10.6001V10.7001C0.400024 10.7001 0.400024 10.7001 0.400024 10.8001V33.6001C0.400024 33.9001 0.600024 34.1001 0.900024 34.1001H26C26.3 34.1001 26.5 33.9001 26.5 33.6001V1.1001C26.3 0.800098 26.1 0.600098 25.9 0.600098ZM8.90002 2.4001V10.5001H1.80003L8.90002 2.4001ZM25.4 33.3001H1.30003V11.5001H9.40002C9.70002 11.5001 9.90002 11.3001 9.90002 11.0001V1.6001H25.4V33.3001Z" fill="#04AFE3"/>
<path d="M15.6 16.2002L18.4 13.4002C16.3 12.7002 13.8 13.4002 12.3 15.5002C11.1 17.2002 11.1 19.6002 12.2 21.4002C14.1 24.4002 18.2 24.7002 20.5 22.3002C22 20.8002 22.4 18.7002 21.8 16.9002L19 19.7002C18.7 20.0002 18.2 20.0002 17.9 19.7002L15.5 17.3002C15.3 16.9002 15.3 16.5002 15.6 16.2002Z" fill="#04AFE3"/>
<path d="M16 21.9002L9.50002 28.4002C9.20002 28.7002 8.70002 28.7002 8.40002 28.4002L6.80003 26.8002C6.50003 26.5002 6.50003 26.0002 6.80003 25.7002L13.3 19.2002L16 21.9002Z" fill="#04AFE3"/>
</svg>
