<svg width="30" height="33" viewBox="0 0 30 33" fill="none" xmlns="http://www.w3.org/2000/svg">
<path d="M14.6 32.9999C14.5 32.9999 14.4 32.9999 14.4 32.8999L0.399994 24.8999C0.299994 24.7999 0.200012 24.6999 0.200012 24.4999V8.4999C0.200012 8.2999 0.299994 8.1999 0.399994 8.0999C0.499994 7.9999 0.699994 7.9999 0.899994 8.0999L14.9 16.0999C15 16.1999 15.1 16.2999 15.1 16.4999V32.4999C15.1 32.6999 15 32.7999 14.9 32.8999C14.8 32.9999 14.7 32.9999 14.6 32.9999ZM1.10001 24.1999L14.2 31.6999V16.7999L1.10001 9.2999V24.1999Z" fill="#04AFE3"/>
<path d="M14.6 32.9999C14.5 32.9999 14.4 32.9999 14.4 32.8999C14.3 32.7999 14.2 32.6999 14.2 32.4999V16.4999C14.2 16.2999 14.3 16.1999 14.4 16.0999L28.4 8.0999C28.5 7.9999 28.7 7.9999 28.9 8.0999C29 8.1999 29.1 8.2999 29.1 8.4999V24.4999C29.1 24.6999 29 24.7999 28.9 24.8999L14.9 32.8999C14.8 32.9999 14.7 32.9999 14.6 32.9999ZM15.1 16.7999V31.6999L28.2 24.1999V9.2999L15.1 16.7999Z" fill="#04AFE3"/>
<path d="M14.6 16.9999C14.5 16.9999 14.4 16.9999 14.4 16.8999L0.399994 8.8999C0.299994 8.7999 0.200012 8.6999 0.200012 8.4999C0.200012 8.2999 0.299994 8.1999 0.399994 8.0999L14.4 0.0999023C14.5 -9.76548e-05 14.7 -9.76548e-05 14.9 0.0999023L28.9 8.0999C29 8.1999 29.1 8.2999 29.1 8.4999C29.1 8.6999 29 8.7999 28.9 8.8999L14.9 16.8999C14.8 16.9999 14.7 16.9999 14.6 16.9999ZM1.60001 8.4999L14.7 15.9999L27.8 8.4999L14.6 0.999902L1.60001 8.4999Z" fill="#04AFE3"/>
<path d="M7.10001 5.19995L21.1 13.0999V20.2999L23.9 18.7V11.2L9.89999 3.19995" fill="#04AFE3"/>
<path d="M21.1 20.7999C21 20.7999 20.9 20.7999 20.9 20.6999C20.8 20.5999 20.7 20.4999 20.7 20.2999V13.3999L6.89998 5.59987C6.69998 5.49987 6.6 5.19987 6.7 4.89987C6.8 4.69987 7.09998 4.59988 7.39998 4.69988L21.4 12.6999C21.5 12.7999 21.6 12.8999 21.6 13.0999V19.3999L23.4 18.2999V11.3999L9.59999 3.59987C9.39999 3.49987 9.29998 3.19987 9.39998 2.89987C9.49998 2.69987 9.79999 2.59988 10.1 2.69988L24.1 10.6999C24.2 10.7999 24.3 10.8999 24.3 11.0999V18.5999C24.3 18.7999 24.2 18.8999 24.1 18.9999L21.3 20.5999C21.3 20.7999 21.2 20.7999 21.1 20.7999Z" fill="#04AFE3"/>
</svg>
