<?xml version="1.0" encoding="UTF-8" standalone="no"?><!DOCTYPE svg PUBLIC "-//W3C//DTD SVG 1.1//EN" "http://www.w3.org/Graphics/SVG/1.1/DTD/svg11.dtd"><svg width="100%" height="100%" viewBox="0 0 512 512" version="1.1" xmlns="http://www.w3.org/2000/svg" xmlns:xlink="http://www.w3.org/1999/xlink" xml:space="preserve" xmlns:serif="http://www.serif.com/" style="fill-rule:evenodd;clip-rule:evenodd;stroke-linejoin:round;stroke-miterlimit:2;"><path d="M235.629,6.309l-45.713,31.322c-2.599,1.781 -5.657,2.775 -8.807,2.862c-0,-0 -55.393,1.529 -55.393,1.529c-14.878,0.411 -27.973,9.925 -32.961,23.948c0,-0 -18.572,52.209 -18.572,52.209c-1.056,2.969 -2.946,5.57 -5.443,7.492c-10.018,7.71 -30.173,23.221 -43.915,33.797c-11.795,9.077 -16.797,24.471 -12.59,38.747c0,0 15.663,53.155 15.663,53.155c0.891,3.022 0.891,6.238 0,9.26c-0,0 -15.663,53.155 -15.663,53.155c-4.207,14.276 0.795,29.67 12.59,38.747c13.742,10.576 33.897,26.087 43.915,33.797c2.497,1.922 4.387,4.523 5.443,7.492c0,0 18.572,52.209 18.572,52.209c4.988,14.023 18.083,23.537 32.961,23.948c-0,-0 55.393,1.529 55.393,1.529c3.15,0.087 6.208,1.081 8.807,2.862c10.428,7.145 31.409,21.521 45.713,31.322c12.278,8.412 28.464,8.412 40.742,-0c14.304,-9.801 35.285,-24.177 45.713,-31.322c2.599,-1.781 5.657,-2.775 8.807,-2.862c0,0 55.393,-1.529 55.393,-1.529c14.878,-0.411 27.973,-9.925 32.961,-23.948c-0,0 18.572,-52.209 18.572,-52.209c1.056,-2.969 2.946,-5.57 5.443,-7.492c10.018,-7.71 30.173,-23.221 43.915,-33.797c11.795,-9.077 16.797,-24.471 12.59,-38.747c-0,-0 -15.663,-53.155 -15.663,-53.155c-0.891,-3.022 -0.891,-6.238 -0,-9.26c0,-0 15.663,-53.155 15.663,-53.155c4.207,-14.276 -0.795,-29.67 -12.59,-38.747c-13.742,-10.576 -33.897,-26.087 -43.915,-33.797c-2.497,-1.922 -4.387,-4.523 -5.443,-7.492c-0,-0 -18.572,-52.209 -18.572,-52.209c-4.988,-14.023 -18.083,-23.537 -32.961,-23.948c0,0 -55.393,-1.529 -55.393,-1.529c-3.15,-0.087 -6.208,-1.081 -8.807,-2.862c-10.428,-7.145 -31.409,-21.521 -45.713,-31.322c-12.278,-8.412 -28.464,-8.412 -40.742,0Zm11.112,16.217c5.58,-3.824 12.938,-3.824 18.518,-0c0,-0 45.713,31.322 45.713,31.322c5.719,3.918 12.447,6.104 19.376,6.295c0,0 55.393,1.53 55.393,1.53c6.763,0.187 12.715,4.511 14.983,10.885c-0,0 18.572,52.209 18.572,52.209c2.323,6.532 6.481,12.255 11.975,16.483c-0,-0 43.915,33.796 43.915,33.796c5.361,4.126 7.634,11.124 5.722,17.613c0,-0 -15.662,53.154 -15.662,53.154c-1.96,6.65 -1.96,13.724 -0,20.374c-0,-0 15.662,53.154 15.662,53.154c1.912,6.489 -0.361,13.487 -5.722,17.613c-0,-0 -43.915,33.796 -43.915,33.796c-5.494,4.228 -9.652,9.951 -11.975,16.483c-0,-0 -18.572,52.209 -18.572,52.209c-2.268,6.374 -8.22,10.698 -14.982,10.885c-0.001,0 -55.394,1.53 -55.394,1.53c-6.929,0.191 -13.657,2.377 -19.376,6.295c0,0 -45.713,31.322 -45.713,31.322c-5.58,3.824 -12.938,3.824 -18.518,0c-0,0 -45.713,-31.322 -45.713,-31.322c-5.719,-3.918 -12.447,-6.104 -19.376,-6.295c-0,-0 -55.393,-1.53 -55.393,-1.53c-6.763,-0.187 -12.715,-4.511 -14.983,-10.885c0,-0 -18.572,-52.209 -18.572,-52.209c-2.323,-6.532 -6.481,-12.255 -11.975,-16.483c0,0 -43.915,-33.796 -43.915,-33.796c-5.361,-4.126 -7.634,-11.124 -5.722,-17.613c-0,0 15.662,-53.154 15.662,-53.154c1.96,-6.65 1.96,-13.724 0,-20.374c0,0 -15.662,-53.154 -15.662,-53.154c-1.912,-6.489 0.361,-13.487 5.722,-17.613c0,0 43.915,-33.796 43.915,-33.796c5.494,-4.228 9.652,-9.951 11.975,-16.483c0,0 18.572,-52.209 18.572,-52.209c2.268,-6.374 8.22,-10.698 14.982,-10.885c0.001,-0 55.394,-1.53 55.394,-1.53c6.929,-0.191 13.657,-2.377 19.376,-6.295l45.713,-31.322Zm79.09,345.292c-9.442,-0 -18.135,-2.246 -26.08,-6.736c-7.945,-4.491 -14.278,-10.709 -18.999,-18.654c-4.721,-7.945 -7.081,-16.868 -7.081,-26.771c0,-9.902 2.36,-18.826 7.081,-26.77c4.721,-7.945 11.054,-14.163 18.999,-18.654c7.945,-4.49 16.638,-6.736 26.08,-6.736c9.672,0 18.481,2.246 26.426,6.736c7.945,4.491 14.277,10.651 18.998,18.481c4.721,7.83 7.082,16.811 7.082,26.943c-0,10.133 -2.361,19.114 -7.082,26.944c-4.721,7.83 -11.053,13.99 -18.998,18.481c-7.945,4.49 -16.754,6.736 -26.426,6.736Zm-158.898,-5.182c-3.455,0 -5.182,-1.497 -5.182,-4.491c0,-1.612 0.461,-2.993 1.382,-4.145l151.299,-220.385c1.382,-2.072 2.706,-3.569 3.972,-4.49c1.267,-0.922 3.052,-1.382 5.355,-1.382l31.088,-0c1.612,-0 2.879,0.403 3.8,1.209c0.921,0.806 1.382,1.9 1.382,3.281c-0,1.612 -0.461,2.994 -1.382,4.146l-151.99,221.421c-1.381,1.842 -2.533,3.109 -3.454,3.8c-0.921,0.691 -2.533,1.036 -4.836,1.036l-31.434,0Zm158.898,-20.38c7.6,-0 13.99,-2.476 19.172,-7.427c5.181,-4.951 7.772,-11.342 7.772,-19.172c-0,-7.599 -2.591,-13.932 -7.772,-18.998c-5.182,-5.067 -11.572,-7.6 -19.172,-7.6c-7.369,0 -13.644,2.533 -18.826,7.6c-5.181,5.066 -7.772,11.399 -7.772,18.998c-0,7.83 2.591,14.221 7.772,19.172c5.182,4.951 11.457,7.427 18.826,7.427Zm-129.191,-115.029c-9.672,0 -18.481,-2.245 -26.426,-6.736c-7.945,-4.49 -14.22,-10.651 -18.826,-18.48c-4.605,-7.83 -6.908,-16.811 -6.908,-26.944c-0,-10.133 2.303,-19.172 6.908,-27.116c4.606,-7.945 10.881,-14.163 18.826,-18.654c7.945,-4.49 16.754,-6.736 26.426,-6.736c9.442,0 18.135,2.246 26.08,6.736c7.945,4.491 14.278,10.709 18.999,18.654c4.721,7.944 7.081,16.983 7.081,27.116c-0,9.902 -2.36,18.826 -7.081,26.771c-4.721,7.945 -11.054,14.163 -18.999,18.653c-7.945,4.491 -16.638,6.736 -26.08,6.736Zm-0,-25.562c7.599,0 13.932,-2.533 18.999,-7.599c5.066,-5.067 7.599,-11.4 7.599,-18.999c0,-7.83 -2.533,-14.278 -7.599,-19.344c-5.067,-5.067 -11.4,-7.6 -18.999,-7.6c-7.6,0 -13.933,2.533 -18.999,7.6c-5.066,5.066 -7.599,11.514 -7.599,19.344c-0,7.599 2.533,13.932 7.599,18.999c5.066,5.066 11.399,7.599 18.999,7.599Z"/></svg>