<svg width="37" height="37" viewBox="0 0 37 37" fill="none" xmlns="http://www.w3.org/2000/svg">
<path fill-rule="evenodd" clip-rule="evenodd" d="M18.0287 0.0031135L17.9764 0.00383757L17.9241 0.00463405C17.9067 0.00492368 17.8892 0.00521331 17.8718 0.00557534L17.8197 0.00651663C17.785 0.0071683 17.7502 0.00789237 17.7155 0.00861644C17.6635 0.00977495 17.6116 0.0110783 17.5598 0.012454C17.4561 0.0152055 17.3529 0.0183914 17.2501 0.0220117C17.2221 0.022953 17.1942 0.0240391 17.1663 0.0250528L17.1473 0.0257769L17.096 0.0278043C17.0293 0.030411 16.9628 0.0332348 16.8965 0.0362759L16.8917 0.0364932L16.8408 0.0388826C16.7564 0.042865 16.6724 0.047137 16.5886 0.0516986C16.5388 0.0543777 16.4891 0.0572016 16.4394 0.0600978L16.436 0.0603151L16.3858 0.0633562C15.9852 0.0875401 15.5917 0.11853 15.2065 0.15582C15.1755 0.158789 15.1446 0.16183 15.1137 0.164943C15.0817 0.168129 15.0497 0.171315 15.0177 0.174646C14.9675 0.179787 14.9173 0.185072 14.8673 0.190431C14.6677 0.211935 14.4703 0.235178 14.2755 0.260086L14.2555 0.26262C14.0541 0.28847 13.8556 0.316057 13.66 0.345309L13.6149 0.352115C13.5698 0.358922 13.525 0.365873 13.4802 0.372824C13.412 0.38354 13.3442 0.394401 13.2768 0.405479C13.2115 0.416196 13.1465 0.427129 13.0819 0.438207L13.0382 0.44581L12.9946 0.453413L12.951 0.461088L12.9379 0.463405C12.8556 0.478031 12.7736 0.49302 12.6924 0.508297C12.3504 0.572523 12.0191 0.64225 11.6998 0.716902C11.6465 0.729429 11.5937 0.741955 11.5412 0.754699C10.123 1.09805 8.9522 1.54082 8.13149 2.04514C8.05233 2.09379 7.97614 2.14325 7.90271 2.19357C6.99776 2.81381 6.54565 3.54715 6.53063 4.271C6.53041 4.28346 6.53027 4.29584 6.53027 4.30822V23.9305C6.53027 24.725 7.05712 25.5334 8.13149 26.1936C9.97121 27.3241 13.5708 28.1456 17.7744 28.2314V30.6376C16.5745 30.913 15.6291 31.8564 15.3532 33.0538H6.37572C6.04601 31.6236 4.76144 30.5558 3.22886 30.5558C1.44682 30.5558 0 31.9996 0 33.7779C0 35.5562 1.44682 37 3.22886 37C4.76144 37 6.04601 35.9322 6.37572 34.502H15.3532C15.6828 35.9322 16.9675 37 18.5 37C20.0325 37 21.3172 35.9322 21.6468 34.502H30.6243C30.954 35.9322 32.2386 37 33.7711 37C35.5532 37 37 35.5562 37 33.7779C37 31.9996 35.5532 30.5558 33.7711 30.5558C32.2386 30.5558 30.954 31.6236 30.6243 33.0538H21.6468C21.3708 31.8563 20.4255 30.913 19.2255 30.6376V28.2314C23.431 28.1463 27.0329 27.3245 28.8734 26.1936C29.9477 25.5334 30.4746 24.725 30.4746 23.9305V4.30822C30.4746 4.22133 30.4683 4.13423 30.4557 4.04726L30.4555 4.04618C30.4523 4.02453 30.4488 4.00281 30.4448 3.98108L30.4432 3.97268L30.4422 3.96704C30.4325 3.91606 30.4207 3.86523 30.4067 3.8144C30.3596 3.64396 30.288 3.47445 30.1918 3.30741C29.9326 2.85798 29.4945 2.42679 28.8734 2.04514C26.9282 0.849914 23.0156 0 18.5024 0C18.3436 0 18.1854 0.00108611 18.0287 0.0031135V0.0031135ZM18.5 32.0039C19.4811 32.0039 20.2776 32.7988 20.2776 33.7779C20.2776 34.757 19.4811 35.5519 18.5 35.5519C17.5188 35.5519 16.7223 34.757 16.7223 33.7779C16.7223 32.7988 17.5188 32.0039 18.5 32.0039ZM3.22886 32.0039C4.20999 32.0039 5.00654 32.7988 5.00654 33.7779C5.00654 34.757 4.20999 35.5519 3.22886 35.5519C2.24772 35.5519 1.45117 34.757 1.45117 33.7779C1.45117 32.7988 2.24772 32.0039 3.22886 32.0039ZM33.7711 32.0039C34.7523 32.0039 35.5488 32.7988 35.5488 33.7779C35.5488 34.757 34.7523 35.5519 33.7711 35.5519C32.79 35.5519 31.9935 34.757 31.9935 33.7779C31.9935 32.7988 32.79 32.0039 33.7711 32.0039ZM29.0234 19.6148C28.9746 19.647 28.9246 19.6788 28.8734 19.7103C26.9282 20.9055 23.0156 21.7554 18.5024 21.7554C13.9892 21.7554 10.0766 20.9055 8.13149 19.7103C8.08027 19.6788 8.03027 19.647 7.98144 19.6148V23.9305C7.98144 24.1496 8.12554 24.343 8.33168 24.5401C8.65333 24.8478 9.127 25.1265 9.71675 25.3829C11.6981 26.2441 14.8979 26.7906 18.5024 26.7906C22.107 26.7906 25.3068 26.2441 27.2881 25.3829C27.8779 25.1265 28.3515 24.8478 28.6732 24.5401C28.8793 24.343 29.0234 24.1496 29.0234 23.9305V19.6148V19.6148ZM29.0234 13.0697C28.9746 13.1019 28.9246 13.1338 28.8734 13.1652C26.9282 14.3604 23.0156 15.2103 18.5024 15.2103C13.9892 15.2103 10.0766 14.3604 8.13149 13.1652C8.08027 13.1338 8.03027 13.1019 7.98144 13.0697V17.4472C7.98144 17.6663 8.12554 17.8597 8.33168 18.0568C8.65333 18.3645 9.127 18.6432 9.71675 18.8995C11.6981 19.7608 14.8979 20.3073 18.5024 20.3073C22.107 20.3073 25.3068 19.7608 27.2881 18.8995C27.8779 18.6432 28.3515 18.3645 28.6732 18.0568C28.8793 17.8597 29.0234 17.6663 29.0234 17.4472V13.0697V13.0697ZM29.0234 6.4758C28.9746 6.50802 28.9246 6.5398 28.8734 6.5713C26.9282 7.76652 23.0156 8.61644 18.5024 8.61644C13.9892 8.61644 10.0766 7.76652 8.13149 6.5713C8.08027 6.5398 8.03027 6.50802 7.98144 6.4758V10.9021C7.98144 11.1212 8.12554 11.3146 8.33168 11.5118C8.65333 11.8194 9.127 12.0981 9.71675 12.3545C11.6981 13.2157 14.8979 13.7622 18.5024 13.7622C22.107 13.7622 25.3068 13.2157 27.2881 12.3545C27.8779 12.0981 28.3515 11.8194 28.6732 11.5118C28.8793 11.3146 29.0234 11.1212 29.0234 10.9021V6.4758V6.4758ZM18.5024 1.44814C18.7136 1.44814 18.9235 1.45002 19.1317 1.45372C19.4093 1.45864 19.6843 1.46689 19.9561 1.47819L19.9968 1.47993C20.0104 1.48051 20.0239 1.48109 20.0375 1.48167L20.0782 1.48348L20.1187 1.48536L20.1593 1.48731C20.1862 1.48854 20.2131 1.48992 20.2399 1.49122C23.1237 1.63589 25.6317 2.13594 27.2881 2.85588C27.3895 2.89997 27.4874 2.94465 27.5818 2.99005C27.5954 2.99664 27.609 3.00323 27.6225 3.00989L27.6328 3.01488C27.637 3.01698 27.6413 3.01908 27.6455 3.02111L27.6581 3.02741C27.8117 3.10358 27.9552 3.18171 28.0878 3.26194L28.0925 3.26483C28.32 3.40291 28.5149 3.54729 28.6732 3.69862C28.7714 3.79254 28.8556 3.88565 28.9168 3.98108L28.9197 3.98579C28.9245 3.99325 28.929 4.00071 28.9334 4.00824L28.9345 4.00997C28.9456 4.0288 28.9557 4.04777 28.9649 4.06681L28.967 4.07101L28.9692 4.07579C28.9758 4.09013 28.9819 4.10461 28.9874 4.11909L28.9884 4.12184C29.0111 4.18223 29.0234 4.24414 29.0234 4.30822C29.0234 4.52732 28.8793 4.72072 28.6732 4.91781C28.3515 5.22547 27.8779 5.50424 27.2881 5.76056C25.3068 6.62177 22.107 7.1683 18.5024 7.1683C14.8979 7.1683 11.6981 6.62177 9.71675 5.76056C9.127 5.50424 8.65333 5.22547 8.33168 4.91781C8.12554 4.72072 7.98144 4.52732 7.98144 4.30822C7.98144 4.08912 8.12554 3.89572 8.33168 3.69862C8.65333 3.39097 9.127 3.1122 9.71675 2.85588C9.95467 2.75248 10.2102 2.65357 10.4818 2.55966L10.4887 2.55727L10.4935 2.55561C10.5539 2.53483 10.615 2.51426 10.6769 2.49392L10.7001 2.48631C10.8427 2.4399 10.9894 2.39472 11.1398 2.35091L11.1544 2.34671L11.1717 2.34172C11.1948 2.33498 11.2182 2.32832 11.2416 2.32166C11.2737 2.31261 11.3061 2.30356 11.3386 2.29451L11.3592 2.28886C11.3691 2.28611 11.3789 2.28343 11.3888 2.28068L11.4185 2.27257C11.4355 2.26801 11.4526 2.26337 11.4698 2.25874C11.5614 2.23419 11.6544 2.21015 11.7487 2.18655C11.784 2.17764 11.8196 2.16888 11.8554 2.16012C11.9552 2.13579 12.0564 2.11197 12.1589 2.08873C12.212 2.07671 12.2656 2.06476 12.3195 2.05303L12.3519 2.04593C12.3627 2.04362 12.3736 2.0413 12.3844 2.03898L12.4169 2.03203C12.4278 2.02971 12.4386 2.0274 12.4495 2.02508L12.4539 2.02414C12.5716 1.9993 12.6909 1.97519 12.8117 1.9518C13.0251 1.91046 13.2432 1.87143 13.4659 1.83479C13.4853 1.83161 13.505 1.82842 13.5248 1.82516C13.5402 1.8227 13.5557 1.82017 13.5713 1.81771L13.6066 1.81206C13.6184 1.81018 13.6302 1.80837 13.642 1.80648L13.6774 1.80091C13.7267 1.79323 13.7763 1.7857 13.826 1.77824C13.8477 1.77499 13.8696 1.77173 13.8916 1.76847L13.9275 1.76318L13.9635 1.75797L13.9997 1.75283C14.0117 1.75109 14.0238 1.74935 14.0358 1.74769L14.072 1.74255C14.0841 1.74088 14.0962 1.73922 14.1084 1.73748L14.1447 1.73248L14.1584 1.7306C14.2514 1.71786 14.3452 1.70555 14.4397 1.6936C14.5145 1.68412 14.5896 1.67492 14.6652 1.66601C14.7636 1.65436 14.8624 1.64321 14.9618 1.63249C15.107 1.61685 15.2535 1.60208 15.4014 1.58832L15.4204 1.58658L15.459 1.58304C15.6135 1.56899 15.7696 1.55595 15.927 1.54401C15.9728 1.54053 16.0185 1.53713 16.0643 1.53387L16.0847 1.53242L16.1243 1.5296C16.1375 1.52866 16.1507 1.52779 16.1639 1.52685L16.1959 1.52468C16.3175 1.51649 16.44 1.50889 16.5631 1.50194C16.6161 1.49897 16.6692 1.49615 16.7225 1.4934C16.8116 1.48883 16.9006 1.48456 16.99 1.48072C17.4841 1.45922 17.9892 1.44814 18.5024 1.44814V1.44814Z" fill="#04AFE3"/>
</svg>
