<?xml version="1.0" encoding="utf-8"?>
<!-- Generator: Adobe Illustrator 24.0.0, SVG Export Plug-In . SVG Version: 6.00 Build 0)  -->
<svg version="1.1" id="Layer_1" xmlns="http://www.w3.org/2000/svg" xmlns:xlink="http://www.w3.org/1999/xlink" x="0px" y="0px"
	 viewBox="0 0 20 20" style="enable-background:new 0 0 20 20;" xml:space="preserve">
<style type="text/css">
	.st0{fill:#04AFE3;}
</style>
<path class="st0" d="M16.2,4.6c0-0.1-0.1-0.2-0.2-0.2h-2.3h-1.5H10c-0.1,0-0.2,0.1-0.2,0.2v5.2h-2H6.3H4c-0.1,0-0.2,0.1-0.2,0.2v5.3
	c0,0.1,0.1,0.2,0.2,0.2h6h0h6c0.1,0,0.2-0.1,0.2-0.2v-5.3c0,0,0,0,0-0.1c0,0,0,0,0-0.1V4.6z M10.2,4.9H12v1.3c0,0.1,0.1,0.2,0.2,0.2
	h1.5c0.1,0,0.2-0.1,0.2-0.2V4.9h1.8v4.9h-5.6V4.9z M4.2,10.3H6v1.3c0,0.1,0.1,0.2,0.2,0.2h1.5c0.1,0,0.2-0.1,0.2-0.2v-1.3h1.8v4.9
	H4.2V10.3z M15.8,15.1h-5.6v-4.9H12v1.3c0,0.1,0.1,0.2,0.2,0.2h1.5c0.1,0,0.2-0.1,0.2-0.2v-1.3h1.8V15.1z"/>
</svg>
