<svg width="37" height="37" viewBox="0 0 37 37" fill="none" xmlns="http://www.w3.org/2000/svg">
<path fill-rule="evenodd" clip-rule="evenodd" d="M0 7.0217V28.8962C0 30.2528 1.10269 31.3541 2.46094 31.3541H14.4041C14.4616 32.2419 14.4396 33.9337 13.7039 35.6355H11.8648C11.4905 35.6355 11.1865 35.939 11.1865 36.313C11.1865 36.6868 11.4905 36.9904 11.8648 36.9904H13.9688C14.0487 37.0034 14.1294 37.003 14.2072 36.9904H22.7928C22.8706 37.003 22.9513 37.0034 23.0312 36.9904H25.418C25.7924 36.9904 26.0963 36.6868 26.0963 36.313C26.0963 35.939 25.7924 35.6355 25.418 35.6355H23.2961C22.5604 33.9337 22.5384 32.2419 22.5959 31.3541H34.5391C35.8973 31.3541 37 30.2528 37 28.8962V7.0217C37 5.66518 35.8973 4.56376 34.5391 4.56376H30.9775L31.1532 4.38826C31.4181 4.12375 31.4181 3.69484 31.1532 3.43026L29.3115 1.59084C29.0466 1.32626 28.6172 1.32626 28.3523 1.59084L27.6496 2.29269C27.1777 2.03078 26.6736 1.82032 26.1445 1.66897V0.677418C26.1445 0.303329 25.8408 0 25.4662 0H22.8617C22.4871 0 22.1835 0.303329 22.1835 0.677418V1.66897C21.6544 1.82039 21.1501 2.03078 20.6784 2.29276C20.6784 2.29269 19.9756 1.59084 19.9756 1.59084C19.7108 1.32626 19.2813 1.32626 19.0164 1.59084L17.1748 3.43026C16.9099 3.69484 16.9099 4.12375 17.1748 4.38826L17.3505 4.56376H2.46094C1.10269 4.56376 0 5.66518 0 7.0217ZM21.8536 35.6355C21.2267 33.9362 21.1882 32.3018 21.2403 31.3541H15.7597C15.8118 32.3018 15.7733 33.9362 15.1464 35.6355H21.8536ZM1.35656 26.7972H35.6434V28.8962C35.6434 29.5049 35.1486 29.9992 34.5391 29.9992H2.46094C1.85136 29.9992 1.35656 29.5049 1.35656 28.8962V26.7972ZM2.02616 9.46223V25.4423H1.35656V7.0217C1.35656 6.41293 1.85136 5.91866 2.46094 5.91866H17.4837C17.396 6.13846 17.3189 6.36358 17.253 6.59341H16.2602C15.8856 6.59341 15.582 6.89667 15.582 7.27083V7.53099H3.95976C2.89263 7.53099 2.02616 8.3964 2.02616 9.46223ZM35.6434 7.0217V25.4423H34.9738V9.46223C34.9738 8.3964 34.1074 7.53099 33.0402 7.53099H32.746V7.27083C32.746 6.89667 32.4423 6.59341 32.0676 6.59341H31.0749C31.009 6.36358 30.9319 6.13846 30.8442 5.91866H34.5391C35.1486 5.91866 35.6434 6.41293 35.6434 7.0217ZM3.95976 8.88589H15.582V9.87219C15.582 10.2463 15.8856 10.5496 16.2602 10.5496H17.253C17.4046 11.0781 17.6153 11.5817 17.8775 12.0528L17.1748 12.7547C16.9099 13.0193 16.9099 13.4482 17.1748 13.7128L19.0164 15.5522C19.2813 15.8168 19.7108 15.8168 19.9756 15.5522L20.6784 14.8503C21.1501 15.1122 21.6544 15.3227 22.1835 15.474V16.4656C22.1835 16.8397 22.4871 17.143 22.8617 17.143H25.4662C25.8408 17.143 26.1445 16.8397 26.1445 16.4656V15.474C26.6736 15.3226 27.1778 15.1122 27.6496 14.8503L28.3523 15.5522C28.6172 15.8168 29.0466 15.8168 29.3115 15.5522L31.1532 13.7128C31.4181 13.4482 31.4181 13.0193 31.1532 12.7547L30.4504 12.0528C30.7127 11.5817 30.9234 11.0781 31.0749 10.5496H32.0676C32.4423 10.5496 32.746 10.2463 32.746 9.87219V8.88589H33.0402C33.3587 8.88589 33.6173 9.14415 33.6173 9.46223V25.4423H3.38272V9.46223C3.38272 9.14415 3.6413 8.88589 3.95976 8.88589ZM25.3311 2.86404C25.015 2.79988 24.788 2.52231 24.788 2.20024V1.35491H23.54V2.20024C23.54 2.52231 23.3129 2.79988 22.9969 2.86404C22.2535 3.0151 21.5613 3.30769 20.9498 3.71239C20.6809 3.89034 20.3237 3.85447 20.0955 3.62668L19.4961 3.02788L18.6136 3.9093L19.2131 4.50802C19.4412 4.73589 19.4771 5.09264 19.2989 5.36122C18.8937 5.97216 18.6007 6.6634 18.4495 7.40582C18.3853 7.72144 18.1074 7.94825 17.7849 7.94825H16.9385V9.19477H17.7849C18.1074 9.19477 18.3853 9.42151 18.4495 9.73712C18.6008 10.4797 18.8937 11.1709 19.2989 11.7818C19.4771 12.0504 19.4412 12.4071 19.2131 12.6349L18.6136 13.2337L19.4961 14.1151L20.0955 13.5163C20.3237 13.2885 20.6809 13.2527 20.9498 13.4306C21.5615 13.8354 22.2535 14.128 22.9969 14.279C23.3129 14.3431 23.54 14.6207 23.54 14.9428V15.7881H24.788V14.9428C24.788 14.6207 25.015 14.3431 25.331 14.279C26.0745 14.1279 26.7666 13.8353 27.3782 13.4306C27.6471 13.2527 28.0043 13.2885 28.2324 13.5163L28.8319 14.1151L29.7144 13.2337L29.1149 12.6349C28.8868 12.4071 28.8509 12.0504 29.029 11.7818C29.4343 11.1709 29.7272 10.4796 29.8784 9.73719C29.9427 9.42158 30.2206 9.19477 30.543 9.19477H31.3894V7.94825H30.543C30.2206 7.94825 29.9427 7.72151 29.8784 7.40589C29.7272 6.66333 29.4342 5.97208 29.029 5.36122C28.8509 5.09264 28.8868 4.73589 29.1149 4.50802L29.7144 3.9093L28.8319 3.02788L28.2324 3.62668C28.0043 3.85447 27.6471 3.89034 27.3782 3.71239C26.7665 3.30762 26.0744 3.01503 25.3311 2.86404ZM19.6576 29.1863H17.3424C16.9681 29.1863 16.6642 28.8828 16.6642 28.5089C16.6642 28.1349 16.9681 27.8314 17.3424 27.8314H19.6576C20.0319 27.8314 20.3358 28.1349 20.3358 28.5089C20.3358 28.8828 20.0319 29.1863 19.6576 29.1863ZM12.5627 11.6216V12.3794C12.9671 12.4951 13.3524 12.6559 13.7129 12.8561L14.25 12.3197C14.4524 12.1175 14.7806 12.1175 14.983 12.3197L16.3905 13.7254C16.5929 13.9276 16.5929 14.2554 16.3905 14.4576L15.8534 14.994C16.0538 15.3541 16.2148 15.7389 16.3307 16.1428H17.0894C17.3757 16.1428 17.6077 16.3746 17.6077 16.6605V18.6485C17.6077 18.9344 17.3757 19.1662 17.0894 19.1662H16.3307C16.2149 19.5701 16.0539 19.9549 15.8534 20.315L16.3905 20.8514C16.5929 21.0536 16.5929 21.3814 16.3905 21.5836L14.983 22.9893C14.7806 23.1915 14.4524 23.1915 14.25 22.9893L13.7129 22.4529C13.3524 22.6531 12.9671 22.8139 12.5627 22.9296V23.6874C12.5627 23.9733 12.3306 24.2051 12.0444 24.2051H10.0539C9.76764 24.2051 9.53556 23.9733 9.53556 23.6874V22.9296C9.13129 22.814 8.74592 22.6531 8.38536 22.4529L7.84831 22.9893C7.6459 23.1915 7.31774 23.1915 7.11525 22.9893L5.7078 21.5836C5.50538 21.3814 5.50538 21.0536 5.7078 20.8514L6.24491 20.315C6.04446 19.9549 5.88344 19.5701 5.76761 19.1662H5.00896C4.72262 19.1662 4.49061 18.9344 4.49061 18.6485V16.6605C4.49061 16.3746 4.72262 16.1428 5.00896 16.1428H5.76761C5.88344 15.7389 6.04446 15.3541 6.24484 14.994L5.7078 14.4576C5.50538 14.2554 5.50538 13.9276 5.7078 13.7254L7.11525 12.3197C7.31774 12.1175 7.6459 12.1175 7.84831 12.3197C7.84831 12.3197 8.38543 12.8561 8.38536 12.8561C8.74592 12.6559 9.13122 12.4951 9.53556 12.3794V11.6216C9.53556 11.3357 9.76764 11.1039 10.0539 11.1039H12.0444C12.3306 11.1039 12.5627 11.3357 12.5627 11.6216ZM11.9411 13.2927C11.6996 13.2437 11.526 13.0316 11.526 12.7854V12.1393H10.5723V12.7854C10.5723 13.0316 10.3987 13.2436 10.1572 13.2927C9.58912 13.4082 9.06016 13.6318 8.59277 13.9411C8.38726 14.077 8.11427 14.0496 7.93997 13.8755L7.48178 13.4179L6.8074 14.0915L7.26559 14.5491C7.43989 14.7232 7.4673 14.9959 7.33116 15.2011C7.02142 15.668 6.79756 16.1963 6.68201 16.7637C6.63296 17.0049 6.42056 17.1782 6.17407 17.1782H5.52731V18.1308H6.17407C6.42056 18.1308 6.63289 18.3041 6.68201 18.5453C6.79763 19.1128 7.02149 19.6411 7.33116 20.1079C7.4673 20.3131 7.43989 20.5858 7.26559 20.7599L6.8074 21.2175L7.48178 21.8911L7.93997 21.4335C8.11427 21.2594 8.38726 21.232 8.59277 21.368C9.06023 21.6773 9.58912 21.9009 10.1572 22.0163C10.3987 22.0654 10.5723 22.2774 10.5723 22.5236V23.1697H11.526V22.5236C11.526 22.2775 11.6996 22.0654 11.9411 22.0163C12.5092 21.9009 13.0382 21.6772 13.5056 21.3679C13.7111 21.232 13.984 21.2594 14.1584 21.4335L14.6165 21.8911L15.2909 21.2175L14.8328 20.7599C14.6585 20.5858 14.631 20.3131 14.7672 20.1079C15.0769 19.641 15.3007 19.1127 15.4163 18.5453C15.4654 18.3041 15.6778 18.1308 15.9242 18.1308H16.571V17.1782H15.9242C15.6778 17.1782 15.4654 17.0049 15.4163 16.7637C15.3007 16.1962 15.0768 15.668 14.7672 15.2011C14.631 14.9959 14.6585 14.7232 14.8328 14.5491L15.2909 14.0915L14.6165 13.4179L14.1584 13.8755C13.984 14.0497 13.711 14.077 13.5055 13.941C13.0381 13.6317 12.5092 13.4081 11.9411 13.2927ZM8.11174 17.6545C8.11174 16.0353 9.42796 14.7207 11.0491 14.7207C12.6703 14.7207 13.9865 16.0353 13.9865 17.6545C13.9865 19.2737 12.6703 20.5883 11.0491 20.5883C9.42796 20.5883 8.11174 19.2737 8.11174 17.6545ZM12.6301 17.6545C12.6301 16.783 11.9217 16.0756 11.0491 16.0756C10.1766 16.0756 9.4683 16.783 9.4683 17.6545C9.4683 18.5259 10.1766 19.2334 11.0491 19.2334C11.9217 19.2334 12.6301 18.5259 12.6301 17.6545ZM23.539 5.4595C24.2707 5.31251 25.0568 5.42054 25.7533 5.82215C27.2726 6.69823 27.7939 8.64147 26.9167 10.1589C26.0396 11.6763 24.0939 12.197 22.5747 11.3209C21.0554 10.4448 20.5341 8.50156 21.4113 6.98415C21.5984 6.66039 21.4872 6.24573 21.1629 6.05879C20.8388 5.87185 20.4236 5.9829 20.2364 6.30673C18.985 8.47173 19.7288 11.2443 21.8964 12.4943C24.0641 13.7442 26.84 13.0013 28.0915 10.8363C29.343 8.6713 28.5992 5.89873 26.4315 4.64878C25.4376 4.0756 24.3157 3.92145 23.2715 4.1312C22.9046 4.20491 22.6665 4.56236 22.7403 4.92894C22.8142 5.29545 23.1721 5.53321 23.539 5.4595ZM24.1639 6.2338C22.8722 6.2338 21.8234 7.28131 21.8234 8.57149C21.8234 9.86174 22.8722 10.9092 24.1639 10.9092C25.4558 10.9092 26.5045 9.86174 26.5045 8.57149C26.5045 7.28131 25.4558 6.2338 24.1639 6.2338ZM24.1639 7.58871C24.707 7.58871 25.148 8.02906 25.148 8.57149C25.148 9.11398 24.707 9.55434 24.1639 9.55434C23.6209 9.55434 23.18 9.11398 23.18 8.57149C23.18 8.02906 23.6209 7.58871 24.1639 7.58871Z" fill="#04AFE3"/>
</svg>
