<?xml version="1.0" encoding="UTF-8" standalone="no"?><!DOCTYPE svg PUBLIC "-//W3C//DTD SVG 1.1//EN" "http://www.w3.org/Graphics/SVG/1.1/DTD/svg11.dtd"><svg width="100%" height="100%" viewBox="0 0 513 512" version="1.1" xmlns="http://www.w3.org/2000/svg" xmlns:xlink="http://www.w3.org/1999/xlink" xml:space="preserve" xmlns:serif="http://www.serif.com/" style="fill-rule:evenodd;clip-rule:evenodd;stroke-linejoin:round;stroke-miterlimit:2;"><path d="M228.016,309.355l0,53.226c0,10.595 8.603,19.198 19.198,19.198c0,-0 246.588,-0 246.588,-0c10.596,-0 19.198,-8.603 19.198,-19.198l0,-140.738c0,-10.596 -8.602,-19.198 -19.198,-19.198l-76.206,-0l0,-53.226c0,-10.595 -8.602,-19.198 -19.198,-19.198c0,0 -246.588,0 -246.588,0c-10.595,0 -19.197,8.603 -19.197,19.198l-0,140.738c-0,10.596 8.602,19.198 19.197,19.198l76.206,0Zm189.58,-73.646l26.384,0c7.905,0 14.348,6.309 14.559,14.163l0.01,0.408c0,2.835 2.298,5.133 5.133,5.133l4.29,-0c6.519,-0 11.811,5.292 11.811,11.81c-0,-0 -0,49.977 -0,49.977c-0,6.519 -5.292,11.811 -11.811,11.811c0,-0 -1.827,-0 -4.29,-0c-2.835,-0 -5.133,2.298 -5.133,5.133l0,0.001c0,8.041 -6.528,14.569 -14.569,14.569c0,0 -146.944,0 -146.944,0c-8.041,0 -14.569,-6.528 -14.569,-14.569l0,-0.001c0,-2.835 -2.298,-5.133 -5.133,-5.133c-2.462,-0 -4.29,-0 -4.29,-0c-6.518,-0 -11.81,-5.292 -11.81,-11.811l-0,-7.845l-17.733,0l0,53.226c0,2.049 1.664,3.713 3.713,3.713l246.588,-0c2.049,-0 3.713,-1.664 3.713,-3.713c0,-0 0,-140.738 0,-140.738c0,-2.05 -1.664,-3.713 -3.713,-3.713l-76.206,-0l0,17.579Zm-312.127,101.352l-26.152,-0c-4.273,-0 -7.742,3.469 -7.742,7.742c-0,4.273 3.469,7.743 7.742,7.743l26.152,-0c4.274,-0 7.743,-3.47 7.743,-7.743c-0,-4.273 -3.469,-7.742 -7.743,-7.742Zm83.963,-0l-60.563,-0c-4.273,-0 -7.743,3.469 -7.743,7.742c0,4.273 3.47,7.743 7.743,7.743l60.563,-0c4.273,-0 7.743,-3.47 7.743,-7.743c-0,-4.273 -3.47,-7.742 -7.743,-7.742Zm228.164,-85.867l0,38.963c0,10.596 -8.602,19.198 -19.198,19.198l-121.679,0l-0,4.171l0.615,-0c11.081,-0 20.12,8.741 20.597,19.703l145.155,0c0.477,-10.962 9.516,-19.703 20.596,-19.703l0.616,-0l-0,-42.629l-0.616,0c-11.08,0 -20.119,-8.74 -20.596,-19.703l-25.49,-0Zm-15.485,-101.775l0,140.738c0,2.05 -1.664,3.713 -3.713,3.713c0,0 -246.588,0 -246.588,0c-2.049,0 -3.713,-1.663 -3.713,-3.713c0,0 0,-140.738 0,-140.738c0,-2.049 1.664,-3.713 3.713,-3.713l246.588,0c2.049,0 3.713,1.664 3.713,3.713Zm-377.851,128.455l-15.829,0c-4.274,0 -7.743,3.469 -7.743,7.742c0,4.274 3.469,7.743 7.743,7.743l15.829,-0c4.273,-0 7.742,-3.469 7.742,-7.743c0,-4.273 -3.469,-7.742 -7.742,-7.742Zm86.715,0l-63.316,0c-4.273,0 -7.742,3.469 -7.742,7.742c-0,4.274 3.469,7.743 7.742,7.743l63.316,-0c4.273,-0 7.743,-3.469 7.743,-7.743c-0,-4.273 -3.47,-7.742 -7.743,-7.742Zm76.09,-99.949l-0.002,-0.05l-0,0.032c-0.027,2.811 -2.315,5.082 -5.133,5.082c-2.462,0 -4.29,0 -4.29,0c-6.518,0 -11.81,5.292 -11.81,11.811l-0,49.977c-0,6.518 5.292,11.81 11.81,11.81c0,0 1.828,0 4.29,0c2.835,0 5.133,2.298 5.133,5.133l0,0.002c0,8.041 6.528,14.569 14.569,14.569c0,-0 146.945,-0 146.945,-0c8.04,-0 14.568,-6.528 14.568,-14.569l0,-0.002c0,-2.835 2.298,-5.133 5.133,-5.133c2.463,0 4.29,0 4.29,0c6.519,0 11.811,-5.292 11.811,-11.81c-0,0 -0,-49.977 -0,-49.977c-0,-6.519 -5.292,-11.811 -11.811,-11.811c0,0 -1.827,0 -4.29,0c-2.835,0 -5.133,-2.298 -5.133,-5.133l-0.01,-0.407c-0.211,-7.854 -6.654,-14.163 -14.558,-14.163l-146.945,-0c-8.041,-0 -14.569,6.528 -14.569,14.569l0.002,0.07Zm160.617,0.846c0.477,10.962 9.516,19.703 20.596,19.703l0.616,0l-0,42.629l-0.616,-0c-11.08,-0 -20.119,8.74 -20.596,19.703l-145.155,0c-0.477,-10.963 -9.516,-19.703 -20.597,-19.703l-0.615,-0l-0,-42.629l0.615,0c11.081,0 20.12,-8.741 20.597,-19.703l145.155,-0Zm-78.497,73.329c-1.439,-0 -2.456,-0.298 -3.052,-0.893c-0.596,-0.596 -0.893,-1.539 -0.893,-2.83l-0,-3.201l-8.488,0c-1.39,0 -2.382,-0.298 -2.978,-0.893c-0.595,-0.596 -0.893,-1.539 -0.893,-2.83l-0,-43.107c-0,-1.29 0.298,-2.245 0.893,-2.866c0.596,-0.62 1.588,-0.931 2.978,-0.931l8.488,0l-0,-3.275c-0,-1.291 0.297,-2.246 0.893,-2.867c0.596,-0.62 1.613,-0.93 3.052,-0.93l5.957,-0c1.439,-0 2.469,0.31 3.089,0.93c0.621,0.621 0.931,1.576 0.931,2.867l-0,3.275c11.217,0.249 16.826,5.088 16.826,14.518c-0,2.284 -0.521,4.319 -1.564,6.105c-1.042,1.787 -2.457,3.053 -4.243,3.797c4.764,1.539 7.147,5.137 7.147,10.796c-0,4.814 -1.576,8.549 -4.728,11.205c-3.151,2.655 -7.631,4.057 -13.438,4.206l-0,3.201c-0,1.39 -0.335,2.358 -1.005,2.904c-0.67,0.546 -1.874,0.819 -3.611,0.819l-5.361,-0Zm8.19,-17.719c1.588,-0 2.817,-0.459 3.685,-1.378c0.869,-0.918 1.303,-2.122 1.303,-3.611c0,-1.687 -0.471,-2.953 -1.414,-3.797c-0.943,-0.843 -2.234,-1.265 -3.872,-1.265l-9.157,-0l-0,10.051l9.455,-0Zm-238.663,-15.694l-14.452,0c-4.273,0 -7.743,3.47 -7.743,7.743c0,4.273 3.47,7.742 7.743,7.742l14.452,0c4.273,0 7.743,-3.469 7.743,-7.742c-0,-4.273 -3.47,-7.743 -7.743,-7.743Zm72.263,0l-44.046,0c-4.273,0 -7.742,3.47 -7.742,7.743c-0,4.273 3.469,7.742 7.742,7.742l44.046,0c4.273,0 7.743,-3.469 7.743,-7.742c-0,-4.273 -3.47,-7.743 -7.743,-7.743Zm218.165,8.844l22.023,-0c4.273,-0 7.743,-3.47 7.743,-7.743c-0,-4.273 -3.47,-7.742 -7.743,-7.742l-22.023,-0c-4.273,-0 -7.742,3.469 -7.742,7.742c-0,4.273 3.469,7.743 7.742,7.743Zm-128.696,-0l22.023,-0c4.273,-0 7.742,-3.47 7.742,-7.743c-0,-4.273 -3.469,-7.742 -7.742,-7.742l-22.023,-0c-4.274,-0 -7.743,3.469 -7.743,7.742c0,4.273 3.469,7.743 7.743,7.743Zm75.665,-13.178c1.539,0 2.73,-0.384 3.574,-1.154c0.844,-0.769 1.266,-1.898 1.266,-3.387c-0,-1.588 -0.397,-2.73 -1.191,-3.425c-0.795,-0.695 -2.011,-1.042 -3.649,-1.042l-8.189,-0l-0,9.008l8.189,0Zm-251.849,-54.164l-16.518,-0c-4.273,-0 -7.742,3.469 -7.742,7.742c-0,4.273 3.469,7.743 7.742,7.743l16.518,-0c4.273,-0 7.742,-3.47 7.742,-7.743c0,-4.273 -3.469,-7.742 -7.742,-7.742Zm86.715,-0l-63.316,-0c-4.273,-0 -7.742,3.469 -7.742,7.742c-0,4.273 3.469,7.743 7.742,7.743l63.316,-0c4.273,-0 7.743,-3.47 7.743,-7.743c-0,-4.273 -3.47,-7.742 -7.743,-7.742Z"/></svg>