<?xml version="1.0" encoding="UTF-8" standalone="no"?><!DOCTYPE svg PUBLIC "-//W3C//DTD SVG 1.1//EN" "http://www.w3.org/Graphics/SVG/1.1/DTD/svg11.dtd"><svg width="100%" height="100%" viewBox="0 0 513 512" version="1.1" xmlns="http://www.w3.org/2000/svg" xmlns:xlink="http://www.w3.org/1999/xlink" xml:space="preserve" xmlns:serif="http://www.serif.com/" style="fill-rule:evenodd;clip-rule:evenodd;stroke-linejoin:round;stroke-miterlimit:2;"><path d="M47.786,326.72l-0.003,80.221c-0.008,17.324 14.075,31.871 31.859,31.861c17.596,-0.007 31.864,-14.248 31.855,-31.859l0.002,-47.791l23.893,-0c4.399,-0.004 7.966,-3.567 7.965,-7.965l-0,-20.713c1.189,0.41 9.018,3.09 147.072,50.36c15.811,8.019 34.676,-3.445 34.672,-21.319l-0.001,-52.938l27.459,-13.73c2.699,-1.352 4.404,-4.106 4.404,-7.124l0,-31.857c0,-3.018 -1.716,-5.776 -4.405,-7.124l-27.455,-13.728l0.001,-58.771c0.001,-8.513 -4.37,-16.192 -11.689,-20.54c-0.087,-0.054 -0.174,-0.103 -0.262,-0.155c-7.124,-4.113 -15.638,-4.3 -22.93,-0.517l-156.371,62.761l-78.102,-0.001c-30.715,-0.005 -55.76,24.944 -55.75,55.751c-0.001,28.164 20.91,51.316 47.786,55.178Zm47.783,80.227c0.005,8.79 -7.119,15.921 -15.932,15.923c-8.845,0.006 -15.929,-7.224 -15.926,-15.927l0.004,-79.651l31.857,-0c-0.005,92.184 -0.005,78.178 -0.003,79.655Zm-0.496,-307.273l0,100.821c0,4.627 3.756,8.383 8.382,8.383c4.627,-0 8.383,-3.756 8.383,-8.383l-0,-32.998l57.941,0c3.085,0 5.589,-2.504 5.589,-5.588c-0,-3.084 -2.504,-5.588 -5.589,-5.588l-57.941,-0l-0,-19.616l383.398,0l-0,219.29c-0,5.37 -4.354,9.724 -9.724,9.724l-140.467,-0c-4.626,-0 -8.382,3.755 -8.382,8.382c-0,4.626 3.756,8.382 8.382,8.382l140.467,-0c14.629,-0 26.488,-11.859 26.488,-26.488l0,-256.321c0,-7.022 -2.789,-13.756 -7.755,-18.721c-4.965,-4.966 -11.699,-7.755 -18.721,-7.755l-363.974,0c-7.022,0 -13.757,2.789 -18.722,7.755c-4.965,4.965 -7.755,11.699 -7.755,18.721Zm202.321,67.58c3.599,-1.959 6.716,-0.576 7.888,0.143c1.17,0.694 3.893,2.754 3.893,6.842l-0.003,185.276c0.002,6.032 -6.458,9.886 -11.773,6.99c-0.953,-0.522 -1.485,-0.602 -4.153,-1.543l0.001,-195.982c3.103,-1.262 3.459,-1.35 4.147,-1.726Zm-20.078,8.12l-0.001,184.134l-133.958,-45.872l-0.001,-84.496l133.96,-53.766Zm-165.815,167.846l-0,-15.928l15.928,-0l0.001,15.928l-15.929,0Zm300.509,-17.676l-22.527,-22.526c-3.111,-3.111 -8.154,-3.113 -11.265,-0.001c-3.111,3.111 -3.108,8.152 0.003,11.263l22.53,22.527c3.128,3.132 8.172,3.088 11.262,0c3.111,-3.111 3.11,-8.155 -0.003,-11.263Zm-396.081,-54.002c-0.003,-6.989 1.831,-13.862 5.306,-19.881c7.103,-12.302 20.329,-19.941 34.515,-19.941l71.679,-0l0,79.643l-71.68,0.003c-21.958,-0.004 -39.82,-17.867 -39.82,-39.824Zm63.714,15.928c-0.001,-4.397 -3.566,-7.965 -7.964,-7.964l-15.929,-0c-4.39,0.001 -7.963,-3.574 -7.964,-7.964c-0.001,-4.398 -3.567,-7.965 -7.964,-7.965c-4.398,0.001 -7.966,3.567 -7.965,7.965c-0.001,13.111 10.661,23.89 23.893,23.893l15.929,-0c4.398,-0.001 7.964,-3.565 7.964,-7.965Zm23.893,7.964c4.396,0.002 7.963,-3.568 7.965,-7.964c-0.003,-4.395 -3.569,-7.962 -7.965,-7.964c-4.397,0.001 -7.966,3.569 -7.964,7.964c-0.002,4.396 3.567,7.965 7.964,7.964Zm237.499,-36.647l-0,22.014l-15.933,7.966l0.001,-37.946l15.932,7.966Zm116.249,-2.352l-50.782,-0.803c-4.397,-0.067 -8.021,3.441 -8.089,7.838c-0.071,4.392 3.431,8.02 7.839,8.09l50.779,0.801c4.4,0.069 8.022,-3.441 8.089,-7.839c0.072,-4.399 -3.438,-8.02 -7.836,-8.087Zm-56.531,-66.052l-22.536,22.525c-3.111,3.111 -3.111,8.152 -0.001,11.265c3.11,3.107 8.149,3.114 11.265,0.002l22.532,-22.527c3.111,-3.111 3.113,-8.154 0.002,-11.265c-3.109,-3.109 -8.151,-3.111 -11.262,0Zm-216.379,-34.835c3.511,0 6.361,2.85 6.361,6.361c-0,3.511 -2.85,6.361 -6.361,6.361c-3.511,0 -6.361,-2.85 -6.361,-6.361c-0,-3.511 2.85,-6.361 6.361,-6.361Zm310.862,-35.607l-0,-20.267c-0,-2.575 -1.024,-5.046 -2.845,-6.867c-1.821,-1.821 -4.291,-2.845 -6.867,-2.845l-363.974,0c-2.576,0 -5.046,1.024 -6.868,2.845c-1.821,1.821 -2.844,4.292 -2.844,6.867l-0,20.267l383.398,0Zm-352.773,-20.34c3.511,0 6.361,2.851 6.361,6.361c-0,3.511 -2.85,6.361 -6.361,6.361c-3.511,0 -6.361,-2.85 -6.361,-6.361c-0,-3.51 2.85,-6.361 6.361,-6.361Zm20.955,0c3.511,0 6.361,2.851 6.361,6.361c0,3.511 -2.85,6.361 -6.361,6.361c-3.51,0 -6.361,-2.85 -6.361,-6.361c0,-3.51 2.851,-6.361 6.361,-6.361Zm20.956,0c3.511,0 6.361,2.851 6.361,6.361c-0,3.511 -2.85,6.361 -6.361,6.361c-3.511,0 -6.361,-2.85 -6.361,-6.361c-0,-3.51 2.85,-6.361 6.361,-6.361Zm29.962,11.95l256.635,-0c3.085,-0 5.589,-2.504 5.589,-5.589c-0,-3.084 -2.504,-5.588 -5.589,-5.588l-256.635,0c-3.084,0 -5.588,2.504 -5.588,5.588c-0,3.085 2.504,5.589 5.588,5.589Z"/></svg>