<?xml version="1.0" encoding="utf-8"?>
<!-- Generator: Adobe Illustrator 24.0.0, SVG Export Plug-In . SVG Version: 6.00 Build 0)  -->
<svg version="1.1" id="Layer_1" xmlns="http://www.w3.org/2000/svg" xmlns:xlink="http://www.w3.org/1999/xlink" x="0px" y="0px"
	 viewBox="0 0 1080 1080" style="enable-background:new 0 0 1080 1080;" xml:space="preserve">
<style type="text/css">
	.st0{fill:#0A77BD;}
	.st1{fill:#FF9D00;}
	.st2{fill:none;}
	.st3{fill:url(#SVGID_1_);}
	.st4{fill:url(#SVGID_2_);}
	.st5{fill:url(#SVGID_3_);}
	.st6{fill:url(#SVGID_4_);}
	.st7{fill:url(#SVGID_5_);}
	.st8{fill:url(#SVGID_6_);}
	.st9{fill:url(#SVGID_7_);}
	.st10{fill:url(#SVGID_8_);}
	.st11{fill:url(#SVGID_9_);}
	.st12{fill:url(#SVGID_10_);}
	.st13{fill:url(#SVGID_11_);}
	.st14{fill:url(#SVGID_12_);}
	.st15{fill:url(#SVGID_13_);}
	.st16{fill:url(#SVGID_14_);}
	.st17{fill:url(#SVGID_15_);}
	.st18{fill:url(#SVGID_16_);}
	.st19{fill:url(#SVGID_17_);}
	.st20{fill:url(#SVGID_18_);}
	.st21{fill:url(#SVGID_19_);}
	.st22{fill:url(#SVGID_20_);}
	.st23{fill:url(#SVGID_21_);}
	.st24{fill:url(#SVGID_22_);}
	.st25{fill:url(#SVGID_23_);}
	.st26{fill:url(#SVGID_24_);}
	.st27{fill:url(#SVGID_25_);}
	.st28{fill:url(#SVGID_26_);}
	.st29{fill:url(#SVGID_27_);}
	.st30{fill:url(#SVGID_28_);}
	.st31{fill:url(#SVGID_29_);}
	.st32{fill:url(#SVGID_30_);}
	.st33{fill:url(#SVGID_31_);}
	.st34{fill:url(#SVGID_32_);}
	.st35{fill:url(#SVGID_33_);}
	.st36{fill:url(#SVGID_34_);}
	.st37{fill:url(#SVGID_35_);}
	.st38{fill:url(#SVGID_36_);}
</style>
<g>
	<g>
		<rect x="116.99" y="478.69" class="st0" width="70.89" height="70.89"/>
		<rect x="258.08" y="524.76" class="st0" width="70.89" height="70.89"/>
		<rect x="240.45" y="329.8" class="st1" width="70.89" height="70.89"/>
		<rect x="69.86" y="347.53" class="st0" width="35.45" height="35.45"/>
		<rect x="178.7" y="277.83" class="st0" width="35.45" height="35.45"/>
		<rect x="207.81" y="438.36" class="st1" width="70.89" height="70.89"/>
		<rect x="21.09" y="438.36" class="st1" width="40.33" height="40.33"/>
		<rect x="152.44" y="354.03" class="st0" width="70.89" height="70.89"/>
		<rect x="275.9" y="241.18" class="st0" width="70.89" height="70.89"/>
		<g>
			<path class="st2" d="M838.5,497.32c-36.46,0-66.19,29.73-66.19,66.19c0,36.46,29.73,66.19,66.19,66.19
				c36.46,0,66.19-29.73,66.19-66.19C904.69,527.06,874.96,497.32,838.5,497.32z M847.86,503.97c9.64,1.51,18.53,5.33,26.1,10.86
				c-7.61,12.98-17.58,24.09-27.93,34.75l-2.99-1.73C843.26,533.14,844.1,518.38,847.86,503.97z M829.14,503.97
				c3.77,14.41,4.6,29.17,4.83,43.89l-2.99,1.73c-10.36-10.66-20.33-21.77-27.93-34.75C810.61,509.3,819.5,505.48,829.14,503.97z
				 M789.82,528.05c12.27,7.19,22.87,16.49,32.99,26.24l-0.14,0.08v4.6c-14.66-0.23-29.36-1.07-43.72-4.82
				C780.47,544.51,784.29,535.62,789.82,528.05z M789.82,598.97c-5.53-7.57-9.35-16.46-10.87-26.1c14.36-3.75,29.06-4.59,43.72-4.82
				v4.6l0.14,0.08C812.69,582.48,802.09,591.78,789.82,598.97z M829.14,623.06c-9.64-1.51-18.53-5.33-26.1-10.86
				c7.61-12.98,17.58-24.09,27.93-34.75l2.99,1.73C833.74,593.89,832.9,608.64,829.14,623.06z M831.77,563.51
				c0-3.71,3.02-6.73,6.73-6.73c3.71,0,6.73,3.02,6.73,6.73c0,3.71-3.02,6.73-6.73,6.73C834.79,570.25,831.77,567.22,831.77,563.51z
				 M847.86,623.06c-3.77-14.41-4.6-29.17-4.83-43.89l2.99-1.73c10.36,10.66,20.32,21.77,27.93,34.75
				C866.39,617.72,857.5,621.54,847.86,623.06z M887.18,598.97c-12.27-7.19-22.86-16.49-32.99-26.24l0.14-0.08v-4.6
				c14.66,0.23,29.36,1.07,43.72,4.82C896.53,582.52,892.71,591.4,887.18,598.97z M898.04,554.15c-14.36,3.75-29.06,4.59-43.72,4.82
				v-4.6l-0.14-0.08c10.13-9.75,20.73-19.05,32.99-26.24C892.71,535.62,896.53,544.51,898.04,554.15z"/>
			<linearGradient id="SVGID_1_" gradientUnits="userSpaceOnUse" x1="300.663" y1="414.7071" x2="1039.92" y2="414.7071">
				<stop  offset="0" style="stop-color:#0A77BD"/>
				<stop  offset="1" style="stop-color:#12A3FF"/>
			</linearGradient>
			<path class="st3" d="M1057.7,490.88c-12.06-5.38-32.82-11.59-63.2-10.48c-0.94,0.03-1.85-0.39-2.41-1.14l-31.32-42.17
				c-1.46-1.97-0.11-4.76,2.34-4.83c11.96-0.38,40.39,0.39,64.39,5.36c-22.35-23.37-53.94-45.82-80.29-48.17
				c-40.65-3.62-170.74-19.17-170.74-19.17l0.09,0c-12.09-7.07-26.2-15.33-41.58-24.14c-49.7-29.24-103.53-59.49-160.84-80
				c-14.57-5.46-28.45-9.86-41.13-12.75c0,0,0,0.01-0.01,0.01c-33.58-8.72-53.11-13.46-88.74-12.2l-79.59-0.01v20.28h14.58
				c2.25,0,4.11,1.77,4.21,4.02l5.18,113.08c0.11,2.4-1.81,4.41-4.21,4.41h-19.77h-6.62h-70.89v70.89h70.89h13.94v70.89h-13.94
				v32.65h381.09c3.35-55.07,51.64-98.2,108.59-93.05c47.74,4.32,86,42.89,89.99,90.66c0.97,11.6-0.07,22.83-2.8,33.39
				c46-2.44,78.19-7,113.46-13.46c3.04-0.56,5.4-2.99,5.85-6.04C1056.26,555.37,1061.17,517.75,1057.7,490.88z M675.12,382.97H432.5
				c-1.27,0-2.36-0.94-2.54-2.2l-16.55-116.39c-0.22-1.54,0.98-2.92,2.54-2.92h71.86c51.48,0,145.33,48.17,199.74,78.76
				C680.07,350.38,674.46,369.15,675.12,382.97z"/>
			<linearGradient id="SVGID_2_" gradientUnits="userSpaceOnUse" x1="300.663" y1="563.5119" x2="1039.92" y2="563.5119">
				<stop  offset="0" style="stop-color:#0A77BD"/>
				<stop  offset="1" style="stop-color:#12A3FF"/>
			</linearGradient>
			<path class="st4" d="M838.5,473.41c-49.77,0-90.11,40.34-90.11,90.11c0,9.96,1.64,19.53,4.62,28.48
				c1.49,4.47,3.32,8.79,5.46,12.92c0,0,0,0.01,0.01,0.01c0.53,1.02,1.08,2.03,1.65,3.03c0.01,0.02,0.03,0.05,0.04,0.07
				c0.92,1.62,1.91,3.2,2.93,4.76c1.46,2.23,3,4.39,4.64,6.48c0.09,0.12,0.18,0.24,0.28,0.35c0.64,0.8,1.29,1.59,1.95,2.37
				c0.13,0.15,0.26,0.3,0.39,0.45c2.15,2.49,4.43,4.86,6.84,7.1c0.04,0.04,0.08,0.08,0.12,0.11c0.66,0.61,1.34,1.21,2.03,1.81
				c0.29,0.26,0.59,0.51,0.88,0.77c0.64,0.54,1.28,1.08,1.94,1.6c0.35,0.28,0.71,0.56,1.07,0.84c0.65,0.5,1.29,1,1.95,1.49
				c0.35,0.26,0.7,0.5,1.06,0.75c1.16,0.83,2.35,1.64,3.56,2.41c0.48,0.31,0.97,0.63,1.46,0.93c0.59,0.36,1.18,0.71,1.78,1.06
				c0.55,0.32,1.1,0.64,1.66,0.95c0.58,0.32,1.16,0.64,1.75,0.95c0.61,0.32,1.23,0.64,1.85,0.95c0.55,0.28,1.1,0.55,1.65,0.82
				c0.85,0.4,1.71,0.79,2.58,1.16c0.57,0.25,1.14,0.49,1.72,0.73c0.94,0.39,1.89,0.76,2.84,1.12c0.49,0.18,0.99,0.35,1.48,0.53
				c0.79,0.28,1.58,0.55,2.38,0.8c0.51,0.16,1.03,0.32,1.54,0.48c0.84,0.25,1.68,0.49,2.53,0.72c0.46,0.12,0.92,0.26,1.39,0.37
				c1.23,0.31,2.47,0.6,3.72,0.86c0.14,0.03,0.28,0.06,0.42,0.09c1.27,0.26,2.55,0.48,3.84,0.69c0.44,0.07,0.88,0.13,1.32,0.19
				c0.94,0.13,1.89,0.26,2.85,0.36c0.49,0.05,0.98,0.1,1.47,0.15c0.97,0.09,1.94,0.16,2.92,0.22c0.44,0.03,0.88,0.06,1.32,0.08
				c1.41,0.07,2.82,0.11,4.24,0.11c1.43,0,2.86-0.04,4.27-0.11c0.46-0.02,0.91-0.06,1.36-0.09c0.97-0.06,1.93-0.13,2.89-0.22
				c0.52-0.05,1.03-0.1,1.54-0.16c0.91-0.1,1.81-0.22,2.71-0.34c0.5-0.07,1.01-0.14,1.51-0.22c0.97-0.16,1.94-0.33,2.9-0.52
				c0.4-0.08,0.81-0.15,1.21-0.23c1.33-0.28,2.65-0.58,3.96-0.91c0.35-0.09,0.69-0.19,1.03-0.28c0.97-0.26,1.94-0.53,2.9-0.82
				c0.51-0.16,1.02-0.32,1.53-0.49c0.78-0.25,1.56-0.52,2.34-0.79c0.54-0.19,1.08-0.39,1.62-0.59c0.74-0.28,1.47-0.57,2.21-0.87
				c0.53-0.22,1.06-0.43,1.59-0.66c0.78-0.33,1.55-0.69,2.31-1.05c0.47-0.22,0.95-0.43,1.41-0.65c1.11-0.54,2.21-1.1,3.29-1.69
				c0.57-0.31,1.12-0.63,1.68-0.95c0.58-0.33,1.17-0.66,1.74-1c0.6-0.36,1.2-0.73,1.79-1.1c0.51-0.32,1.02-0.64,1.52-0.97
				c0.62-0.4,1.23-0.81,1.83-1.23c0.45-0.31,0.89-0.63,1.33-0.95c0.63-0.46,1.27-0.91,1.89-1.38c0.27-0.21,0.54-0.42,0.81-0.63
				c1.46-1.14,2.89-2.31,4.28-3.53c0.18-0.16,0.37-0.32,0.55-0.48c0.68-0.61,1.34-1.23,2-1.86c0.27-0.25,0.54-0.51,0.8-0.76
				c0.65-0.63,1.29-1.28,1.92-1.93c0.24-0.25,0.47-0.49,0.71-0.74c0.66-0.69,1.31-1.4,1.94-2.11c0.12-0.13,0.23-0.27,0.35-0.41
				c2.98-3.4,5.7-7.02,8.15-10.83c0.08-0.13,0.17-0.26,0.25-0.4c0.58-0.92,1.15-1.85,1.7-2.79c0.06-0.1,0.11-0.19,0.16-0.29
				c2.93-5.06,5.38-10.44,7.3-16.07c0.03-0.09,0.06-0.18,0.09-0.27c0.37-1.11,0.72-2.22,1.05-3.34c2.36-8.06,3.65-16.57,3.65-25.39
				C928.61,513.75,888.26,473.41,838.5,473.41z M838.5,629.7c-36.46,0-66.19-29.73-66.19-66.19c0-36.46,29.73-66.19,66.19-66.19
				c36.46,0,66.19,29.73,66.19,66.19C904.69,599.97,874.96,629.7,838.5,629.7z"/>
			<linearGradient id="SVGID_3_" gradientUnits="userSpaceOnUse" x1="300.663" y1="563.5121" x2="1039.92" y2="563.5121">
				<stop  offset="0" style="stop-color:#0A77BD"/>
				<stop  offset="1" style="stop-color:#12A3FF"/>
			</linearGradient>
			<path class="st5" d="M845.23,563.51c0-3.71-3.02-6.73-6.73-6.73c-3.71,0-6.73,3.02-6.73,6.73c0,3.71,3.02,6.73,6.73,6.73
				C842.21,570.25,845.23,567.22,845.23,563.51z"/>
			<linearGradient id="SVGID_4_" gradientUnits="userSpaceOnUse" x1="300.663" y1="583.1799" x2="1039.92" y2="583.1799">
				<stop  offset="0" style="stop-color:#0A77BD"/>
				<stop  offset="1" style="stop-color:#12A3FF"/>
			</linearGradient>
			<path class="st6" d="M358.05,570.7v24.96h70.89v-0.16l314.24-3.35c-2.07-6.87-3.44-14.04-3.97-21.45H358.05z"/>
			<linearGradient id="SVGID_5_" gradientUnits="userSpaceOnUse" x1="300.663" y1="543.514" x2="1039.92" y2="543.514">
				<stop  offset="0" style="stop-color:#0A77BD"/>
				<stop  offset="1" style="stop-color:#12A3FF"/>
			</linearGradient>
			<path class="st7" d="M822.67,554.38l0.14-0.08c-10.13-9.75-20.73-19.05-32.99-26.24c-5.53,7.57-9.35,16.46-10.86,26.1
				c14.36,3.75,29.06,4.59,43.72,4.82V554.38z"/>
			<linearGradient id="SVGID_6_" gradientUnits="userSpaceOnUse" x1="300.663" y1="583.5106" x2="1039.92" y2="583.5106">
				<stop  offset="0" style="stop-color:#0A77BD"/>
				<stop  offset="1" style="stop-color:#12A3FF"/>
			</linearGradient>
			<path class="st8" d="M822.67,572.65v-4.6c-14.66,0.23-29.36,1.07-43.72,4.82c1.51,9.64,5.33,18.53,10.87,26.1
				c12.27-7.19,22.86-16.49,32.99-26.24L822.67,572.65z"/>
			<linearGradient id="SVGID_7_" gradientUnits="userSpaceOnUse" x1="300.663" y1="526.7755" x2="1039.92" y2="526.7755">
				<stop  offset="0" style="stop-color:#0A77BD"/>
				<stop  offset="1" style="stop-color:#12A3FF"/>
			</linearGradient>
			<path class="st9" d="M833.97,547.86c-0.23-14.72-1.06-29.47-4.83-43.89c-9.64,1.51-18.53,5.33-26.1,10.86
				c7.61,12.98,17.58,24.09,27.93,34.75L833.97,547.86z"/>
			<linearGradient id="SVGID_8_" gradientUnits="userSpaceOnUse" x1="300.663" y1="526.7756" x2="1039.92" y2="526.7756">
				<stop  offset="0" style="stop-color:#0A77BD"/>
				<stop  offset="1" style="stop-color:#12A3FF"/>
			</linearGradient>
			<path class="st10" d="M873.96,514.83c-7.57-5.53-16.46-9.35-26.1-10.86c-3.77,14.41-4.6,29.17-4.83,43.89l2.99,1.73
				C856.38,538.92,866.35,527.81,873.96,514.83z"/>
			<linearGradient id="SVGID_9_" gradientUnits="userSpaceOnUse" x1="300.663" y1="600.2493" x2="1039.92" y2="600.2493">
				<stop  offset="0" style="stop-color:#0A77BD"/>
				<stop  offset="1" style="stop-color:#12A3FF"/>
			</linearGradient>
			<path class="st11" d="M803.04,612.19c7.57,5.53,16.46,9.35,26.1,10.86c3.77-14.41,4.6-29.17,4.83-43.89l-2.99-1.73
				C820.62,588.1,810.65,599.21,803.04,612.19z"/>
			<linearGradient id="SVGID_10_" gradientUnits="userSpaceOnUse" x1="300.663" y1="543.5142" x2="1039.92" y2="543.5142">
				<stop  offset="0" style="stop-color:#0A77BD"/>
				<stop  offset="1" style="stop-color:#12A3FF"/>
			</linearGradient>
			<path class="st12" d="M854.33,554.38v4.6c14.66-0.23,29.36-1.07,43.72-4.82c-1.51-9.64-5.33-18.53-10.86-26.1
				c-12.27,7.19-22.87,16.5-32.99,26.24L854.33,554.38z"/>
			<linearGradient id="SVGID_11_" gradientUnits="userSpaceOnUse" x1="300.663" y1="583.5114" x2="1039.92" y2="583.5114">
				<stop  offset="0" style="stop-color:#0A77BD"/>
				<stop  offset="1" style="stop-color:#12A3FF"/>
			</linearGradient>
			<path class="st13" d="M854.33,572.65l-0.14,0.08c10.13,9.75,20.73,19.05,32.99,26.24c5.53-7.57,9.35-16.46,10.87-26.1
				c-14.36-3.75-29.06-4.59-43.72-4.82V572.65z"/>
			<linearGradient id="SVGID_12_" gradientUnits="userSpaceOnUse" x1="300.663" y1="600.2496" x2="1039.92" y2="600.2496">
				<stop  offset="0" style="stop-color:#0A77BD"/>
				<stop  offset="1" style="stop-color:#12A3FF"/>
			</linearGradient>
			<path class="st14" d="M843.04,579.17c0.23,14.72,1.06,29.47,4.83,43.89c9.64-1.51,18.53-5.33,26.1-10.86
				c-7.61-12.98-17.58-24.09-27.93-34.75L843.04,579.17z"/>
		</g>
	</g>
	<g>
		<linearGradient id="SVGID_13_" gradientUnits="userSpaceOnUse" x1="99.464" y1="214.6056" x2="1030.4592" y2="214.6056">
			<stop  offset="0" style="stop-color:#FF9D00"/>
			<stop  offset="0.9721" style="stop-color:#FFCA00"/>
		</linearGradient>
		<path class="st15" d="M564.96,99.97c172.2,0,318.66,112.24,370.11,267.4c5.37,0.55,10.1,1,13.98,1.35
			c24.11,2.15,50.93,17.25,73.7,36.2c-16.86-92.02-61.07-176.72-128.64-244.28C806.2,72.71,689.3,24.29,564.96,24.29
			c-124.34,0-241.24,48.42-329.16,136.34c-11.04,11.04-21.45,22.53-31.23,34.44h105.49C378.46,135.85,467.6,99.97,564.96,99.97z"/>
		<linearGradient id="SVGID_14_" gradientUnits="userSpaceOnUse" x1="99.464" y1="655.3371" x2="1030.4592" y2="655.3371">
			<stop  offset="0" style="stop-color:#FF9D00"/>
			<stop  offset="0.9721" style="stop-color:#FFCA00"/>
		</linearGradient>
		<path class="st16" d="M939.65,609c-2.61,5.78-5.72,11.28-9.23,16.46c-7.41,19.89-16.41,39.02-26.83,57.23h2.61
			c27.33,0,51.83,9.58,69.43,26.71c18.3-34.13,32.22-70.4,41.45-108.12C993.77,604.72,969.44,607.32,939.65,609z"/>
		<linearGradient id="SVGID_15_" gradientUnits="userSpaceOnUse" x1="99.464" y1="690.0666" x2="1030.4592" y2="690.0666">
			<stop  offset="0" style="stop-color:#FF9D00"/>
			<stop  offset="0.9721" style="stop-color:#FFCA00"/>
		</linearGradient>
		<path class="st17" d="M205.88,641.52h-81.21c11.69,34.02,27.37,66.56,46.74,97.09c19.33-16.85,41.26-30.64,64.31-40.32
			C224.29,680.31,214.29,661.33,205.88,641.52z"/>
	</g>
	<g>
		<g>
			<g>
				<linearGradient id="SVGID_16_" gradientUnits="userSpaceOnUse" x1="614.5736" y1="892.0676" x2="956.6856" y2="892.0676">
					<stop  offset="0" style="stop-color:#FF9D00"/>
					<stop  offset="0.9721" style="stop-color:#FFCA00"/>
				</linearGradient>
				<path class="st18" d="M719.76,959.77h-59.2l39.22-107.74c7.62-20.94,30.86-37.98,51.8-37.98h123.68c7.11,0,15.01-5.79,17.6-12.9
					c2.59-7.11-1.09-12.9-8.21-12.9H722.99l21.55-59.2h161.66c39.76,0,60.33,32.34,45.86,72.1c-14.47,39.76-58.59,72.1-98.34,72.1
					H751.25L719.76,959.77z"/>
				<g>
					<linearGradient id="SVGID_17_" gradientUnits="userSpaceOnUse" x1="614.5736" y1="892.0676" x2="956.6856" y2="892.0676">
						<stop  offset="0" style="stop-color:#FF9D00"/>
						<stop  offset="0.9721" style="stop-color:#FFCA00"/>
					</linearGradient>
					<path class="st19" d="M614.57,1054.22v-61.14h20.88c6.96,0,12.21,1.48,15.75,4.43c3.54,2.95,5.31,7.41,5.31,13.38
						c0,6.02-1.8,10.6-5.39,13.73s-8.82,4.69-15.66,4.69h-8.42v24.91H614.57z M627.03,1018.07h7.11c3.1,0,5.5-0.5,7.19-1.49
						c1.7-0.99,2.54-2.84,2.54-5.53c0-2.57-0.8-4.34-2.41-5.31c-1.61-0.96-4.05-1.45-7.33-1.45h-7.11V1018.07z"/>
					<linearGradient id="SVGID_18_" gradientUnits="userSpaceOnUse" x1="614.5736" y1="892.0676" x2="956.6856" y2="892.0676">
						<stop  offset="0" style="stop-color:#FF9D00"/>
						<stop  offset="0.9721" style="stop-color:#FFCA00"/>
					</linearGradient>
					<path class="st20" d="M674.05,1055.09c-3.04,0-5.59-0.92-7.63-2.76c-2.05-1.84-3.07-4.78-3.07-8.82v-50.44h12.02v48.07
						c0,1.05,0.26,1.8,0.79,2.24c0.53,0.44,1.2,0.66,2.02,0.66c0.53,0,1.02-0.06,1.49-0.18c0.47-0.12,0.96-0.23,1.49-0.35v10.27
						c-1.29,0.47-2.54,0.8-3.77,1.01C676.15,1054.99,675.04,1055.09,674.05,1055.09z"/>
					<linearGradient id="SVGID_19_" gradientUnits="userSpaceOnUse" x1="614.5736" y1="892.0676" x2="956.6856" y2="892.0676">
						<stop  offset="0" style="stop-color:#FF9D00"/>
						<stop  offset="0.9721" style="stop-color:#FFCA00"/>
					</linearGradient>
					<path class="st21" d="M721.68,1014.57c-3.39-2.98-8.1-4.47-14.12-4.47c-3.74,0-7.22,0.48-10.44,1.45
						c-3.22,0.96-6.46,2.65-9.74,5.04l5.61,8.33c1.76-1.4,3.87-2.54,6.36-3.42c2.48-0.88,4.87-1.32,7.15-1.32
						c2.46,0,4.46,0.53,6.01,1.58c1.55,1.05,2.32,2.75,2.32,5.09v0.88h-12.28c-1.93,0-3.77,0.18-5.53,0.53
						c-1.75,0.35-3.33,0.94-4.74,1.76c-1.75,0.99-3.16,2.4-4.21,4.21c-1.05,1.81-1.58,3.98-1.58,6.49c0,2.87,0.73,5.39,2.19,7.59
						c1.46,2.19,3.45,3.87,5.96,5.04s5.35,1.76,8.51,1.76c1.93,0,3.82-0.37,5.66-1.1c1.84-0.73,3.54-1.96,5.09-3.68
						c0.35-0.39,0.69-0.83,1.01-1.3l0.79,5.2h11.05v-27.37C726.77,1021.64,725.07,1017.55,721.68,1014.57z M713.48,1041.15
						c-0.91,1.34-2.11,2.4-3.6,3.16c-1.49,0.76-3.14,1.14-4.96,1.14c-1.93,0-3.47-0.42-4.61-1.27s-1.71-2-1.71-3.47
						c0-0.64,0.13-1.23,0.4-1.75c0.26-0.53,0.63-0.97,1.1-1.32c0.58-0.41,1.23-0.69,1.93-0.83c0.7-0.14,1.46-0.22,2.28-0.22h10.53
						C714.84,1038.28,714.39,1039.8,713.48,1041.15z"/>
					<linearGradient id="SVGID_20_" gradientUnits="userSpaceOnUse" x1="614.5736" y1="892.0676" x2="956.6856" y2="892.0676">
						<stop  offset="0" style="stop-color:#FF9D00"/>
						<stop  offset="0.9721" style="stop-color:#FFCA00"/>
					</linearGradient>
					<path class="st22" d="M761.15,1020.36v-9.39h-9.21v-16.05l-12.19,6.49v9.56h-7.54v9.39h7.54v20.61c0,3.51,0.64,6.29,1.93,8.33
						c1.28,2.05,2.98,3.52,5.09,4.43c2.11,0.91,4.36,1.36,6.75,1.36c1.35,0,2.65-0.1,3.9-0.31c1.26-0.21,2.5-0.54,3.73-1.01v-9.21
						c-0.82,0.23-1.59,0.41-2.32,0.53c-0.73,0.12-1.39,0.18-1.97,0.18c-1.93,0-3.23-0.64-3.9-1.93c-0.67-1.29-1.01-3.22-1.01-5.79
						v-17.19H761.15z"/>
					<linearGradient id="SVGID_21_" gradientUnits="userSpaceOnUse" x1="614.5736" y1="892.0676" x2="956.6856" y2="892.0676">
						<stop  offset="0" style="stop-color:#FF9D00"/>
						<stop  offset="0.9721" style="stop-color:#FFCA00"/>
					</linearGradient>
					<path class="st23" d="M772.47,1054.22v-33.86h-7.46v-9.39h7.54v-4.21c0-3.86,0.64-6.85,1.93-8.99c1.28-2.13,2.99-3.6,5.13-4.39
						c2.13-0.79,4.43-1.18,6.89-1.18c1.87,0,3.49,0.16,4.87,0.48c1.37,0.32,2.68,0.78,3.9,1.36l-3.86,9.21
						c-0.53-0.29-1.1-0.54-1.71-0.74c-0.61-0.21-1.24-0.31-1.88-0.31c-1.23,0-2.08,0.42-2.54,1.27c-0.47,0.85-0.7,1.97-0.7,3.38
						v4.12h8.86v9.39h-8.86v33.86H772.47z"/>
					<linearGradient id="SVGID_22_" gradientUnits="userSpaceOnUse" x1="614.5736" y1="892.0676" x2="956.6856" y2="892.0676">
						<stop  offset="0" style="stop-color:#FF9D00"/>
						<stop  offset="0.9721" style="stop-color:#FFCA00"/>
					</linearGradient>
					<path class="st24" d="M819.31,1055.09c-4.21,0-7.98-0.96-11.32-2.9c-3.33-1.93-5.95-4.61-7.85-8.03
						c-1.9-3.42-2.85-7.3-2.85-11.62c0-4.39,0.95-8.27,2.85-11.67c1.9-3.39,4.5-6.04,7.81-7.94c3.3-1.9,7.09-2.85,11.36-2.85
						c4.21,0,7.97,0.96,11.27,2.89c3.3,1.93,5.91,4.58,7.81,7.94c1.9,3.36,2.85,7.24,2.85,11.62c0,4.33-0.95,8.19-2.85,11.58
						c-1.9,3.39-4.5,6.07-7.81,8.03C827.28,1054.11,823.52,1055.09,819.31,1055.09z M819.31,1044.57c2.11,0,3.89-0.47,5.35-1.4
						c1.46-0.93,2.57-2.31,3.33-4.12c0.76-1.81,1.14-3.98,1.14-6.49c0-2.57-0.38-4.74-1.14-6.49c-0.76-1.76-1.87-3.1-3.33-4.04
						c-1.46-0.93-3.24-1.4-5.35-1.4c-2.1,0-3.9,0.47-5.39,1.4c-1.49,0.94-2.63,2.28-3.42,4.04c-0.79,1.76-1.18,3.92-1.18,6.49
						c0,2.52,0.39,4.68,1.18,6.49c0.79,1.81,1.93,3.19,3.42,4.12C815.41,1044.1,817.21,1044.57,819.31,1044.57z"/>
					<linearGradient id="SVGID_23_" gradientUnits="userSpaceOnUse" x1="614.5736" y1="892.0676" x2="956.6856" y2="892.0676">
						<stop  offset="0" style="stop-color:#FF9D00"/>
						<stop  offset="0.9721" style="stop-color:#FFCA00"/>
					</linearGradient>
					<path class="st25" d="M876.95,1010.71c-1.34-0.41-2.75-0.61-4.21-0.61c-2.05,0-4.04,0.54-5.96,1.62
						c-1.93,1.08-3.53,2.59-4.78,4.52c-0.18,0.28-0.32,0.57-0.48,0.86v-6.12H849.4v43.25h12.02v-17.98c0-2.46,0.07-4.31,0.22-5.57
						c0.15-1.26,0.37-2.29,0.66-3.11c0.47-1.29,1.08-2.32,1.84-3.11c0.76-0.79,1.64-1.39,2.63-1.8c0.99-0.41,2.02-0.61,3.07-0.61
						c1.05,0,2.09,0.16,3.11,0.48c1.02,0.32,1.86,0.69,2.5,1.1l5.79-10.88C879.72,1011.79,878.29,1011.12,876.95,1010.71z"/>
					<linearGradient id="SVGID_24_" gradientUnits="userSpaceOnUse" x1="614.5736" y1="892.0676" x2="956.6856" y2="892.0676">
						<stop  offset="0" style="stop-color:#FF9D00"/>
						<stop  offset="0.9721" style="stop-color:#FFCA00"/>
					</linearGradient>
					<path class="st26" d="M950.46,1018.73c-1.11-2.54-2.84-4.62-5.17-6.23c-2.34-1.61-5.38-2.41-9.12-2.41
						c-2.28,0-4.55,0.5-6.8,1.49c-2.09,0.92-3.98,2.51-5.69,4.71c-0.17-0.25-0.32-0.54-0.5-0.77c-1.58-2.05-3.41-3.46-5.48-4.25
						c-2.08-0.79-4.17-1.18-6.27-1.18c-1.46,0-2.95,0.21-4.47,0.61c-1.52,0.41-2.98,1.14-4.39,2.19c-1.19,0.89-2.24,2.12-3.16,3.65
						v-5.58h-12.02v43.25h12.02v-21.4c0-2.81,0.29-5.1,0.88-6.89c0.58-1.78,1.46-3.13,2.63-4.04c1.17-0.91,2.63-1.36,4.39-1.36
						c2.05,0,3.62,0.74,4.74,2.24c1.11,1.49,1.67,3.73,1.67,6.71v24.74h12.02v-21.4c0-2.81,0.28-5.12,0.83-6.93
						c0.55-1.81,1.39-3.16,2.5-4.04c1.11-0.88,2.51-1.32,4.21-1.32c1.46,0,2.69,0.32,3.68,0.96c0.99,0.64,1.76,1.64,2.28,2.98
						c0.53,1.35,0.79,3.04,0.79,5.09v24.65h12.11v-27.55C952.12,1023.92,951.57,1021.28,950.46,1018.73z"/>
				</g>
			</g>
		</g>
		<g>
			<g>
				<linearGradient id="SVGID_25_" gradientUnits="userSpaceOnUse" x1="118.9539" y1="892.3743" x2="701.274" y2="892.3743">
					<stop  offset="0" style="stop-color:#0A77BD"/>
					<stop  offset="0.9979" style="stop-color:#12A3FF"/>
				</linearGradient>
				<path class="st27" d="M343.31,959.77h-118.4c-63.61,0-96.53-51.75-73.37-115.36s93.74-115.36,157.35-115.36h118.4l-21.55,59.2
					h-118.4c-30.97,0-65.33,25.19-76.61,56.16c-11.27,30.97,4.75,56.16,35.72,56.16h118.4L343.31,959.77z"/>
				<linearGradient id="SVGID_26_" gradientUnits="userSpaceOnUse" x1="118.9539" y1="892.3743" x2="701.274" y2="892.3743">
					<stop  offset="0" style="stop-color:#0A77BD"/>
					<stop  offset="0.9979" style="stop-color:#12A3FF"/>
				</linearGradient>
				<path class="st28" d="M545.75,958.25h-160.9l21.55-59.2h160.9c7.11,0,15.01-5.79,17.6-12.9c2.59-7.11-1.09-12.9-8.21-12.9
					h-89.56c-39.76,0-60.33-32.34-45.86-72.1c14.47-39.76,58.59-72.1,98.34-72.1h161.66l-21.55,59.2H518.07
					c-7.11,0-15.01,5.79-17.6,12.9c-2.59,7.11,1.09,12.9,8.21,12.9h89.56c39.76,0,60.33,32.34,45.86,72.1
					C629.62,925.9,585.5,958.25,545.75,958.25z"/>
				<g>
					<linearGradient id="SVGID_27_" gradientUnits="userSpaceOnUse" x1="118.9539" y1="892.3743" x2="701.274" y2="892.3743">
						<stop  offset="0" style="stop-color:#0A77BD"/>
						<stop  offset="0.9979" style="stop-color:#12A3FF"/>
					</linearGradient>
					<path class="st29" d="M148.52,1055.71c-5.85,0-11-1.34-15.44-4.04c-4.45-2.69-7.91-6.43-10.4-11.23
						c-2.49-4.79-3.73-10.41-3.73-16.84c0-6.43,1.24-12.03,3.73-16.8c2.48-4.76,5.95-8.49,10.4-11.19
						c4.44-2.69,9.59-4.04,15.44-4.04c6.61,0,12.29,1.65,17.06,4.96c4.77,3.31,8.2,7.85,10.31,13.64l-11.84,4.3
						c-1.23-3.45-3.17-6.13-5.83-8.03c-2.66-1.9-5.89-2.85-9.69-2.85c-3.45,0-6.46,0.81-9.04,2.41c-2.57,1.61-4.55,3.9-5.92,6.89
						c-1.37,2.98-2.06,6.55-2.06,10.7c0,4.15,0.69,7.73,2.06,10.75c1.37,3.01,3.35,5.32,5.92,6.93c2.57,1.61,5.58,2.41,9.04,2.41
						c3.8,0,7.03-0.96,9.69-2.89c2.66-1.93,4.61-4.59,5.83-7.98l11.84,4.3c-2.11,5.73-5.54,10.27-10.31,13.6
						C160.81,1054.04,155.12,1055.71,148.52,1055.71z"/>
					<linearGradient id="SVGID_28_" gradientUnits="userSpaceOnUse" x1="118.9539" y1="892.3743" x2="701.274" y2="892.3743">
						<stop  offset="0" style="stop-color:#0A77BD"/>
						<stop  offset="0.9979" style="stop-color:#12A3FF"/>
					</linearGradient>
					<path class="st30" d="M216.59,1014.57c-3.39-2.98-8.1-4.47-14.12-4.47c-3.74,0-7.22,0.48-10.44,1.45
						c-3.22,0.96-6.46,2.65-9.74,5.04l5.61,8.33c1.75-1.4,3.87-2.54,6.36-3.42c2.48-0.88,4.87-1.32,7.15-1.32
						c2.46,0,4.46,0.53,6.01,1.58c1.55,1.05,2.32,2.75,2.32,5.09v0.88h-12.28c-1.93,0-3.77,0.18-5.53,0.53
						c-1.76,0.35-3.33,0.94-4.74,1.76c-1.75,0.99-3.16,2.4-4.21,4.21c-1.05,1.81-1.58,3.98-1.58,6.49c0,2.87,0.73,5.39,2.19,7.59
						c1.46,2.19,3.45,3.87,5.97,5.04c2.51,1.17,5.35,1.76,8.51,1.76c1.93,0,3.82-0.37,5.66-1.1c1.84-0.73,3.54-1.96,5.09-3.68
						c0.35-0.39,0.69-0.83,1.01-1.3l0.79,5.2h11.05v-27.37C221.68,1021.64,219.98,1017.55,216.59,1014.57z M208.39,1041.15
						c-0.91,1.34-2.11,2.4-3.6,3.16c-1.49,0.76-3.14,1.14-4.96,1.14c-1.93,0-3.47-0.42-4.61-1.27c-1.14-0.85-1.71-2-1.71-3.47
						c0-0.64,0.13-1.23,0.39-1.75c0.26-0.53,0.63-0.97,1.1-1.32c0.58-0.41,1.23-0.69,1.93-0.83c0.7-0.14,1.46-0.22,2.28-0.22h10.53
						C209.74,1038.28,209.29,1039.8,208.39,1041.15z"/>
					<linearGradient id="SVGID_29_" gradientUnits="userSpaceOnUse" x1="118.9539" y1="892.3743" x2="701.274" y2="892.3743">
						<stop  offset="0" style="stop-color:#0A77BD"/>
						<stop  offset="0.9979" style="stop-color:#12A3FF"/>
					</linearGradient>
					<path class="st31" d="M231.32,1054.22v-43.25h12.11v11.76l-1.67,0.09c0.18-2.46,0.89-4.65,2.15-6.58
						c1.26-1.93,2.85-3.43,4.78-4.52c1.93-1.08,3.92-1.62,5.96-1.62c1.46,0,2.86,0.21,4.21,0.61c1.35,0.41,2.78,1.08,4.3,2.02
						l-5.79,10.88c-0.64-0.41-1.48-0.78-2.5-1.1c-1.02-0.32-2.06-0.48-3.11-0.48c-1.05,0-2.08,0.21-3.07,0.61
						c-1,0.41-1.87,1.01-2.63,1.8c-0.76,0.79-1.37,1.83-1.84,3.11c-0.29,0.82-0.51,1.86-0.66,3.11c-0.15,1.26-0.22,3.11-0.22,5.57
						v17.98H231.32z"/>
					<linearGradient id="SVGID_30_" gradientUnits="userSpaceOnUse" x1="118.9539" y1="892.3743" x2="701.274" y2="892.3743">
						<stop  offset="0" style="stop-color:#0A77BD"/>
						<stop  offset="0.9979" style="stop-color:#12A3FF"/>
					</linearGradient>
					<path class="st32" d="M313.25,1055.45c-6.67,0-12.12-1.73-16.36-5.18c-4.24-3.45-6.83-8.04-7.76-13.77l12.28-3.07
						c0.64,3.63,2.05,6.35,4.21,8.16c2.16,1.81,4.85,2.72,8.07,2.72c1.64,0,3.13-0.28,4.47-0.83c1.34-0.56,2.4-1.36,3.16-2.41
						c0.76-1.05,1.14-2.31,1.14-3.77c0-1.34-0.4-2.53-1.18-3.55c-0.79-1.02-2.03-1.97-3.73-2.85c-1.7-0.88-3.86-1.81-6.49-2.81
						c-3.98-1.58-7.28-3.26-9.91-5.04c-2.63-1.78-4.58-3.84-5.83-6.18c-1.26-2.34-1.89-5.06-1.89-8.16c0-3.33,0.82-6.29,2.46-8.86
						c1.64-2.57,3.93-4.59,6.89-6.05c2.95-1.46,6.39-2.19,10.31-2.19c4.21,0,7.92,0.97,11.14,2.9c3.22,1.93,5.82,4.83,7.81,8.69
						l-10,6.05c-1.17-2.11-2.54-3.71-4.12-4.83c-1.58-1.11-3.33-1.67-5.26-1.67c-1.23,0-2.34,0.23-3.33,0.7
						c-0.99,0.47-1.8,1.14-2.41,2.02c-0.61,0.88-0.92,1.87-0.92,2.98c0,1.17,0.35,2.24,1.05,3.2c0.7,0.96,1.92,1.92,3.64,2.85
						c1.72,0.93,4.02,1.96,6.89,3.07c3.86,1.4,7.06,2.97,9.61,4.69c2.54,1.73,4.47,3.73,5.79,6.01c1.32,2.28,1.97,5.03,1.97,8.25
						c0,3.68-0.91,6.96-2.72,9.83c-1.81,2.87-4.34,5.1-7.59,6.71C321.37,1054.64,317.58,1055.45,313.25,1055.45z"/>
					<linearGradient id="SVGID_31_" gradientUnits="userSpaceOnUse" x1="118.9539" y1="892.3743" x2="701.274" y2="892.3743">
						<stop  offset="0" style="stop-color:#0A77BD"/>
						<stop  offset="0.9979" style="stop-color:#12A3FF"/>
					</linearGradient>
					<path class="st33" d="M380.84,1023.69c-0.85-2.75-2.12-5.13-3.82-7.15c-1.7-2.02-3.82-3.6-6.36-4.74
						c-2.54-1.14-5.48-1.71-8.82-1.71c-3.74,0-6.96,0.66-9.65,1.97c-2.69,1.32-4.85,3.07-6.49,5.26c-1.64,2.19-2.85,4.64-3.64,7.32
						c-0.79,2.69-1.18,5.41-1.18,8.16c0,2.87,0.39,5.63,1.18,8.29c0.79,2.66,2.05,5.04,3.77,7.15c1.72,2.11,3.98,3.77,6.75,5
						c2.78,1.23,6.1,1.84,9.96,1.84c2.51,0,4.75-0.21,6.71-0.62c1.96-0.41,3.86-1.08,5.7-2.02c1.84-0.93,3.84-2.16,6.01-3.68
						l-5.53-8.42c-1.64,1.4-3.54,2.49-5.7,3.25c-2.16,0.76-4.33,1.14-6.49,1.14c-2.69,0-5-0.66-6.93-1.97
						c-1.93-1.32-3.07-3.32-3.42-6.01h28.95c0.12-0.88,0.19-1.67,0.22-2.37c0.03-0.7,0.04-1.32,0.04-1.84
						C382.12,1029.39,381.69,1026.44,380.84,1023.69z M352.73,1027.81c0.18-1.23,0.6-2.43,1.27-3.6c0.67-1.17,1.67-2.15,2.98-2.94
						c1.32-0.79,3-1.18,5.04-1.18c1.29,0,2.46,0.19,3.51,0.57c1.05,0.38,1.96,0.92,2.72,1.62c0.76,0.7,1.36,1.54,1.8,2.5
						c0.42,0.91,0.62,1.93,0.64,3.03H352.73z"/>
					<linearGradient id="SVGID_32_" gradientUnits="userSpaceOnUse" x1="118.9539" y1="892.3743" x2="701.274" y2="892.3743">
						<stop  offset="0" style="stop-color:#0A77BD"/>
						<stop  offset="0.9979" style="stop-color:#12A3FF"/>
					</linearGradient>
					<path class="st34" d="M417.99,1010.71c-1.35-0.41-2.75-0.61-4.21-0.61c-2.05,0-4.04,0.54-5.96,1.62
						c-1.93,1.08-3.52,2.59-4.78,4.52c-0.18,0.28-0.32,0.57-0.48,0.86v-6.12h-12.11v43.25h12.02v-17.98c0-2.46,0.07-4.31,0.22-5.57
						c0.15-1.26,0.36-2.29,0.66-3.11c0.47-1.29,1.08-2.32,1.84-3.11c0.76-0.79,1.64-1.39,2.63-1.8c0.99-0.41,2.02-0.61,3.07-0.61
						c1.05,0,2.09,0.16,3.11,0.48c1.02,0.32,1.86,0.69,2.5,1.1l5.79-10.88C420.77,1011.79,419.34,1011.12,417.99,1010.71z"/>
					<linearGradient id="SVGID_33_" gradientUnits="userSpaceOnUse" x1="118.9539" y1="892.3743" x2="701.274" y2="892.3743">
						<stop  offset="0" style="stop-color:#0A77BD"/>
						<stop  offset="0.9979" style="stop-color:#12A3FF"/>
					</linearGradient>
					<path class="st35" d="M442.12,1054.22l-17.63-43.25h13.16l9.39,27.55l9.56-27.55h12.98l-17.63,43.25H442.12z"/>
					<linearGradient id="SVGID_34_" gradientUnits="userSpaceOnUse" x1="118.9539" y1="892.3743" x2="701.274" y2="892.3743">
						<stop  offset="0" style="stop-color:#0A77BD"/>
						<stop  offset="0.9979" style="stop-color:#12A3FF"/>
					</linearGradient>
					<path class="st36" d="M475.45,1004.65v-11.58h12.54v11.58H475.45z M475.63,1054.22v-43.25h12.02v43.25H475.63z"/>
					<linearGradient id="SVGID_35_" gradientUnits="userSpaceOnUse" x1="118.9539" y1="892.3743" x2="701.274" y2="892.3743">
						<stop  offset="0" style="stop-color:#0A77BD"/>
						<stop  offset="0.9979" style="stop-color:#12A3FF"/>
					</linearGradient>
					<path class="st37" d="M517.21,1055.09c-3.63,0-6.77-0.63-9.43-1.89c-2.66-1.26-4.88-2.95-6.67-5.09
						c-1.78-2.13-3.11-4.55-3.99-7.24c-0.88-2.69-1.32-5.47-1.32-8.33c0-2.86,0.44-5.64,1.32-8.33c0.88-2.69,2.21-5.09,3.99-7.19
						c1.78-2.11,4-3.79,6.67-5.05c2.66-1.26,5.8-1.88,9.43-1.88c4.44,0,8.3,1.05,11.58,3.16c3.27,2.1,5.73,5.35,7.37,9.74
						l-10.53,4.21c-0.64-1.99-1.62-3.6-2.94-4.82c-1.32-1.23-3.14-1.84-5.48-1.84c-2.22,0-4.02,0.59-5.39,1.75
						c-1.37,1.17-2.38,2.68-3.03,4.52c-0.64,1.84-0.97,3.76-0.97,5.74c0,1.99,0.32,3.92,0.97,5.79c0.64,1.87,1.65,3.39,3.03,4.56
						c1.37,1.17,3.17,1.76,5.39,1.76c2.34,0,4.17-0.62,5.48-1.84c1.32-1.23,2.29-2.84,2.94-4.83l10.53,4.21
						c-1.64,4.33-4.09,7.56-7.37,9.69C525.51,1054.03,521.65,1055.09,517.21,1055.09z"/>
					<linearGradient id="SVGID_36_" gradientUnits="userSpaceOnUse" x1="118.9539" y1="892.3743" x2="701.274" y2="892.3743">
						<stop  offset="0" style="stop-color:#0A77BD"/>
						<stop  offset="0.9979" style="stop-color:#12A3FF"/>
					</linearGradient>
					<path class="st38" d="M581.72,1023.69c-0.85-2.75-2.12-5.13-3.82-7.15c-1.7-2.02-3.82-3.6-6.36-4.74
						c-2.54-1.14-5.48-1.71-8.82-1.71c-3.74,0-6.96,0.66-9.65,1.97c-2.69,1.32-4.85,3.07-6.49,5.26c-1.64,2.19-2.85,4.64-3.64,7.32
						c-0.79,2.69-1.18,5.41-1.18,8.16c0,2.87,0.39,5.63,1.18,8.29c0.79,2.66,2.05,5.04,3.77,7.15c1.72,2.11,3.98,3.77,6.75,5
						c2.78,1.23,6.1,1.84,9.96,1.84c2.51,0,4.75-0.21,6.71-0.62c1.96-0.41,3.86-1.08,5.7-2.02c1.84-0.93,3.84-2.16,6.01-3.68
						l-5.53-8.42c-1.64,1.4-3.54,2.49-5.7,3.25c-2.16,0.76-4.33,1.14-6.49,1.14c-2.69,0-5-0.66-6.93-1.97
						c-1.93-1.32-3.07-3.32-3.42-6.01h28.95c0.12-0.88,0.19-1.67,0.22-2.37c0.03-0.7,0.04-1.32,0.04-1.84
						C583,1029.39,582.57,1026.44,581.72,1023.69z M553.61,1027.81c0.18-1.23,0.6-2.43,1.27-3.6c0.67-1.17,1.67-2.15,2.98-2.94
						c1.32-0.79,3-1.18,5.04-1.18c1.29,0,2.46,0.19,3.51,0.57c1.05,0.38,1.96,0.92,2.72,1.62c0.76,0.7,1.36,1.54,1.8,2.5
						c0.42,0.91,0.62,1.93,0.64,3.03H553.61z"/>
				</g>
			</g>
		</g>
	</g>
</g>
</svg>
