<?xml version="1.0" encoding="utf-8"?>
<!-- Generator: Adobe Illustrator 24.0.0, SVG Export Plug-In . SVG Version: 6.00 Build 0)  -->
<svg version="1.1" id="Layer_1" xmlns="http://www.w3.org/2000/svg" xmlns:xlink="http://www.w3.org/1999/xlink" x="0px" y="0px"
	 viewBox="0 0 1080 440" style="enable-background:new 0 0 1080 440;" xml:space="preserve">
<style type="text/css">
	.st0{fill:url(#SVGID_1_);}
	.st1{fill:url(#SVGID_2_);}
	.st2{fill:url(#SVGID_3_);}
	.st3{fill:url(#SVGID_4_);}
	.st4{fill:url(#SVGID_5_);}
	.st5{fill:url(#SVGID_6_);}
	.st6{fill:url(#SVGID_7_);}
	.st7{fill:url(#SVGID_8_);}
	.st8{fill:url(#SVGID_9_);}
	.st9{fill:url(#SVGID_10_);}
	.st10{fill:url(#SVGID_11_);}
	.st11{fill:url(#SVGID_12_);}
	.st12{fill:url(#SVGID_13_);}
	.st13{fill:url(#SVGID_14_);}
	.st14{fill:url(#SVGID_15_);}
	.st15{fill:url(#SVGID_16_);}
	.st16{fill:url(#SVGID_17_);}
	.st17{fill:url(#SVGID_18_);}
	.st18{fill:url(#SVGID_19_);}
	.st19{fill:url(#SVGID_20_);}
	.st20{fill:url(#SVGID_21_);}
	.st21{fill:#0A77BD;}
	.st22{fill:#FF9D00;}
	.st23{fill:none;}
	.st24{fill:url(#SVGID_22_);}
	.st25{fill:url(#SVGID_23_);}
	.st26{fill:url(#SVGID_24_);}
	.st27{fill:url(#SVGID_25_);}
	.st28{fill:url(#SVGID_26_);}
	.st29{fill:url(#SVGID_27_);}
	.st30{fill:url(#SVGID_28_);}
	.st31{fill:url(#SVGID_29_);}
	.st32{fill:url(#SVGID_30_);}
	.st33{fill:url(#SVGID_31_);}
	.st34{fill:url(#SVGID_32_);}
	.st35{fill:url(#SVGID_33_);}
	.st36{fill:url(#SVGID_34_);}
	.st37{fill:url(#SVGID_35_);}
</style>
<g>
	<g>
		<g>
			<g>
				<linearGradient id="SVGID_1_" gradientUnits="userSpaceOnUse" x1="836.3335" y1="245.1624" x2="1065" y2="245.1624">
					<stop  offset="0" style="stop-color:#FF9D00"/>
					<stop  offset="0.9721" style="stop-color:#FFCA00"/>
				</linearGradient>
				<path class="st0" d="M906.64,290.41h-39.57l26.21-72.02c5.09-14,20.63-25.38,34.62-25.38h82.67c4.75,0,10.03-3.87,11.76-8.62
					c1.73-4.75-0.73-8.62-5.49-8.62H908.8l14.4-39.57h108.05c26.57,0,40.32,21.62,30.65,48.19c-9.67,26.57-39.16,48.19-65.73,48.19
					h-68.48L906.64,290.41z"/>
				<g>
					<linearGradient id="SVGID_2_" gradientUnits="userSpaceOnUse" x1="836.3335" y1="245.1624" x2="1065" y2="245.1624">
						<stop  offset="0" style="stop-color:#FF9D00"/>
						<stop  offset="0.9721" style="stop-color:#FFCA00"/>
					</linearGradient>
					<path class="st1" d="M836.33,353.54v-40.87h13.95c4.65,0,8.16,0.99,10.53,2.96c2.36,1.97,3.55,4.95,3.55,8.94
						c0,4.03-1.2,7.09-3.61,9.18c-2.4,2.09-5.89,3.14-10.47,3.14h-5.63v16.65H836.33z M844.66,329.39h4.75c2.07,0,3.68-0.33,4.81-1
						c1.13-0.66,1.7-1.9,1.7-3.69c0-1.72-0.54-2.9-1.61-3.55c-1.08-0.64-2.71-0.97-4.9-0.97h-4.75V329.39z"/>
					<linearGradient id="SVGID_3_" gradientUnits="userSpaceOnUse" x1="836.3335" y1="245.1624" x2="1065" y2="245.1624">
						<stop  offset="0" style="stop-color:#FF9D00"/>
						<stop  offset="0.9721" style="stop-color:#FFCA00"/>
					</linearGradient>
					<path class="st2" d="M876.09,354.13c-2.03,0-3.73-0.62-5.1-1.85s-2.05-3.19-2.05-5.89v-33.71h8.03v32.13
						c0,0.7,0.18,1.2,0.53,1.49c0.35,0.29,0.8,0.44,1.35,0.44c0.35,0,0.68-0.04,1-0.12c0.31-0.08,0.64-0.16,1-0.23v6.86
						c-0.86,0.31-1.7,0.54-2.52,0.67C877.49,354.06,876.75,354.13,876.09,354.13z"/>
					<linearGradient id="SVGID_4_" gradientUnits="userSpaceOnUse" x1="836.3335" y1="245.1624" x2="1065" y2="245.1624">
						<stop  offset="0" style="stop-color:#FF9D00"/>
						<stop  offset="0.9721" style="stop-color:#FFCA00"/>
					</linearGradient>
					<path class="st3" d="M907.92,327.04c-2.27-1.99-5.41-2.99-9.44-2.99c-2.5,0-4.83,0.32-6.98,0.97
						c-2.15,0.64-4.32,1.77-6.51,3.37l3.75,5.57c1.17-0.94,2.59-1.7,4.25-2.29c1.66-0.59,3.25-0.88,4.78-0.88
						c1.64,0,2.98,0.35,4.02,1.05c1.03,0.7,1.55,1.84,1.55,3.4v0.59h-8.21c-1.29,0-2.52,0.12-3.69,0.35
						c-1.17,0.23-2.23,0.63-3.17,1.17c-1.17,0.66-2.11,1.6-2.81,2.81c-0.7,1.21-1.05,2.66-1.05,4.34c0,1.92,0.49,3.61,1.47,5.07
						c0.98,1.47,2.31,2.59,3.99,3.37c1.68,0.78,3.58,1.17,5.69,1.17c1.29,0,2.55-0.24,3.78-0.73c1.23-0.49,2.36-1.31,3.4-2.46
						c0.24-0.26,0.46-0.56,0.68-0.87l0.53,3.48h7.39v-18.29C911.32,331.77,910.19,329.03,907.92,327.04z M902.44,344.81
						c-0.61,0.9-1.41,1.6-2.4,2.11c-1,0.51-2.1,0.76-3.31,0.76c-1.29,0-2.32-0.28-3.08-0.85c-0.76-0.57-1.14-1.34-1.14-2.32
						c0-0.43,0.09-0.82,0.26-1.17c0.18-0.35,0.42-0.65,0.73-0.88c0.39-0.27,0.82-0.46,1.29-0.56c0.47-0.1,0.98-0.15,1.52-0.15h7.04
						C903.35,342.89,903.05,343.91,902.44,344.81z"/>
					<linearGradient id="SVGID_5_" gradientUnits="userSpaceOnUse" x1="836.3335" y1="245.1624" x2="1065" y2="245.1624">
						<stop  offset="0" style="stop-color:#FF9D00"/>
						<stop  offset="0.9721" style="stop-color:#FFCA00"/>
					</linearGradient>
					<path class="st4" d="M934.31,330.91v-6.27h-6.16v-10.73l-8.15,4.34v6.39h-5.04v6.27H920v13.78c0,2.35,0.43,4.2,1.29,5.57
						c0.86,1.37,1.99,2.35,3.4,2.96c1.41,0.61,2.91,0.91,4.51,0.91c0.9,0,1.77-0.07,2.61-0.21c0.84-0.14,1.67-0.36,2.49-0.67v-6.16
						c-0.55,0.16-1.07,0.27-1.55,0.35c-0.49,0.08-0.93,0.12-1.32,0.12c-1.29,0-2.16-0.43-2.61-1.29c-0.45-0.86-0.67-2.15-0.67-3.87
						v-11.49H934.31z"/>
					<linearGradient id="SVGID_6_" gradientUnits="userSpaceOnUse" x1="836.3335" y1="245.1624" x2="1065" y2="245.1624">
						<stop  offset="0" style="stop-color:#FF9D00"/>
						<stop  offset="0.9721" style="stop-color:#FFCA00"/>
					</linearGradient>
					<path class="st5" d="M941.87,353.54v-22.63h-4.98v-6.27h5.04v-2.81c0-2.58,0.43-4.58,1.29-6.01c0.86-1.43,2-2.4,3.43-2.93
						c1.43-0.53,2.96-0.79,4.6-0.79c1.25,0,2.34,0.11,3.25,0.32c0.92,0.21,1.79,0.52,2.61,0.91l-2.58,6.16
						c-0.35-0.2-0.73-0.36-1.14-0.5c-0.41-0.14-0.83-0.21-1.26-0.21c-0.82,0-1.39,0.28-1.7,0.85c-0.31,0.57-0.47,1.32-0.47,2.26
						v2.76h5.92v6.27h-5.92v22.63H941.87z"/>
					<linearGradient id="SVGID_7_" gradientUnits="userSpaceOnUse" x1="836.3335" y1="245.1624" x2="1065" y2="245.1624">
						<stop  offset="0" style="stop-color:#FF9D00"/>
						<stop  offset="0.9721" style="stop-color:#FFCA00"/>
					</linearGradient>
					<path class="st6" d="M973.18,354.13c-2.81,0-5.33-0.64-7.56-1.94c-2.23-1.29-3.98-3.08-5.25-5.36
						c-1.27-2.29-1.91-4.88-1.91-7.77c0-2.93,0.63-5.53,1.91-7.8c1.27-2.27,3.01-4.04,5.22-5.31c2.21-1.27,4.74-1.91,7.59-1.91
						c2.81,0,5.33,0.64,7.53,1.93c2.21,1.29,3.95,3.06,5.22,5.31c1.27,2.25,1.91,4.84,1.91,7.77c0,2.89-0.64,5.47-1.91,7.74
						c-1.27,2.27-3.01,4.06-5.22,5.36C978.51,353.47,976,354.13,973.18,354.13z M973.18,347.09c1.41,0,2.6-0.31,3.58-0.94
						c0.98-0.62,1.72-1.54,2.23-2.76c0.51-1.21,0.76-2.66,0.76-4.34c0-1.72-0.25-3.17-0.76-4.34c-0.51-1.17-1.25-2.07-2.23-2.7
						c-0.98-0.62-2.17-0.94-3.58-0.94c-1.41,0-2.61,0.31-3.61,0.94c-1,0.63-1.76,1.52-2.29,2.7c-0.53,1.17-0.79,2.62-0.79,4.34
						c0,1.68,0.26,3.13,0.79,4.34c0.53,1.21,1.29,2.13,2.29,2.76C970.57,346.78,971.77,347.09,973.18,347.09z"/>
					<linearGradient id="SVGID_8_" gradientUnits="userSpaceOnUse" x1="836.3335" y1="245.1624" x2="1065" y2="245.1624">
						<stop  offset="0" style="stop-color:#FF9D00"/>
						<stop  offset="0.9721" style="stop-color:#FFCA00"/>
					</linearGradient>
					<path class="st7" d="M1011.7,324.46c-0.9-0.27-1.84-0.41-2.81-0.41c-1.37,0-2.7,0.36-3.99,1.08c-1.29,0.72-2.36,1.73-3.2,3.02
						c-0.12,0.18-0.22,0.38-0.32,0.57v-4.09h-8.09v28.91h8.03v-12.02c0-1.64,0.05-2.88,0.15-3.72c0.1-0.84,0.24-1.53,0.44-2.08
						c0.31-0.86,0.72-1.55,1.23-2.08c0.51-0.53,1.09-0.93,1.76-1.2c0.66-0.27,1.35-0.41,2.05-0.41c0.7,0,1.4,0.11,2.08,0.32
						s1.24,0.46,1.67,0.73l3.87-7.27C1013.56,325.18,1012.6,324.73,1011.7,324.46z"/>
					<linearGradient id="SVGID_9_" gradientUnits="userSpaceOnUse" x1="836.3335" y1="245.1624" x2="1065" y2="245.1624">
						<stop  offset="0" style="stop-color:#FF9D00"/>
						<stop  offset="0.9721" style="stop-color:#FFCA00"/>
					</linearGradient>
					<path class="st8" d="M1060.84,329.82c-0.74-1.7-1.9-3.09-3.46-4.16c-1.56-1.07-3.6-1.61-6.1-1.61c-1.53,0-3.04,0.33-4.54,1
						c-1.4,0.62-2.66,1.68-3.8,3.15c-0.11-0.17-0.21-0.36-0.33-0.51c-1.06-1.37-2.28-2.32-3.67-2.84c-1.39-0.53-2.78-0.79-4.19-0.79
						c-0.98,0-1.97,0.14-2.99,0.41c-1.02,0.27-1.99,0.76-2.93,1.47c-0.8,0.6-1.5,1.42-2.11,2.44v-3.73h-8.03v28.91h8.03v-14.31
						c0-1.88,0.2-3.41,0.59-4.6c0.39-1.19,0.98-2.09,1.76-2.7c0.78-0.61,1.76-0.91,2.93-0.91c1.37,0,2.42,0.5,3.17,1.49
						c0.74,1,1.11,2.49,1.11,4.49v16.53h8.03v-14.31c0-1.88,0.18-3.42,0.56-4.63c0.37-1.21,0.93-2.11,1.67-2.7
						c0.74-0.59,1.68-0.88,2.81-0.88c0.98,0,1.8,0.21,2.46,0.64c0.66,0.43,1.17,1.1,1.52,1.99c0.35,0.9,0.53,2.03,0.53,3.4v16.48
						h8.09v-18.41C1061.95,333.29,1061.58,331.53,1060.84,329.82z"/>
				</g>
			</g>
		</g>
		<g>
			<g>
				<linearGradient id="SVGID_10_" gradientUnits="userSpaceOnUse" x1="505.063" y1="245.3674" x2="894.2838" y2="245.3674">
					<stop  offset="0" style="stop-color:#0A77BD"/>
					<stop  offset="0.9979" style="stop-color:#12A3FF"/>
				</linearGradient>
				<path class="st9" d="M655.02,290.41h-79.14c-42.52,0-64.52-34.59-49.04-77.11c15.48-42.52,62.66-77.11,105.17-77.11h79.14
					l-14.4,39.57h-79.14c-20.7,0-43.67,16.84-51.2,37.54s3.18,37.54,23.88,37.54h79.14L655.02,290.41z"/>
				<linearGradient id="SVGID_11_" gradientUnits="userSpaceOnUse" x1="505.063" y1="245.3674" x2="894.2838" y2="245.3674">
					<stop  offset="0" style="stop-color:#0A77BD"/>
					<stop  offset="0.9979" style="stop-color:#12A3FF"/>
				</linearGradient>
				<path class="st10" d="M790.33,289.4H682.78l14.4-39.57h107.55c4.75,0,10.03-3.87,11.76-8.62c1.73-4.75-0.73-8.62-5.49-8.62
					h-59.86c-26.57,0-40.32-21.62-30.65-48.19c9.67-26.57,39.16-48.19,65.73-48.19h108.05l-14.4,39.57H771.83
					c-4.75,0-10.03,3.87-11.76,8.62c-1.73,4.75,0.73,8.62,5.49,8.62h59.86c26.57,0,40.32,21.62,30.65,48.19
					S816.9,289.4,790.33,289.4z"/>
				<g>
					<linearGradient id="SVGID_12_" gradientUnits="userSpaceOnUse" x1="505.063" y1="245.3674" x2="894.2838" y2="245.3674">
						<stop  offset="0" style="stop-color:#0A77BD"/>
						<stop  offset="0.9979" style="stop-color:#12A3FF"/>
					</linearGradient>
					<path class="st11" d="M524.82,354.54c-3.91,0-7.35-0.9-10.32-2.7c-2.97-1.8-5.29-4.3-6.95-7.5c-1.66-3.2-2.49-6.96-2.49-11.26
						s0.83-8.04,2.49-11.23c1.66-3.18,3.98-5.68,6.95-7.48c2.97-1.8,6.41-2.7,10.32-2.7c4.42,0,8.22,1.11,11.4,3.31
						c3.19,2.21,5.48,5.25,6.89,9.12l-7.92,2.87c-0.82-2.31-2.12-4.09-3.9-5.37c-1.78-1.27-3.94-1.91-6.48-1.91
						c-2.31,0-4.32,0.54-6.04,1.61c-1.72,1.08-3.04,2.61-3.96,4.6c-0.92,1.99-1.38,4.38-1.38,7.15c0,2.77,0.46,5.17,1.38,7.18
						c0.92,2.01,2.24,3.56,3.96,4.63c1.72,1.08,3.73,1.61,6.04,1.61c2.54,0,4.7-0.64,6.48-1.93c1.78-1.29,3.08-3.07,3.9-5.34
						l7.92,2.87c-1.41,3.83-3.7,6.86-6.89,9.09C533.04,353.42,529.24,354.54,524.82,354.54z"/>
					<linearGradient id="SVGID_13_" gradientUnits="userSpaceOnUse" x1="505.063" y1="245.3674" x2="894.2838" y2="245.3674">
						<stop  offset="0" style="stop-color:#0A77BD"/>
						<stop  offset="0.9979" style="stop-color:#12A3FF"/>
					</linearGradient>
					<path class="st12" d="M570.32,327.04c-2.27-1.99-5.41-2.99-9.44-2.99c-2.5,0-4.83,0.32-6.98,0.97
						c-2.15,0.64-4.32,1.77-6.51,3.37l3.75,5.57c1.17-0.94,2.59-1.7,4.25-2.29c1.66-0.59,3.25-0.88,4.78-0.88
						c1.64,0,2.98,0.35,4.02,1.05c1.04,0.7,1.55,1.84,1.55,3.4v0.59h-8.21c-1.29,0-2.52,0.12-3.69,0.35
						c-1.17,0.23-2.23,0.63-3.17,1.17c-1.17,0.66-2.11,1.6-2.81,2.81c-0.7,1.21-1.06,2.66-1.06,4.34c0,1.92,0.49,3.61,1.47,5.07
						c0.98,1.47,2.31,2.59,3.99,3.37c1.68,0.78,3.58,1.17,5.69,1.17c1.29,0,2.55-0.24,3.78-0.73c1.23-0.49,2.36-1.31,3.4-2.46
						c0.24-0.26,0.46-0.56,0.68-0.87l0.53,3.48h7.39v-18.29C573.72,331.77,572.59,329.03,570.32,327.04z M564.84,344.81
						c-0.61,0.9-1.41,1.6-2.4,2.11c-1,0.51-2.1,0.76-3.31,0.76c-1.29,0-2.32-0.28-3.08-0.85c-0.76-0.57-1.14-1.34-1.14-2.32
						c0-0.43,0.09-0.82,0.26-1.17c0.18-0.35,0.42-0.65,0.73-0.88c0.39-0.27,0.82-0.46,1.29-0.56c0.47-0.1,0.98-0.15,1.52-0.15h7.04
						C565.75,342.89,565.44,343.91,564.84,344.81z"/>
					<linearGradient id="SVGID_14_" gradientUnits="userSpaceOnUse" x1="505.063" y1="245.3674" x2="894.2838" y2="245.3674">
						<stop  offset="0" style="stop-color:#0A77BD"/>
						<stop  offset="0.9979" style="stop-color:#12A3FF"/>
					</linearGradient>
					<path class="st13" d="M580.17,353.54v-28.91h8.09v7.86l-1.11,0.06c0.12-1.64,0.6-3.11,1.44-4.4c0.84-1.29,1.91-2.3,3.2-3.02
						c1.29-0.72,2.62-1.08,3.99-1.08c0.98,0,1.91,0.14,2.81,0.41c0.9,0.27,1.86,0.72,2.87,1.35l-3.87,7.27
						c-0.43-0.27-0.99-0.52-1.67-0.73c-0.68-0.21-1.38-0.32-2.08-0.32c-0.7,0-1.39,0.14-2.05,0.41c-0.67,0.27-1.25,0.67-1.76,1.2
						c-0.51,0.53-0.92,1.22-1.23,2.08c-0.2,0.55-0.34,1.24-0.44,2.08c-0.1,0.84-0.15,2.08-0.15,3.72v12.02H580.17z"/>
					<linearGradient id="SVGID_15_" gradientUnits="userSpaceOnUse" x1="505.063" y1="245.3674" x2="894.2838" y2="245.3674">
						<stop  offset="0" style="stop-color:#0A77BD"/>
						<stop  offset="0.9979" style="stop-color:#12A3FF"/>
					</linearGradient>
					<path class="st14" d="M634.93,354.36c-4.46,0-8.1-1.15-10.94-3.46c-2.83-2.31-4.56-5.37-5.19-9.2l8.21-2.05
						c0.43,2.42,1.37,4.24,2.81,5.45c1.45,1.21,3.24,1.82,5.39,1.82c1.09,0,2.09-0.19,2.99-0.56c0.9-0.37,1.6-0.91,2.11-1.61
						c0.51-0.7,0.76-1.54,0.76-2.52c0-0.9-0.26-1.69-0.79-2.37c-0.53-0.68-1.36-1.32-2.49-1.91c-1.13-0.59-2.58-1.21-4.34-1.88
						c-2.66-1.06-4.87-2.18-6.63-3.37c-1.76-1.19-3.06-2.57-3.9-4.13c-0.84-1.56-1.26-3.38-1.26-5.45c0-2.23,0.55-4.2,1.64-5.92
						c1.09-1.72,2.63-3.07,4.6-4.05c1.97-0.98,4.27-1.47,6.89-1.47c2.81,0,5.3,0.65,7.45,1.94c2.15,1.29,3.89,3.23,5.22,5.81
						l-6.68,4.05c-0.78-1.41-1.7-2.48-2.76-3.23c-1.06-0.74-2.23-1.11-3.52-1.11c-0.82,0-1.56,0.16-2.23,0.47
						c-0.66,0.31-1.2,0.76-1.61,1.35c-0.41,0.59-0.62,1.25-0.62,1.99c0,0.78,0.23,1.49,0.7,2.14c0.47,0.64,1.28,1.28,2.43,1.91
						c1.15,0.62,2.69,1.31,4.6,2.05c2.58,0.94,4.72,1.98,6.42,3.14c1.7,1.15,2.99,2.49,3.87,4.02c0.88,1.52,1.32,3.36,1.32,5.51
						c0,2.46-0.61,4.65-1.82,6.57c-1.21,1.92-2.9,3.41-5.07,4.49C640.36,353.82,637.83,354.36,634.93,354.36z"/>
					<linearGradient id="SVGID_16_" gradientUnits="userSpaceOnUse" x1="505.063" y1="245.3674" x2="894.2838" y2="245.3674">
						<stop  offset="0" style="stop-color:#0A77BD"/>
						<stop  offset="0.9979" style="stop-color:#12A3FF"/>
					</linearGradient>
					<path class="st15" d="M680.11,333.14c-0.57-1.84-1.42-3.43-2.55-4.78c-1.13-1.35-2.55-2.4-4.25-3.17
						c-1.7-0.76-3.66-1.14-5.89-1.14c-2.5,0-4.65,0.44-6.45,1.32c-1.8,0.88-3.24,2.05-4.34,3.52c-1.09,1.47-1.91,3.1-2.43,4.9
						c-0.53,1.8-0.79,3.62-0.79,5.45c0,1.92,0.26,3.76,0.79,5.54c0.53,1.78,1.37,3.37,2.52,4.78c1.15,1.41,2.66,2.52,4.51,3.34
						c1.86,0.82,4.07,1.23,6.65,1.23c1.68,0,3.17-0.14,4.49-0.41c1.31-0.27,2.58-0.72,3.81-1.35c1.23-0.62,2.57-1.44,4.02-2.46
						l-3.69-5.63c-1.09,0.94-2.37,1.66-3.81,2.17c-1.45,0.51-2.89,0.76-4.34,0.76c-1.8,0-3.34-0.44-4.63-1.32
						c-1.29-0.88-2.05-2.22-2.29-4.02h19.35c0.08-0.59,0.13-1.12,0.15-1.58c0.02-0.47,0.03-0.88,0.03-1.23
						C680.96,336.95,680.68,334.98,680.11,333.14z M661.32,335.89c0.12-0.82,0.4-1.62,0.85-2.4c0.45-0.78,1.11-1.44,1.99-1.96
						c0.88-0.53,2-0.79,3.37-0.79c0.86,0,1.64,0.13,2.35,0.38c0.7,0.25,1.31,0.62,1.82,1.08c0.51,0.47,0.91,1.03,1.2,1.67
						c0.28,0.61,0.41,1.29,0.43,2.02H661.32z"/>
					<linearGradient id="SVGID_17_" gradientUnits="userSpaceOnUse" x1="505.063" y1="245.3674" x2="894.2838" y2="245.3674">
						<stop  offset="0" style="stop-color:#0A77BD"/>
						<stop  offset="0.9979" style="stop-color:#12A3FF"/>
					</linearGradient>
					<path class="st16" d="M704.94,324.46c-0.9-0.27-1.84-0.41-2.81-0.41c-1.37,0-2.7,0.36-3.99,1.08c-1.29,0.72-2.36,1.73-3.2,3.02
						c-0.12,0.18-0.22,0.38-0.32,0.57v-4.09h-8.09v28.91h8.03v-12.02c0-1.64,0.05-2.88,0.15-3.72c0.1-0.84,0.24-1.53,0.44-2.08
						c0.31-0.86,0.72-1.55,1.23-2.08c0.51-0.53,1.09-0.93,1.76-1.2c0.66-0.27,1.35-0.41,2.05-0.41c0.7,0,1.4,0.11,2.08,0.32
						c0.68,0.21,1.24,0.46,1.67,0.73l3.87-7.27C706.8,325.18,705.84,324.73,704.94,324.46z"/>
					<linearGradient id="SVGID_18_" gradientUnits="userSpaceOnUse" x1="505.063" y1="245.3674" x2="894.2838" y2="245.3674">
						<stop  offset="0" style="stop-color:#0A77BD"/>
						<stop  offset="0.9979" style="stop-color:#12A3FF"/>
					</linearGradient>
					<path class="st17" d="M721.06,353.54l-11.79-28.91h8.79l6.27,18.41l6.39-18.41h8.68l-11.79,28.91H721.06z"/>
					<linearGradient id="SVGID_19_" gradientUnits="userSpaceOnUse" x1="505.063" y1="245.3674" x2="894.2838" y2="245.3674">
						<stop  offset="0" style="stop-color:#0A77BD"/>
						<stop  offset="0.9979" style="stop-color:#12A3FF"/>
					</linearGradient>
					<path class="st18" d="M743.34,320.41v-7.74h8.38v7.74H743.34z M743.46,353.54v-28.91h8.03v28.91H743.46z"/>
					<linearGradient id="SVGID_20_" gradientUnits="userSpaceOnUse" x1="505.063" y1="245.3674" x2="894.2838" y2="245.3674">
						<stop  offset="0" style="stop-color:#0A77BD"/>
						<stop  offset="0.9979" style="stop-color:#12A3FF"/>
					</linearGradient>
					<path class="st19" d="M771.25,354.13c-2.42,0-4.52-0.42-6.3-1.26c-1.78-0.84-3.26-1.97-4.46-3.4
						c-1.19-1.43-2.08-3.04-2.67-4.84c-0.59-1.8-0.88-3.65-0.88-5.57c0-1.91,0.29-3.77,0.88-5.57c0.59-1.8,1.48-3.4,2.67-4.81
						c1.19-1.41,2.68-2.53,4.46-3.37c1.78-0.84,3.88-1.26,6.3-1.26c2.97,0,5.55,0.7,7.74,2.11c2.19,1.41,3.83,3.58,4.93,6.51
						l-7.04,2.81c-0.43-1.33-1.08-2.4-1.96-3.22c-0.88-0.82-2.1-1.23-3.66-1.23c-1.49,0-2.69,0.39-3.61,1.17
						c-0.92,0.78-1.59,1.79-2.02,3.02c-0.43,1.23-0.65,2.51-0.65,3.84c0,1.33,0.21,2.62,0.65,3.87c0.43,1.25,1.1,2.27,2.02,3.05
						c0.92,0.78,2.12,1.17,3.61,1.17c1.56,0,2.78-0.41,3.66-1.23c0.88-0.82,1.53-1.9,1.96-3.23l7.04,2.81
						c-1.09,2.89-2.74,5.05-4.93,6.48C776.8,353.42,774.22,354.13,771.25,354.13z"/>
					<linearGradient id="SVGID_21_" gradientUnits="userSpaceOnUse" x1="505.063" y1="245.3674" x2="894.2838" y2="245.3674">
						<stop  offset="0" style="stop-color:#0A77BD"/>
						<stop  offset="0.9979" style="stop-color:#12A3FF"/>
					</linearGradient>
					<path class="st20" d="M814.38,333.14c-0.57-1.84-1.42-3.43-2.55-4.78c-1.13-1.35-2.55-2.4-4.25-3.17
						c-1.7-0.76-3.66-1.14-5.89-1.14c-2.5,0-4.65,0.44-6.45,1.32c-1.8,0.88-3.24,2.05-4.34,3.52c-1.09,1.47-1.91,3.1-2.43,4.9
						c-0.53,1.8-0.79,3.62-0.79,5.45c0,1.92,0.26,3.76,0.79,5.54c0.53,1.78,1.37,3.37,2.52,4.78c1.15,1.41,2.66,2.52,4.51,3.34
						c1.86,0.82,4.07,1.23,6.65,1.23c1.68,0,3.17-0.14,4.49-0.41c1.31-0.27,2.58-0.72,3.81-1.35c1.23-0.62,2.57-1.44,4.02-2.46
						l-3.69-5.63c-1.09,0.94-2.37,1.66-3.81,2.17c-1.45,0.51-2.89,0.76-4.34,0.76c-1.8,0-3.34-0.44-4.63-1.32
						c-1.29-0.88-2.05-2.22-2.29-4.02h19.35c0.08-0.59,0.13-1.12,0.15-1.58c0.02-0.47,0.03-0.88,0.03-1.23
						C815.23,336.95,814.94,334.98,814.38,333.14z M795.58,335.89c0.12-0.82,0.4-1.62,0.85-2.4c0.45-0.78,1.11-1.44,1.99-1.96
						c0.88-0.53,2-0.79,3.37-0.79c0.86,0,1.64,0.13,2.35,0.38c0.7,0.25,1.31,0.62,1.82,1.08c0.51,0.47,0.91,1.03,1.2,1.67
						c0.28,0.61,0.41,1.29,0.43,2.02H795.58z"/>
				</g>
			</g>
		</g>
	</g>
	<g>
		<g>
			<g>
				<rect x="53.12" y="238.96" class="st21" width="31.24" height="31.24"/>
				<rect x="115.29" y="259.26" class="st21" width="31.24" height="31.24"/>
				<rect x="107.52" y="173.35" class="st22" width="31.24" height="31.24"/>
				<rect x="32.35" y="181.16" class="st21" width="15.62" height="15.62"/>
				<rect x="80.31" y="150.45" class="st21" width="15.62" height="15.62"/>
				<rect x="93.14" y="221.19" class="st22" width="31.24" height="31.24"/>
				<rect x="10.86" y="221.19" class="st22" width="17.77" height="17.77"/>
				<rect x="68.74" y="184.03" class="st21" width="31.24" height="31.24"/>
				<rect x="123.14" y="134.3" class="st21" width="31.24" height="31.24"/>
				<g>
					<path class="st23" d="M213.34,211.36h-12.3c-1.64,0-2.97,1.33-2.97,2.97v0c0,1.64,1.33,2.97,2.97,2.97h12.3
						c1.64,0,2.97-1.33,2.97-2.97v0C216.31,212.69,214.98,211.36,213.34,211.36z"/>
					<path class="st23" d="M216.52,143.24h-31.67c-0.69,0-1.21,0.61-1.12,1.29l7.29,51.29c0.08,0.56,0.56,0.97,1.12,0.97h106.91
						c-0.29-6.09,2.18-14.36,5.48-18.84C280.56,164.46,239.21,143.24,216.52,143.24z"/>
					<path class="st23" d="M371.05,247.17c-16.06,0-29.17,13.1-29.17,29.17c0,16.06,13.1,29.17,29.17,29.17s29.17-13.1,29.17-29.17
						C400.22,260.27,387.12,247.17,371.05,247.17z M375.18,250.1c4.25,0.67,8.17,2.35,11.5,4.79c-3.35,5.72-7.75,10.61-12.31,15.31
						l-1.32-0.76C373.15,262.95,373.52,256.45,375.18,250.1z M366.93,250.1c1.66,6.35,2.03,12.85,2.13,19.34l-1.32,0.76
						c-4.56-4.7-8.96-9.59-12.31-15.31C358.76,252.45,362.68,250.77,366.93,250.1z M349.6,260.71c5.41,3.17,10.08,7.27,14.54,11.56
						l-0.06,0.04v2.03c-6.46-0.1-12.94-0.47-19.26-2.13C345.48,267.96,347.17,264.05,349.6,260.71z M349.6,291.96
						c-2.44-3.33-4.12-7.25-4.79-11.5c6.33-1.65,12.8-2.02,19.26-2.13v2.03l0.06,0.04C359.68,284.69,355.01,288.79,349.6,291.96z
						 M366.93,302.58c-4.25-0.67-8.17-2.35-11.5-4.79c3.35-5.72,7.75-10.61,12.31-15.31l1.32,0.76
						C368.96,289.72,368.59,296.22,366.93,302.58z M368.09,276.34c0-1.63,1.33-2.97,2.97-2.97s2.97,1.33,2.97,2.97
						c0,1.63-1.33,2.97-2.97,2.97S368.09,277.97,368.09,276.34z M375.18,302.58c-1.66-6.35-2.03-12.85-2.13-19.34l1.32-0.76
						c4.56,4.7,8.96,9.59,12.31,15.31C383.34,300.22,379.43,301.91,375.18,302.58z M392.5,291.96c-5.41-3.17-10.08-7.27-14.54-11.56
						l0.06-0.04v-2.03c6.46,0.1,12.94,0.47,19.26,2.13C396.63,284.71,394.94,288.63,392.5,291.96z M397.29,272.21
						c-6.33,1.65-12.8,2.02-19.26,2.13v-2.03l-0.06-0.04c4.46-4.29,9.13-8.39,14.54-11.56
						C394.94,264.05,396.63,267.96,397.29,272.21z"/>
					<linearGradient id="SVGID_22_" gradientUnits="userSpaceOnUse" x1="134.0547" y1="210.7658" x2="459.811" y2="210.7658">
						<stop  offset="0" style="stop-color:#0A77BD"/>
						<stop  offset="1" style="stop-color:#12A3FF"/>
					</linearGradient>
					<path class="st24" d="M467.65,244.33c-5.31-2.37-14.46-5.11-27.85-4.62c-0.41,0.02-0.81-0.17-1.06-0.5l-13.8-18.58
						c-0.64-0.87-0.05-2.1,1.03-2.13c5.27-0.17,17.8,0.17,28.37,2.36c-9.85-10.3-23.77-20.19-35.38-21.23
						c-17.91-1.59-75.24-8.45-75.24-8.45l0.04,0c-5.33-3.12-11.54-6.76-18.32-10.64c-21.9-12.88-45.62-26.22-70.88-35.25
						c-6.42-2.4-12.54-4.35-18.12-5.62c0,0,0,0,0,0c-14.8-3.84-23.4-5.93-39.1-5.38l-35.07-0.01v8.94h6.43
						c0.99,0,1.81,0.78,1.86,1.77l2.28,49.83c0.05,1.06-0.8,1.94-1.86,1.94h-8.71h-2.92H128.1v31.24h31.24h6.14v31.24h-6.14v14.39
						h167.93c1.48-24.27,22.76-43.27,47.85-41c21.04,1.9,37.9,18.9,39.65,39.95c0.43,5.11-0.03,10.06-1.23,14.71
						c20.27-1.07,34.46-3.09,50-5.93c1.34-0.25,2.38-1.32,2.58-2.66C467.01,272.75,469.18,256.17,467.65,244.33z M216.31,214.33
						c0,1.64-1.33,2.97-2.97,2.97h-12.3c-1.64,0-2.97-1.33-2.97-2.97v0c0-1.64,1.33-2.97,2.97-2.97h12.3
						C214.98,211.36,216.31,212.69,216.31,214.33L216.31,214.33z M299.06,196.78H192.15c-0.56,0-1.04-0.41-1.12-0.97l-7.29-51.29
						c-0.1-0.68,0.43-1.29,1.12-1.29h31.67c22.69,0,64.04,21.23,88.02,34.71C301.24,182.42,298.77,190.69,299.06,196.78z
						 M462.4,274.31c-0.07,0.53-0.47,0.95-1,1.05l-13.95,2.57c-0.97,0.18-1.74-0.8-1.35-1.7l6.46-14.89
						c0.17-0.39,0.52-0.66,0.94-0.73l7.56-1.16c0.68-0.1,1.31,0.38,1.41,1.06C463.28,266.29,462.68,272.14,462.4,274.31z"/>
					<linearGradient id="SVGID_23_" gradientUnits="userSpaceOnUse" x1="134.0547" y1="276.3372" x2="459.811" y2="276.3372">
						<stop  offset="0" style="stop-color:#0A77BD"/>
						<stop  offset="1" style="stop-color:#12A3FF"/>
					</linearGradient>
					<path class="st25" d="M371.05,236.63c-21.93,0-39.71,17.78-39.71,39.71c0,4.39,0.72,8.6,2.04,12.55
						c0.66,1.97,1.46,3.87,2.41,5.69c0,0,0,0,0,0.01c0.23,0.45,0.48,0.9,0.73,1.34c0.01,0.01,0.01,0.02,0.02,0.03
						c0.41,0.71,0.84,1.41,1.29,2.1c0.64,0.98,1.32,1.94,2.05,2.85c0.04,0.05,0.08,0.1,0.12,0.16c0.28,0.35,0.57,0.7,0.86,1.04
						c0.06,0.07,0.11,0.13,0.17,0.2c0.95,1.1,1.95,2.14,3.01,3.13c0.02,0.02,0.03,0.03,0.05,0.05c0.29,0.27,0.59,0.53,0.89,0.8
						c0.13,0.11,0.26,0.23,0.39,0.34c0.28,0.24,0.57,0.47,0.85,0.71c0.16,0.12,0.31,0.25,0.47,0.37c0.28,0.22,0.57,0.44,0.86,0.66
						c0.15,0.11,0.31,0.22,0.47,0.33c0.51,0.37,1.04,0.72,1.57,1.06c0.21,0.14,0.43,0.28,0.64,0.41c0.26,0.16,0.52,0.31,0.78,0.47
						c0.24,0.14,0.48,0.28,0.73,0.42c0.25,0.14,0.51,0.28,0.77,0.42c0.27,0.14,0.54,0.28,0.82,0.42c0.24,0.12,0.48,0.24,0.73,0.36
						c0.37,0.18,0.75,0.35,1.14,0.51c0.25,0.11,0.5,0.22,0.76,0.32c0.41,0.17,0.83,0.34,1.25,0.49c0.22,0.08,0.44,0.16,0.65,0.23
						c0.35,0.12,0.7,0.24,1.05,0.35c0.23,0.07,0.45,0.14,0.68,0.21c0.37,0.11,0.74,0.22,1.12,0.32c0.2,0.05,0.41,0.11,0.61,0.16
						c0.54,0.14,1.09,0.26,1.64,0.38c0.06,0.01,0.12,0.03,0.19,0.04c0.56,0.11,1.13,0.21,1.69,0.3c0.19,0.03,0.39,0.06,0.58,0.08
						c0.42,0.06,0.83,0.11,1.25,0.16c0.22,0.02,0.43,0.05,0.65,0.07c0.43,0.04,0.85,0.07,1.28,0.1c0.19,0.01,0.39,0.03,0.58,0.04
						c0.62,0.03,1.24,0.05,1.87,0.05c0.63,0,1.26-0.02,1.88-0.05c0.2-0.01,0.4-0.03,0.6-0.04c0.43-0.03,0.85-0.06,1.27-0.1
						c0.23-0.02,0.45-0.05,0.68-0.07c0.4-0.04,0.8-0.1,1.2-0.15c0.22-0.03,0.44-0.06,0.67-0.1c0.43-0.07,0.85-0.15,1.28-0.23
						c0.18-0.03,0.36-0.06,0.53-0.1c0.59-0.12,1.17-0.26,1.74-0.4c0.15-0.04,0.3-0.08,0.45-0.13c0.43-0.11,0.85-0.23,1.28-0.36
						c0.23-0.07,0.45-0.14,0.67-0.22c0.35-0.11,0.69-0.23,1.03-0.35c0.24-0.09,0.48-0.17,0.71-0.26c0.33-0.12,0.65-0.25,0.97-0.38
						c0.23-0.1,0.47-0.19,0.7-0.29c0.34-0.15,0.68-0.3,1.02-0.46c0.21-0.1,0.42-0.19,0.62-0.29c0.49-0.24,0.97-0.49,1.45-0.74
						c0.25-0.13,0.49-0.28,0.74-0.42c0.26-0.15,0.51-0.29,0.77-0.44c0.27-0.16,0.53-0.32,0.79-0.49c0.22-0.14,0.45-0.28,0.67-0.43
						c0.27-0.18,0.54-0.36,0.81-0.54c0.2-0.14,0.39-0.28,0.59-0.42c0.28-0.2,0.56-0.4,0.83-0.61c0.12-0.09,0.24-0.19,0.35-0.28
						c0.64-0.5,1.27-1.02,1.88-1.56c0.08-0.07,0.16-0.14,0.24-0.21c0.3-0.27,0.59-0.54,0.88-0.82c0.12-0.11,0.24-0.22,0.35-0.34
						c0.29-0.28,0.57-0.56,0.85-0.85c0.1-0.11,0.21-0.22,0.31-0.33c0.29-0.31,0.58-0.61,0.86-0.93c0.05-0.06,0.1-0.12,0.16-0.18
						c1.31-1.5,2.51-3.09,3.59-4.77c0.04-0.06,0.07-0.12,0.11-0.17c0.26-0.4,0.51-0.81,0.75-1.23c0.02-0.04,0.05-0.08,0.07-0.13
						c1.29-2.23,2.37-4.6,3.21-7.08c0.01-0.04,0.03-0.08,0.04-0.12c0.16-0.49,0.32-0.98,0.46-1.47c1.04-3.55,1.61-7.3,1.61-11.19
						C410.76,254.41,392.98,236.63,371.05,236.63z M371.05,305.5c-16.06,0-29.17-13.1-29.17-29.17c0-16.06,13.1-29.17,29.17-29.17
						s29.17,13.1,29.17,29.17C400.22,292.4,387.12,305.5,371.05,305.5z"/>
					<linearGradient id="SVGID_24_" gradientUnits="userSpaceOnUse" x1="134.0547" y1="276.3373" x2="459.811" y2="276.3373">
						<stop  offset="0" style="stop-color:#0A77BD"/>
						<stop  offset="1" style="stop-color:#12A3FF"/>
					</linearGradient>
					<path class="st26" d="M374.02,276.34c0-1.63-1.33-2.97-2.97-2.97s-2.97,1.33-2.97,2.97c0,1.63,1.33,2.97,2.97,2.97
						S374.02,277.97,374.02,276.34z"/>
					<linearGradient id="SVGID_25_" gradientUnits="userSpaceOnUse" x1="134.0547" y1="285.004" x2="459.811" y2="285.004">
						<stop  offset="0" style="stop-color:#0A77BD"/>
						<stop  offset="1" style="stop-color:#12A3FF"/>
					</linearGradient>
					<path class="st27" d="M159.34,279.51v11h31.24v-0.07l138.47-1.48c-0.91-3.03-1.51-6.19-1.75-9.45H159.34z"/>
					<linearGradient id="SVGID_26_" gradientUnits="userSpaceOnUse" x1="134.0547" y1="267.5251" x2="459.811" y2="267.5251">
						<stop  offset="0" style="stop-color:#0A77BD"/>
						<stop  offset="1" style="stop-color:#12A3FF"/>
					</linearGradient>
					<path class="st28" d="M364.08,272.31l0.06-0.04c-4.46-4.29-9.13-8.39-14.54-11.56c-2.44,3.33-4.12,7.25-4.79,11.5
						c6.33,1.65,12.8,2.02,19.26,2.13V272.31z"/>
					<linearGradient id="SVGID_27_" gradientUnits="userSpaceOnUse" x1="134.0547" y1="285.1497" x2="459.811" y2="285.1497">
						<stop  offset="0" style="stop-color:#0A77BD"/>
						<stop  offset="1" style="stop-color:#12A3FF"/>
					</linearGradient>
					<path class="st29" d="M364.08,280.36v-2.03c-6.46,0.1-12.94,0.47-19.26,2.13c0.67,4.25,2.35,8.17,4.79,11.5
						c5.41-3.17,10.08-7.27,14.54-11.56L364.08,280.36z"/>
					<linearGradient id="SVGID_28_" gradientUnits="userSpaceOnUse" x1="134.0547" y1="260.1492" x2="459.811" y2="260.1492">
						<stop  offset="0" style="stop-color:#0A77BD"/>
						<stop  offset="1" style="stop-color:#12A3FF"/>
					</linearGradient>
					<path class="st30" d="M369.06,269.44c-0.1-6.49-0.47-12.99-2.13-19.34c-4.25,0.67-8.17,2.35-11.5,4.79
						c3.35,5.72,7.75,10.61,12.31,15.31L369.06,269.44z"/>
					<linearGradient id="SVGID_29_" gradientUnits="userSpaceOnUse" x1="134.0547" y1="260.1492" x2="459.811" y2="260.1492">
						<stop  offset="0" style="stop-color:#0A77BD"/>
						<stop  offset="1" style="stop-color:#12A3FF"/>
					</linearGradient>
					<path class="st31" d="M386.68,254.89c-3.33-2.44-7.25-4.12-11.5-4.79c-1.66,6.35-2.03,12.85-2.13,19.34l1.32,0.76
						C378.93,265.5,383.33,260.6,386.68,254.89z"/>
					<linearGradient id="SVGID_30_" gradientUnits="userSpaceOnUse" x1="134.0547" y1="292.5256" x2="459.811" y2="292.5256">
						<stop  offset="0" style="stop-color:#0A77BD"/>
						<stop  offset="1" style="stop-color:#12A3FF"/>
					</linearGradient>
					<path class="st32" d="M355.43,297.79c3.33,2.44,7.25,4.12,11.5,4.79c1.66-6.35,2.03-12.85,2.13-19.34l-1.32-0.76
						C363.18,287.17,358.78,292.07,355.43,297.79z"/>
					<linearGradient id="SVGID_31_" gradientUnits="userSpaceOnUse" x1="134.0547" y1="267.5251" x2="459.811" y2="267.5251">
						<stop  offset="0" style="stop-color:#0A77BD"/>
						<stop  offset="1" style="stop-color:#12A3FF"/>
					</linearGradient>
					<path class="st33" d="M378.03,272.31v2.03c6.46-0.1,12.94-0.47,19.26-2.13c-0.67-4.25-2.35-8.17-4.79-11.5
						c-5.41,3.17-10.08,7.27-14.54,11.56L378.03,272.31z"/>
					<linearGradient id="SVGID_32_" gradientUnits="userSpaceOnUse" x1="134.0547" y1="285.1501" x2="459.811" y2="285.1501">
						<stop  offset="0" style="stop-color:#0A77BD"/>
						<stop  offset="1" style="stop-color:#12A3FF"/>
					</linearGradient>
					<path class="st34" d="M378.03,280.36l-0.06,0.04c4.46,4.29,9.13,8.39,14.54,11.56c2.44-3.33,4.12-7.25,4.79-11.5
						c-6.33-1.65-12.8-2.02-19.26-2.13V280.36z"/>
					<linearGradient id="SVGID_33_" gradientUnits="userSpaceOnUse" x1="134.0547" y1="292.5258" x2="459.811" y2="292.5258">
						<stop  offset="0" style="stop-color:#0A77BD"/>
						<stop  offset="1" style="stop-color:#12A3FF"/>
					</linearGradient>
					<path class="st35" d="M373.05,283.24c0.1,6.49,0.47,12.99,2.13,19.34c4.25-0.67,8.17-2.35,11.5-4.79
						c-3.35-5.72-7.75-10.61-12.31-15.31L373.05,283.24z"/>
				</g>
			</g>
			<g>
				<linearGradient id="SVGID_34_" gradientUnits="userSpaceOnUse" x1="45.3959" y1="360.2219" x2="455.6418" y2="360.2219">
					<stop  offset="0" style="stop-color:#FF9D00"/>
					<stop  offset="0.9721" style="stop-color:#FFCA00"/>
				</linearGradient>
				<path class="st36" d="M390.15,321.28c-31.2,43.47-82.16,71.84-139.63,71.84c-66.1,0-123.59-37.54-152.3-92.41H61.26
					c10.17,24.25,25.06,46.52,44.21,65.68c38.74,38.74,90.25,60.08,145.04,60.08s106.3-21.34,145.04-60.08
					c20.91-20.91,36.74-45.55,46.89-72.41c-8.12,1.03-16.76,1.84-26.83,2.4C410.53,307.65,401.31,316.5,390.15,321.28z"/>
				<linearGradient id="SVGID_35_" gradientUnits="userSpaceOnUse" x1="45.3959" y1="112.6442" x2="455.6418" y2="112.6442">
					<stop  offset="0" style="stop-color:#FF9D00"/>
					<stop  offset="0.9721" style="stop-color:#FFCA00"/>
				</linearGradient>
				<path class="st37" d="M250.52,49.57c84.18,0,154.41,60.87,168.99,140.91c0.09,0.01,0.18,0.02,0.26,0.02
					c11.71,1.04,24.87,9.03,35.5,18.57c-2.94-50.17-23.87-96.94-59.71-132.77c-38.74-38.74-90.25-60.08-145.04-60.08
					S144.22,37.56,105.47,76.3c-13.85,13.85-25.46,29.34-34.69,46.02h39.44C141.37,78.34,192.65,49.57,250.52,49.57z"/>
			</g>
			<rect x="53.12" y="238.96" class="st21" width="31.24" height="31.24"/>
			<rect x="107.52" y="173.35" class="st22" width="31.24" height="31.24"/>
			<rect x="32.35" y="181.16" class="st21" width="15.62" height="15.62"/>
			<rect x="93.14" y="221.19" class="st22" width="31.24" height="31.24"/>
			<rect x="10.86" y="221.19" class="st22" width="17.77" height="17.77"/>
			<rect x="68.74" y="184.03" class="st21" width="31.24" height="31.24"/>
		</g>
		<rect x="115.29" y="259.26" class="st21" width="31.24" height="31.24"/>
		<rect x="80.31" y="150.45" class="st21" width="15.62" height="15.62"/>
		<rect x="123.14" y="134.3" class="st21" width="31.24" height="31.24"/>
	</g>
</g>
</svg>
