<?xml version="1.0" encoding="UTF-8" standalone="no"?><!DOCTYPE svg PUBLIC "-//W3C//DTD SVG 1.1//EN" "http://www.w3.org/Graphics/SVG/1.1/DTD/svg11.dtd"><svg width="100%" height="100%" viewBox="0 0 279 172" version="1.1" xmlns="http://www.w3.org/2000/svg" xmlns:xlink="http://www.w3.org/1999/xlink" xml:space="preserve" xmlns:serif="http://www.serif.com/" style="fill-rule:evenodd;clip-rule:evenodd;stroke-linejoin:round;stroke-miterlimit:2;"><path d="M148.24,171.021c-0.981,0 -1.81,-0.181 -2.488,-0.543c-0.678,-0.362 -1.158,-0.869 -1.441,-1.52c-0.283,-0.651 -0.344,-1.398 -0.182,-2.242c0.215,-1.118 0.664,-2.113 1.35,-2.984c0.685,-0.871 1.535,-1.552 2.551,-2.043c1.015,-0.49 2.11,-0.735 3.284,-0.735c0.926,-0 1.714,0.167 2.365,0.502c0.651,0.334 1.092,0.809 1.322,1.423l-2.689,1.829c-0.286,-0.752 -0.856,-1.128 -1.709,-1.128c-0.504,0 -0.977,0.124 -1.419,0.372c-0.442,0.247 -0.815,0.594 -1.121,1.038c-0.305,0.445 -0.512,0.951 -0.621,1.52c-0.109,0.568 -0.016,1.025 0.28,1.368c0.297,0.344 0.743,0.516 1.339,0.516c0.816,0 1.602,-0.371 2.359,-1.114l1.561,1.829c-0.692,0.688 -1.421,1.179 -2.188,1.472c-0.766,0.293 -1.618,0.44 -2.553,0.44Zm-59.359,0c-0.835,0 -1.602,-0.089 -2.301,-0.268c-0.699,-0.179 -1.259,-0.415 -1.679,-0.708l1.71,-2.394c0.922,0.596 1.947,0.894 3.075,0.894c0.412,0 0.738,-0.05 0.978,-0.151c0.239,-0.101 0.376,-0.238 0.409,-0.412c0.032,-0.165 -0.055,-0.298 -0.26,-0.399c-0.206,-0.101 -0.54,-0.211 -1.003,-0.33c-0.61,-0.165 -1.11,-0.333 -1.499,-0.502c-0.389,-0.17 -0.708,-0.431 -0.957,-0.784c-0.248,-0.353 -0.317,-0.819 -0.206,-1.396c0.139,-0.725 0.455,-1.36 0.95,-1.905c0.494,-0.546 1.137,-0.967 1.927,-1.265c0.791,-0.298 1.686,-0.447 2.685,-0.447c0.716,-0 1.369,0.071 1.961,0.213c0.591,0.142 1.086,0.346 1.484,0.612l-1.623,2.365c-0.33,-0.238 -0.71,-0.417 -1.141,-0.536c-0.431,-0.119 -0.885,-0.179 -1.362,-0.179c-0.449,0 -0.81,0.064 -1.082,0.193c-0.272,0.128 -0.425,0.279 -0.459,0.454c-0.033,0.174 0.053,0.311 0.258,0.412c0.206,0.101 0.553,0.211 1.044,0.33c0.595,0.147 1.09,0.303 1.485,0.468c0.395,0.165 0.715,0.422 0.959,0.77c0.245,0.349 0.313,0.807 0.204,1.375c-0.137,0.716 -0.455,1.344 -0.953,1.885c-0.498,0.541 -1.142,0.96 -1.933,1.258c-0.791,0.298 -1.681,0.447 -2.671,0.447Zm-44.905,0c-0.981,0 -1.811,-0.181 -2.489,-0.543c-0.677,-0.362 -1.158,-0.869 -1.441,-1.52c-0.283,-0.651 -0.344,-1.398 -0.182,-2.242c0.215,-1.118 0.665,-2.113 1.35,-2.984c0.685,-0.871 1.536,-1.552 2.551,-2.043c1.016,-0.49 2.111,-0.735 3.284,-0.735c0.926,-0 1.715,0.167 2.366,0.502c0.651,0.334 1.091,0.809 1.322,1.423l-2.689,1.829c-0.287,-0.752 -0.857,-1.128 -1.709,-1.128c-0.505,0 -0.978,0.124 -1.419,0.372c-0.442,0.247 -0.816,0.594 -1.121,1.038c-0.305,0.445 -0.513,0.951 -0.622,1.52c-0.109,0.568 -0.015,1.025 0.281,1.368c0.296,0.344 0.742,0.516 1.338,0.516c0.816,0 1.603,-0.371 2.359,-1.114l1.561,1.829c-0.691,0.688 -1.42,1.179 -2.187,1.472c-0.767,0.293 -1.618,0.44 -2.553,0.44Zm196.921,0c-0.981,0 -1.806,-0.181 -2.475,-0.543c-0.668,-0.362 -1.139,-0.869 -1.413,-1.52c-0.274,-0.651 -0.33,-1.398 -0.168,-2.242c0.214,-1.118 0.665,-2.115 1.351,-2.991c0.686,-0.876 1.536,-1.557 2.551,-2.042c1.015,-0.486 2.104,-0.729 3.269,-0.729c0.981,-0 1.805,0.181 2.474,0.543c0.669,0.362 1.14,0.869 1.414,1.52c0.274,0.651 0.33,1.398 0.168,2.241c-0.215,1.119 -0.665,2.116 -1.351,2.992c-0.686,0.875 -1.537,1.556 -2.551,2.042c-1.015,0.486 -2.105,0.729 -3.269,0.729Zm-34.68,-1.898l-3.672,0l-1.284,1.678l-3.425,0l7.981,-9.627l3.191,-0l0.436,9.627l-3.232,0l0.005,-1.678Zm-44.426,-5.501l-0.437,1.128l4.071,-0l-0.916,2.338l-4.085,-0l-0.49,1.265l4.827,-0l-0.965,2.448l-8.004,0l3.773,-9.627l7.825,-0l-0.964,2.448l-4.635,-0Zm-85.079,0.715c-0.163,0.853 -0.533,1.598 -1.109,2.235c-0.576,0.637 -1.307,1.112 -2.192,1.423l1.071,2.806l-3.37,0l-0.897,-2.421l-0.798,0l-0.945,2.421l-3.246,0l3.773,-9.627l4.318,-0c1.265,-0 2.196,0.277 2.791,0.832c0.595,0.554 0.796,1.332 0.604,2.331Zm59.238,-3.163l-7.844,9.627l-3.191,0l-0.298,-9.627l3.329,-0l0.119,5.611l4.557,-5.611l3.328,-0Zm-77.224,7.949l-3.672,0l-1.285,1.678l-3.424,0l7.981,-9.627l3.191,-0l0.435,9.627l-3.232,0l0.006,-1.678Zm219.503,-7.949l-3.745,9.627l-2.957,0l1.694,-4.387l-3.385,3.521l-1.43,-0l-0.82,-3.466l-1.698,4.332l-2.957,0l3.773,-9.627l2.64,-0l1.109,5.116l5.012,-5.116l2.764,-0Zm-139.212,-0l3.246,-0l-3.773,9.627l-3.246,0l3.773,-9.627Zm122.404,3.163c-0.164,0.853 -0.534,1.598 -1.11,2.235c-0.576,0.637 -1.307,1.112 -2.192,1.423l1.071,2.806l-3.37,0l-0.897,-2.421l-0.797,0l-0.946,2.421l-3.246,0l3.773,-9.627l4.318,-0c1.266,-0 2.196,0.277 2.791,0.832c0.595,0.554 0.796,1.332 0.605,2.331Zm-78.696,-3.163c1.284,-0 2.225,0.279 2.824,0.839c0.599,0.559 0.801,1.343 0.608,2.351c-0.155,0.807 -0.491,1.518 -1.008,2.132c-0.516,0.615 -1.176,1.091 -1.98,1.431c-0.803,0.339 -1.69,0.508 -2.662,0.508l-1.664,0l-0.922,2.366l-3.246,0l3.773,-9.627l4.277,-0Zm47.31,2.448l-0.647,1.65l4.016,0l-0.965,2.448l-4.002,0l-1.21,3.081l-3.246,0l3.773,-9.627l7.826,-0l-0.965,2.448l-4.58,-0Zm-12.928,0.069l-2.819,-0l0.992,-2.517l8.884,-0l-0.991,2.517l-2.82,-0l-2.781,7.11l-3.246,0l2.781,-7.11Zm-25.827,-2.517l3.246,-0l-2.781,7.11l4.346,0l-0.992,2.517l-7.592,0l3.773,-9.627Zm-70.901,3.163c-0.163,0.853 -0.533,1.598 -1.109,2.235c-0.576,0.637 -1.307,1.112 -2.192,1.423l1.071,2.806l-3.37,0l-0.897,-2.421l-0.798,0l-0.945,2.421l-3.246,0l3.773,-9.627l4.318,-0c1.266,-0 2.196,0.277 2.791,0.832c0.595,0.554 0.796,1.332 0.604,2.331Zm-17.494,-0.715l-0.437,1.128l4.071,-0l-0.916,2.338l-4.085,-0l-0.49,1.265l4.827,-0l-0.964,2.448l-8.005,0l3.773,-9.627l7.826,-0l-0.965,2.448l-4.635,-0Zm138.791,4.772c0.514,0 0.986,-0.133 1.418,-0.399c0.431,-0.266 0.791,-0.623 1.079,-1.072c0.288,-0.45 0.483,-0.94 0.585,-1.472c0.109,-0.569 0.029,-1.022 -0.241,-1.362c-0.27,-0.339 -0.698,-0.509 -1.285,-0.509c-0.513,0 -0.986,0.133 -1.417,0.399c-0.432,0.266 -0.791,0.624 -1.079,1.073c-0.288,0.449 -0.483,0.94 -0.585,1.472c-0.109,0.568 -0.029,1.022 0.24,1.361c0.27,0.34 0.698,0.509 1.285,0.509Zm-35.464,-1.609l0.005,-2.462l-1.889,2.462l1.884,0Zm-147.491,0l0.005,-2.462l-1.889,2.462l1.884,0Zm122.431,-0.853c0.449,0 0.819,-0.112 1.11,-0.337c0.291,-0.224 0.475,-0.538 0.552,-0.942c0.125,-0.651 -0.216,-0.976 -1.023,-0.976l-1.086,-0l-0.887,2.255l1.334,0Zm-107.787,-1.279c0.125,-0.651 -0.216,-0.976 -1.023,-0.976l-1.087,-0l-0.886,2.255l1.334,0c0.449,0 0.819,-0.112 1.11,-0.337c0.29,-0.224 0.474,-0.538 0.552,-0.942Zm184.708,0c0.125,-0.651 -0.216,-0.976 -1.023,-0.976l-1.087,-0l-0.886,2.255l1.334,0c0.449,0 0.819,-0.112 1.11,-0.337c0.29,-0.224 0.474,-0.538 0.552,-0.942Zm-141.041,0c0.125,-0.651 -0.216,-0.976 -1.023,-0.976l-1.087,-0l-0.886,2.255l1.334,0c0.449,0 0.819,-0.112 1.11,-0.337c0.29,-0.224 0.474,-0.538 0.552,-0.942Zm135.525,-57.608l-37.068,-0c-1.242,-0 -2.622,1.021 -3.08,2.28l-0.011,-0l-14.197,39.004l-18.033,0l14.344,-39.41c3.837,-9.948 14.895,-17.957 24.894,-17.957l41.74,0c10.134,0 15.367,8.228 11.679,18.363c-3.689,10.134 -14.912,18.362 -25.046,18.362l-39.005,-0l5.854,-16.083l37.068,0c1.242,0 2.622,-1.021 3.08,-2.279c0.456,-1.254 -0.174,-2.272 -1.406,-2.28l-0.813,-0Zm-152.719,21.87l-7.066,19.414l-28.684,0l-0.185,-0c-15.709,-0.1 -23.798,-12.914 -18.058,-28.683c5.762,-15.831 23.292,-28.684 39.123,-28.684l28.688,0l-7.071,19.414l-28.683,0c-5.116,0 -10.781,4.154 -12.643,9.27c-1.855,5.096 0.759,9.237 5.836,9.269l0.059,0l28.684,0Zm44.147,-1.228l-18.362,-0c-10.135,-0 -15.368,-8.228 -11.679,-18.362c3.688,-10.135 14.911,-18.363 25.046,-18.363l55.087,0l-5.854,16.083l-53.15,-0c-1.242,-0 -2.622,1.021 -3.08,2.28c-0.457,1.253 0.173,2.271 1.405,2.279l0.015,0l16.426,0l-0,0l18.362,0c10.135,0 15.368,8.228 11.679,18.363c-3.688,10.134 -14.911,18.362 -25.046,18.362l-55.091,0l5.853,-16.082l53.155,-0c1.242,-0 2.622,-1.022 3.08,-2.28c0.457,-1.254 -0.173,-2.272 -1.405,-2.28l-0.015,0l-16.426,0l0,-0Zm-109.906,-3.652c-14.862,-11.736 -24.407,-29.913 -24.407,-50.301c0,-35.357 28.705,-64.062 64.062,-64.062c6.701,0 13.164,1.03 19.238,2.943l2.905,-9.226c-6.991,-2.201 -14.43,-3.389 -22.143,-3.389c-40.695,-0 -73.734,33.039 -73.734,73.734c0,23.724 11.229,44.847 28.658,58.338c0,-0 5.581,-7.877 5.421,-8.037Zm50.668,-53.703c0.942,1.222 1.662,2.647 2.086,4.229c1.722,6.425 -2.097,13.039 -8.522,14.761c-6.424,1.721 -13.038,-2.097 -14.76,-8.522c-1.721,-6.425 2.097,-13.039 8.522,-14.761c2.32,-0.621 4.665,-0.521 6.795,0.164l44.655,-45.265l-38.776,49.394Zm49.963,-13.36c1.433,5.344 2.198,10.964 2.198,16.762l10,-0c-0,-6.695 -0.885,-13.183 -2.54,-19.353l-9.658,2.591Zm-12.736,-24.502c3.941,4.719 7.22,10.018 9.692,15.749l9.183,-3.96c-2.857,-6.623 -6.645,-12.745 -11.199,-18.199l-7.676,6.41Zm-21.836,-16.893c5.629,2.652 10.81,6.108 15.397,10.222l6.676,-7.445c-5.306,-4.759 -11.3,-8.756 -17.811,-11.823l-4.262,9.046Z" style="fill:#fff;"/></svg>